0
SECTION
2
HEADER
9
$ACADVER
1
AC1008
9
$UCSORG
10
0.0
20
0.0
30
0.0
9
$UCSXDIR
10
1.0
20
0.0
30
0.0
9
$TILEMODE
70
1
9
$UCSYDIR
10
0.0
20
1.0
30
0.0
9
$EXTMIN
10
-5.861065
20
126.829941
30
352.185577
9
$EXTMAX
10
21.983246
20
154.541855
30
401.096375
0
ENDSEC
0
SECTION
2
TABLES
0
TABLE
2
LTYPE
70
1
0
LTYPE
2
CONTINUOUS
70
64
3
Solid line
72
65
73
0
40
0.0
0
ENDTAB
0
TABLE
2
LAYER
70
1
0
LAYER
2
FROND01
70
0
62
3
6
CONTINUOUS
0
LAYER
2
0
70
0
62
7
6
CONTINUOUS
0
ENDTAB
0
TABLE
2
STYLE
70
1
0
STYLE
2
STANDARD
70
0
40
0.0
41
1.0
50
0.0
71
0
42
0.2
3
txt
4

0
ENDTAB
0
TABLE
2
UCS
70
0
0
ENDTAB
0
ENDSEC
0
SECTION
2
ENTITIES
0
POLYLINE
8
FROND01
66
1
70
64
71
835
72
1376
0
VERTEX
8
FROND01
10
2.700701
20
151.005051
30
352.185577
70
192
0
VERTEX
8
FROND01
10
3.177669
20
150.048386
30
352.185577
70
192
0
VERTEX
8
FROND01
10
3.252244
20
148.982025
30
352.185577
70
192
0
VERTEX
8
FROND01
10
2.913060
20
147.968292
30
352.185577
70
192
0
VERTEX
8
FROND01
10
2.211728
20
147.161545
30
352.185577
70
192
0
VERTEX
8
FROND01
10
1.255082
20
146.684570
30
352.185577
70
192
0
VERTEX
8
FROND01
10
0.188694
20
146.610016
30
352.185577
70
192
0
VERTEX
8
FROND01
10
-0.825005
20
146.949188
30
352.185577
70
192
0
VERTEX
8
FROND01
10
-1.631770
20
147.650513
30
352.185577
70
192
0
VERTEX
8
FROND01
10
-2.108743
20
148.607147
30
352.185577
70
192
0
VERTEX
8
FROND01
10
-2.183320
20
149.673523
30
352.185577
70
192
0
VERTEX
8
FROND01
10
-1.844126
20
150.687256
30
352.185577
70
192
0
VERTEX
8
FROND01
10
-1.142814
20
151.494019
30
352.185577
70
192
0
VERTEX
8
FROND01
10
-0.186169
20
151.970978
30
352.185577
70
192
0
VERTEX
8
FROND01
10
0.880220
20
152.045547
30
352.185577
70
192
0
VERTEX
8
FROND01
10
1.893934
20
151.706360
30
352.185577
70
192
0
VERTEX
8
FROND01
10
2.647712
20
150.810577
30
356.110016
70
192
0
VERTEX
8
FROND01
10
3.098826
20
149.907318
30
356.048706
70
192
0
VERTEX
8
FROND01
10
3.170886
20
148.901199
30
355.996765
70
192
0
VERTEX
8
FROND01
10
2.852853
20
147.945435
30
355.962036
70
192
0
VERTEX
8
FROND01
10
2.193196
20
147.185501
30
355.949829
70
192
0
VERTEX
8
FROND01
10
1.292285
20
146.737122
30
355.962036
70
192
0
VERTEX
8
FROND01
10
0.287347
20
146.668518
30
355.996765
70
192
0
VERTEX
8
FROND01
10
-0.668677
20
146.990173
30
356.048706
70
192
0
VERTEX
8
FROND01
10
-1.430227
20
147.653107
30
356.110016
70
192
0
VERTEX
8
FROND01
10
-1.881359
20
148.556366
30
356.171326
70
192
0
VERTEX
8
FROND01
10
-1.953402
20
149.562485
30
356.223297
70
192
0
VERTEX
8
FROND01
10
-1.635373
20
150.518250
30
356.257996
70
192
0
VERTEX
8
FROND01
10
-0.975689
20
151.278183
30
356.270203
70
192
0
VERTEX
8
FROND01
10
-0.074817
20
151.726563
30
356.257996
70
192
0
VERTEX
8
FROND01
10
0.930135
20
151.795151
30
356.223297
70
192
0
VERTEX
8
FROND01
10
1.886165
20
151.473495
30
356.171326
70
192
0
VERTEX
8
FROND01
10
2.743007
20
150.424606
30
360.019470
70
192
0
VERTEX
8
FROND01
10
3.166232
20
149.577362
30
359.904022
70
192
0
VERTEX
8
FROND01
10
3.234017
20
148.633759
30
359.806152
70
192
0
VERTEX
8
FROND01
10
2.935984
20
147.737457
30
359.740784
70
192
0
VERTEX
8
FROND01
10
2.317546
20
147.024902
30
359.717834
70
192
0
VERTEX
8
FROND01
10
1.472816
20
146.604568
30
359.740784
70
192
0
VERTEX
8
FROND01
10
0.530450
20
146.540436
30
359.806152
70
192
0
VERTEX
8
FROND01
10
-0.366117
20
146.842316
30
359.904022
70
192
0
VERTEX
8
FROND01
10
-1.080395
20
147.464203
30
360.019470
70
192
0
VERTEX
8
FROND01
10
-1.503634
20
148.311432
30
360.134918
70
192
0
VERTEX
8
FROND01
10
-1.571419
20
149.255035
30
360.232910
70
192
0
VERTEX
8
FROND01
10
-1.273378
20
150.151352
30
360.298157
70
192
0
VERTEX
8
FROND01
10
-0.654940
20
150.863907
30
360.321136
70
192
0
VERTEX
8
FROND01
10
0.189767
20
151.284241
30
360.298157
70
192
0
VERTEX
8
FROND01
10
1.132159
20
151.348358
30
360.232910
70
192
0
VERTEX
8
FROND01
10
2.028728
20
151.046494
30
360.134918
70
192
0
VERTEX
8
FROND01
10
2.985729
20
149.848221
30
363.898987
70
192
0
VERTEX
8
FROND01
10
3.379421
20
149.059143
30
363.736725
70
192
0
VERTEX
8
FROND01
10
3.441522
20
148.179871
30
363.599213
70
192
0
VERTEX
8
FROND01
10
3.162551
20
147.344223
30
363.507263
70
192
0
VERTEX
8
FROND01
10
2.585016
20
146.679443
30
363.475006
70
192
0
VERTEX
8
FROND01
10
1.796800
20
146.286743
30
363.507263
70
192
0
VERTEX
8
FROND01
10
0.917942
20
146.225906
30
363.599213
70
192
0
VERTEX
8
FROND01
10
0.082219
20
146.506180
30
363.736725
70
192
0
VERTEX
8
FROND01
10
-0.583151
20
147.084900
30
363.898987
70
192
0
VERTEX
8
FROND01
10
-0.976851
20
147.873962
30
364.061371
70
192
0
VERTEX
8
FROND01
10
-1.038936
20
148.753265
30
364.198822
70
192
0
VERTEX
8
FROND01
10
-0.759985
20
149.588898
30
364.290710
70
192
0
VERTEX
8
FROND01
10
-0.182421
20
150.253677
30
364.323120
70
192
0
VERTEX
8
FROND01
10
0.605767
20
150.646378
30
364.290710
70
192
0
VERTEX
8
FROND01
10
1.484632
20
150.707230
30
364.198822
70
192
0
VERTEX
8
FROND01
10
2.320363
20
150.426941
30
364.061371
70
192
0
VERTEX
8
FROND01
10
3.374459
20
149.083267
30
367.733826
70
192
0
VERTEX
8
FROND01
10
3.737388
20
148.353943
30
367.532196
70
192
0
VERTEX
8
FROND01
10
3.792758
20
147.540329
30
367.361237
70
192
0
VERTEX
8
FROND01
10
3.532164
20
146.766266
30
367.247009
70
192
0
VERTEX
8
FROND01
10
2.995268
20
146.149597
30
367.206909
70
192
0
VERTEX
8
FROND01
10
2.263818
20
145.784210
30
367.247009
70
192
0
VERTEX
8
FROND01
10
1.449159
20
145.725723
30
367.361237
70
192
0
VERTEX
8
FROND01
10
0.675319
20
145.983078
30
367.532196
70
192
0
VERTEX
8
FROND01
10
0.060111
20
146.517014
30
367.733826
70
192
0
VERTEX
8
FROND01
10
-0.302792
20
147.246307
30
367.935577
70
192
0
VERTEX
8
FROND01
10
-0.358162
20
148.059937
30
368.106384
70
192
0
VERTEX
8
FROND01
10
-0.097583
20
148.834000
30
368.220612
70
192
0
VERTEX
8
FROND01
10
0.439320
20
149.450653
30
368.260712
70
192
0
VERTEX
8
FROND01
10
1.170772
20
149.816055
30
368.220612
70
192
0
VERTEX
8
FROND01
10
1.985420
20
149.874542
30
368.106384
70
192
0
VERTEX
8
FROND01
10
2.759257
20
149.617203
30
367.935577
70
192
0
VERTEX
8
FROND01
10
3.907246
20
148.132263
30
371.509216
70
192
0
VERTEX
8
FROND01
10
4.238558
20
147.463776
30
371.275665
70
192
0
VERTEX
8
FROND01
10
4.286506
20
146.716766
30
371.077698
70
192
0
VERTEX
8
FROND01
10
4.043788
20
146.004868
30
370.945404
70
192
0
VERTEX
8
FROND01
10
3.547377
20
145.436523
30
370.898956
70
192
0
VERTEX
8
FROND01
10
2.872868
20
145.098251
30
370.945404
70
192
0
VERTEX
8
FROND01
10
2.122888
20
145.041504
30
371.077698
70
192
0
VERTEX
8
FROND01
10
1.411656
20
145.274963
30
371.275665
70
192
0
VERTEX
8
FROND01
10
0.847425
20
145.763092
30
371.509216
70
192
0
VERTEX
8
FROND01
10
0.516131
20
146.431549
30
371.742737
70
192
0
VERTEX
8
FROND01
10
0.468171
20
147.178589
30
371.940704
70
192
0
VERTEX
8
FROND01
10
0.710874
20
147.890472
30
372.072998
70
192
0
VERTEX
8
FROND01
10
1.207278
20
148.458832
30
372.119446
70
192
0
VERTEX
8
FROND01
10
1.881810
20
148.797119
30
372.072998
70
192
0
VERTEX
8
FROND01
10
2.631778
20
148.853851
30
371.940704
70
192
0
VERTEX
8
FROND01
10
3.343020
20
148.620377
30
371.742737
70
192
0
VERTEX
8
FROND01
10
4.581553
20
146.998474
30
375.210785
70
192
0
VERTEX
8
FROND01
10
4.880816
20
146.391388
30
374.952881
70
192
0
VERTEX
8
FROND01
10
4.920993
20
145.711395
30
374.734222
70
192
0
VERTEX
8
FROND01
10
4.695943
20
145.061996
30
374.588135
70
192
0
VERTEX
8
FROND01
10
4.239948
20
144.542068
30
374.536804
70
192
0
VERTEX
8
FROND01
10
3.622442
20
144.230774
30
374.588135
70
192
0
VERTEX
8
FROND01
10
2.937346
20
144.175491
30
374.734222
70
192
0
VERTEX
8
FROND01
10
2.289082
20
144.384644
30
374.952881
70
192
0
VERTEX
8
FROND01
10
1.776260
20
144.826385
30
375.210785
70
192
0
VERTEX
8
FROND01
10
1.476992
20
145.433472
30
375.468842
70
192
0
VERTEX
8
FROND01
10
1.436817
20
146.113480
30
375.687500
70
192
0
VERTEX
8
FROND01
10
1.661852
20
146.762894
30
375.833466
70
192
0
VERTEX
8
FROND01
10
2.117851
20
147.282806
30
375.884888
70
192
0
VERTEX
8
FROND01
10
2.735388
20
147.594086
30
375.833466
70
192
0
VERTEX
8
FROND01
10
3.420448
20
147.649384
30
375.687500
70
192
0
VERTEX
8
FROND01
10
4.068733
20
147.440231
30
375.468842
70
192
0
VERTEX
8
FROND01
10
5.394311
20
145.685867
30
378.824432
70
192
0
VERTEX
8
FROND01
10
5.661536
20
145.140182
30
378.549561
70
192
0
VERTEX
8
FROND01
10
5.693921
20
144.527222
30
378.316681
70
192
0
VERTEX
8
FROND01
10
5.486529
20
143.940338
30
378.160858
70
192
0
VERTEX
8
FROND01
10
5.070931
20
143.468842
30
378.106201
70
192
0
VERTEX
8
FROND01
10
4.510396
20
143.184540
30
378.160858
70
192
0
VERTEX
8
FROND01
10
3.890269
20
143.130692
30
378.316681
70
192
0
VERTEX
8
FROND01
10
3.304959
20
143.315521
30
378.549561
70
192
0
VERTEX
8
FROND01
10
2.843553
20
143.710876
30
378.824432
70
192
0
VERTEX
8
FROND01
10
2.576328
20
144.256561
30
379.099396
70
192
0
VERTEX
8
FROND01
10
2.543940
20
144.869507
30
379.332306
70
192
0
VERTEX
8
FROND01
10
2.751329
20
145.456421
30
379.488129
70
192
0
VERTEX
8
FROND01
10
3.166929
20
145.927917
30
379.542664
70
192
0
VERTEX
8
FROND01
10
3.727451
20
146.212204
30
379.488129
70
192
0
VERTEX
8
FROND01
10
4.347591
20
146.266068
30
379.332306
70
192
0
VERTEX
8
FROND01
10
4.932899
20
146.081223
30
379.099396
70
192
0
VERTEX
8
FROND01
10
6.341939
20
144.199081
30
382.336365
70
192
0
VERTEX
8
FROND01
10
6.577515
20
143.714279
30
382.051849
70
192
0
VERTEX
8
FROND01
10
6.602438
20
143.167953
30
381.810699
70
192
0
VERTEX
8
FROND01
10
6.412920
20
142.643280
30
381.649567
70
192
0
VERTEX
8
FROND01
10
6.037804
20
142.220108
30
381.593109
70
192
0
VERTEX
8
FROND01
10
5.534195
20
141.962891
30
381.649567
70
192
0
VERTEX
8
FROND01
10
4.978779
20
141.910782
30
381.810699
70
192
0
VERTEX
8
FROND01
10
4.456098
20
142.071701
30
382.051849
70
192
0
VERTEX
8
FROND01
10
4.045726
20
142.421173
30
382.336365
70
192
0
VERTEX
8
FROND01
10
3.810142
20
142.905960
30
382.620758
70
192
0
VERTEX
8
FROND01
10
3.785215
20
143.452301
30
382.861908
70
192
0
VERTEX
8
FROND01
10
3.974734
20
143.976974
30
383.023163
70
192
0
VERTEX
8
FROND01
10
4.349839
20
144.400146
30
383.079620
70
192
0
VERTEX
8
FROND01
10
4.853450
20
144.657349
30
383.023163
70
192
0
VERTEX
8
FROND01
10
5.408875
20
144.709473
30
382.861908
70
192
0
VERTEX
8
FROND01
10
5.931550
20
144.548553
30
382.620758
70
192
0
VERTEX
8
FROND01
10
7.420329
20
142.543411
30
385.733032
70
192
0
VERTEX
8
FROND01
10
7.625042
20
142.118500
30
385.446289
70
192
0
VERTEX
8
FROND01
10
7.643167
20
141.637939
30
385.202972
70
192
0
VERTEX
8
FROND01
10
7.471969
20
141.174896
30
385.040497
70
192
0
VERTEX
8
FROND01
10
7.137482
20
140.799866
30
384.983551
70
192
0
VERTEX
8
FROND01
10
6.690651
20
140.569931
30
385.040497
70
192
0
VERTEX
8
FROND01
10
6.199481
20
140.520111
30
385.202972
70
192
0
VERTEX
8
FROND01
10
5.738777
20
140.658005
30
385.446289
70
192
0
VERTEX
8
FROND01
10
5.378658
20
140.962570
30
385.733032
70
192
0
VERTEX
8
FROND01
10
5.173932
20
141.387482
30
386.019867
70
192
0
VERTEX
8
FROND01
10
5.155803
20
141.868042
30
386.263184
70
192
0
VERTEX
8
FROND01
10
5.327012
20
142.331085
30
386.425568
70
192
0
VERTEX
8
FROND01
10
5.661493
20
142.706116
30
386.482605
70
192
0
VERTEX
8
FROND01
10
6.108335
20
142.936050
30
386.425568
70
192
0
VERTEX
8
FROND01
10
6.599493
20
142.985870
30
386.263184
70
192
0
VERTEX
8
FROND01
10
7.060212
20
142.848007
30
386.019867
70
192
0
VERTEX
8
FROND01
10
8.624881
20
140.724808
30
389.001587
70
192
0
VERTEX
8
FROND01
10
8.799886
20
140.358276
30
388.719452
70
192
0
VERTEX
8
FROND01
10
8.812201
20
139.942200
30
388.480011
70
192
0
VERTEX
8
FROND01
10
8.659967
20
139.539948
30
388.320129
70
192
0
VERTEX
8
FROND01
10
8.366355
20
139.212753
30
388.263977
70
192
0
VERTEX
8
FROND01
10
7.976063
20
139.010406
30
388.320129
70
192
0
VERTEX
8
FROND01
10
7.548510
20
138.963745
30
388.480011
70
192
0
VERTEX
8
FROND01
10
7.148775
20
139.079834
30
388.719452
70
192
0
VERTEX
8
FROND01
10
6.837731
20
139.341049
30
389.001587
70
192
0
VERTEX
8
FROND01
10
6.662732
20
139.707581
30
389.283875
70
192
0
VERTEX
8
FROND01
10
6.650409
20
140.123642
30
389.523163
70
192
0
VERTEX
8
FROND01
10
6.802647
20
140.525894
30
389.683075
70
192
0
VERTEX
8
FROND01
10
7.096257
20
140.853088
30
389.739258
70
192
0
VERTEX
8
FROND01
10
7.486558
20
141.055435
30
389.683075
70
192
0
VERTEX
8
FROND01
10
7.914101
20
141.102112
30
389.523163
70
192
0
VERTEX
8
FROND01
10
8.313839
20
140.985992
30
389.283875
70
192
0
VERTEX
8
FROND01
10
9.950528
20
138.749802
30
392.129578
70
192
0
VERTEX
8
FROND01
10
10.097354
20
138.439667
30
391.858643
70
192
0
VERTEX
8
FROND01
10
10.105158
20
138.086426
30
391.629028
70
192
0
VERTEX
8
FROND01
10
9.972769
20
137.743835
30
391.475433
70
192
0
VERTEX
8
FROND01
10
9.720316
20
137.464066
30
391.421539
70
192
0
VERTEX
8
FROND01
10
9.386282
20
137.289734
30
391.475433
70
192
0
VERTEX
8
FROND01
10
9.021420
20
137.247330
30
391.629028
70
192
0
VERTEX
8
FROND01
10
8.681406
20
137.343323
30
391.858643
70
192
0
VERTEX
8
FROND01
10
8.417921
20
137.563126
30
392.129578
70
192
0
VERTEX
8
FROND01
10
8.271086
20
137.873260
30
392.400543
70
192
0
VERTEX
8
FROND01
10
8.263280
20
138.226501
30
392.630249
70
192
0
VERTEX
8
FROND01
10
8.395680
20
138.569092
30
392.783752
70
192
0
VERTEX
8
FROND01
10
8.648110
20
138.848846
30
392.837677
70
192
0
VERTEX
8
FROND01
10
8.982174
20
139.023209
30
392.783752
70
192
0
VERTEX
8
FROND01
10
9.346994
20
139.065613
30
392.630249
70
192
0
VERTEX
8
FROND01
10
9.687042
20
138.969620
30
392.400543
70
192
0
VERTEX
8
FROND01
10
11.391675
20
136.625610
30
395.104950
70
192
0
VERTEX
8
FROND01
10
11.512221
20
136.369446
30
394.851746
70
192
0
VERTEX
8
FROND01
10
11.517108
20
136.076965
30
394.637207
70
192
0
VERTEX
8
FROND01
10
11.405620
20
135.792664
30
394.493622
70
192
0
VERTEX
8
FROND01
10
11.194732
20
135.559845
30
394.443390
70
192
0
VERTEX
8
FROND01
10
10.916521
20
135.413971
30
394.493622
70
192
0
VERTEX
8
FROND01
10
10.613374
20
135.377213
30
394.637207
70
192
0
VERTEX
8
FROND01
10
10.331427
20
135.455215
30
394.851746
70
192
0
VERTEX
8
FROND01
10
10.113591
20
135.636017
30
395.104950
70
192
0
VERTEX
8
FROND01
10
9.993061
20
135.892181
30
395.358215
70
192
0
VERTEX
8
FROND01
10
9.988160
20
136.184692
30
395.572845
70
192
0
VERTEX
8
FROND01
10
10.099645
20
136.468994
30
395.716400
70
192
0
VERTEX
8
FROND01
10
10.310545
20
136.701782
30
395.766663
70
192
0
VERTEX
8
FROND01
10
10.588744
20
136.847687
30
395.716400
70
192
0
VERTEX
8
FROND01
10
10.891884
20
136.884430
30
395.572845
70
192
0
VERTEX
8
FROND01
10
11.173849
20
136.806458
30
395.358215
70
192
0
VERTEX
8
FROND01
10
10.752644
20
136.130829
30
395.104950
70
192
0
VERTEX
8
FROND01
10
0.534464
20
149.327774
30
352.185577
70
192
0
VERTEX
8
FROND01
10
11.892355
20
149.796387
30
398.382690
70
192
0
VERTEX
8
FROND01
10
10.939063
20
146.277618
30
399.632233
70
192
0
VERTEX
8
FROND01
10
12.595337
20
141.728912
30
398.463623
70
192
0
VERTEX
8
FROND01
10
10.675468
20
145.255798
30
399.782623
70
192
0
VERTEX
8
FROND01
10
10.209533
20
141.853088
30
399.449524
70
192
0
VERTEX
8
FROND01
10
10.202515
20
136.409546
30
395.374390
70
192
0
VERTEX
8
FROND01
10
15.054584
20
140.790817
30
397.096069
70
192
0
VERTEX
8
FROND01
10
16.862617
20
146.761871
30
397.137939
70
192
0
VERTEX
8
FROND01
10
13.809435
20
144.573395
30
398.513611
70
192
0
VERTEX
8
FROND01
10
16.895025
20
148.057236
30
396.827942
70
192
0
VERTEX
8
FROND01
10
15.132953
20
154.541855
30
393.083832
70
192
0
VERTEX
8
FROND01
10
12.646368
20
151.755051
30
397.026184
70
192
0
VERTEX
8
FROND01
10
13.680207
20
146.481064
30
398.498932
70
192
0
VERTEX
8
FROND01
10
12.365836
20
151.234482
30
397.472046
70
192
0
VERTEX
8
FROND01
10
11.816784
20
143.900604
30
399.253754
70
192
0
VERTEX
8
FROND01
10
11.442717
20
148.058075
30
399.134644
70
192
0
VERTEX
8
FROND01
10
12.270277
20
145.526886
30
399.141846
70
192
0
VERTEX
8
FROND01
10
10.471215
20
143.508911
30
399.732056
70
192
0
VERTEX
8
FROND01
10
11.665753
20
143.416290
30
399.246643
70
192
0
VERTEX
8
FROND01
10
11.670304
20
142.317093
30
399.009247
70
192
0
VERTEX
8
FROND01
10
12.714514
20
138.368912
30
396.497467
70
192
0
VERTEX
8
FROND01
10
10.323948
20
138.713837
30
397.781250
70
192
0
VERTEX
8
FROND01
10
12.397488
20
140.209686
30
397.892212
70
192
0
VERTEX
8
FROND01
10
15.350794
20
145.685364
30
397.884308
70
192
0
VERTEX
8
FROND01
10
16.060360
20
143.670502
30
397.521210
70
192
0
VERTEX
8
FROND01
10
14.866901
20
142.805145
30
397.851105
70
192
0
VERTEX
8
FROND01
10
16.111017
20
151.574966
30
395.479156
70
192
0
VERTEX
8
FROND01
10
15.385889
20
146.348755
30
397.812256
70
192
0
VERTEX
8
FROND01
10
15.096127
20
149.798218
30
396.969696
70
192
0
VERTEX
8
FROND01
10
13.220776
20
149.159576
30
398.052704
70
192
0
VERTEX
8
FROND01
10
13.914812
20
153.322418
30
395.171173
70
192
0
VERTEX
8
FROND01
10
14.201138
20
151.058365
30
396.724579
70
192
0
VERTEX
8
FROND01
10
12.133690
20
150.527374
30
397.950256
70
192
0
VERTEX
8
FROND01
10
13.068940
20
148.874863
30
398.216431
70
192
0
VERTEX
8
FROND01
10
12.830083
20
148.031525
30
398.563141
70
192
0
VERTEX
8
FROND01
10
13.557108
20
141.231186
30
397.894958
70
192
0
VERTEX
8
FROND01
10
13.766387
20
145.817841
30
398.523804
70
192
0
VERTEX
8
FROND01
10
12.986737
20
143.729538
30
398.767273
70
192
0
VERTEX
8
FROND01
10
13.317042
20
141.951019
30
398.246765
70
192
0
VERTEX
8
FROND01
10
11.846647
20
147.001755
30
399.177704
70
192
0
VERTEX
8
FROND01
10
12.054890
20
144.328064
30
399.200134
70
192
0
VERTEX
8
FROND01
10
11.561289
20
145.975739
30
399.405334
70
192
0
VERTEX
8
FROND01
10
11.668742
20
142.787888
30
399.125519
70
192
0
VERTEX
8
FROND01
10
10.842187
20
142.989807
30
399.494263
70
192
0
VERTEX
8
FROND01
10
11.053762
20
143.750854
30
399.536987
70
192
0
VERTEX
8
FROND01
10
11.272421
20
139.601166
30
398.001678
70
192
0
VERTEX
8
FROND01
10
12.829144
20
139.256653
30
397.137878
70
192
0
VERTEX
8
FROND01
10
11.326606
20
138.123795
30
396.870697
70
192
0
VERTEX
8
FROND01
10
15.502133
20
143.017227
30
397.639038
70
192
0
VERTEX
8
FROND01
10
15.089608
20
144.501160
30
397.992554
70
192
0
VERTEX
8
FROND01
10
15.912076
20
144.952347
30
397.672028
70
192
0
VERTEX
8
FROND01
10
15.181613
20
147.901825
30
397.604767
70
192
0
VERTEX
8
FROND01
10
15.687781
20
151.291107
30
395.877380
70
192
0
VERTEX
8
FROND01
10
15.996559
20
148.900879
30
396.939789
70
192
0
VERTEX
8
FROND01
10
14.150819
20
152.637146
30
395.649780
70
192
0
VERTEX
8
FROND01
10
13.684972
20
149.892227
30
397.555847
70
192
0
VERTEX
8
FROND01
10
13.441700
20
151.425323
30
396.859131
70
192
0
VERTEX
8
FROND01
10
13.024033
20
148.478485
30
398.359650
70
192
0
VERTEX
8
FROND01
10
12.402772
20
149.658569
30
398.216644
70
192
0
VERTEX
8
FROND01
10
12.581542
20
149.885056
30
398.045044
70
192
0
VERTEX
8
FROND01
10
12.601077
20
141.502930
30
398.382599
70
192
0
VERTEX
8
FROND01
10
13.165525
20
140.821259
30
397.879791
70
192
0
VERTEX
8
FROND01
10
11.981292
20
141.335220
30
398.568085
70
192
0
VERTEX
8
FROND01
10
14.345595
20
147.915497
30
397.955353
70
192
0
VERTEX
8
FROND01
10
14.155313
20
148.464081
30
397.883087
70
192
0
VERTEX
8
FROND01
10
14.681449
20
150.798477
30
396.650909
70
192
0
VERTEX
8
FROND01
10
12.963396
20
145.730667
30
398.854309
70
192
0
VERTEX
8
FROND01
10
12.647306
20
144.445053
30
398.972290
70
192
0
VERTEX
8
FROND01
10
12.554630
20
146.801956
30
398.917908
70
192
0
VERTEX
8
FROND01
10
13.518494
20
141.461609
30
397.998901
70
192
0
VERTEX
8
FROND01
10
13.958212
20
142.238358
30
398.074493
70
192
0
VERTEX
8
FROND01
10
14.329381
20
141.724182
30
397.764984
70
192
0
VERTEX
8
FROND01
10
13.385035
20
143.583923
30
398.588257
70
192
0
VERTEX
8
FROND01
10
13.119532
20
142.661957
30
398.520020
70
192
0
VERTEX
8
FROND01
10
13.398028
20
144.229950
30
398.656067
70
192
0
VERTEX
8
FROND01
10
12.218308
20
142.784637
30
398.906952
70
192
0
VERTEX
8
FROND01
10
12.405837
20
143.316956
30
398.936768
70
192
0
VERTEX
8
FROND01
10
10.347513
20
142.667480
30
399.618683
70
192
0
VERTEX
8
FROND01
10
10.935973
20
142.229172
30
399.275299
70
192
0
VERTEX
8
FROND01
10
13.907507
20
139.528717
30
396.871368
70
192
0
VERTEX
8
FROND01
10
13.765413
20
140.161774
30
397.307953
70
192
0
VERTEX
8
FROND01
10
14.583854
20
145.132584
30
398.213776
70
192
0
VERTEX
8
FROND01
10
14.357008
20
143.673889
30
398.210724
70
192
0
VERTEX
8
FROND01
10
15.642658
20
153.153946
30
394.399170
70
192
0
VERTEX
8
FROND01
10
15.276913
20
152.621506
30
395.083923
70
192
0
VERTEX
8
FROND01
10
13.465684
20
147.820618
30
398.348785
70
192
0
VERTEX
8
FROND01
10
13.860217
20
148.584244
30
397.971985
70
192
0
VERTEX
8
FROND01
10
12.014200
20
150.164627
30
398.172302
70
192
0
VERTEX
8
FROND01
10
12.329978
20
149.024704
30
398.481812
70
192
0
VERTEX
8
FROND01
10
14.346538
20
141.011200
30
397.483795
70
192
0
VERTEX
8
FROND01
10
13.727775
20
146.209671
30
398.508850
70
192
0
VERTEX
8
FROND01
10
12.736586
20
142.474258
30
398.626801
70
192
0
VERTEX
8
FROND01
10
13.573096
20
143.042084
30
398.420807
70
192
0
VERTEX
8
FROND01
10
12.972353
20
141.457687
30
398.217133
70
192
0
VERTEX
8
FROND01
10
11.390354
20
145.068237
30
399.497406
70
192
0
VERTEX
8
FROND01
10
11.197874
20
147.169952
30
399.415314
70
192
0
VERTEX
8
FROND01
10
10.580515
20
144.373260
30
399.787476
70
192
0
VERTEX
8
FROND01
10
11.178251
20
144.318985
30
399.547302
70
192
0
VERTEX
8
FROND01
10
11.478386
20
137.326172
30
395.992340
70
192
0
VERTEX
8
FROND01
10
10.290032
20
137.452835
30
396.653076
70
192
0
VERTEX
8
FROND01
10
16.110323
20
146.229248
30
397.525696
70
192
0
VERTEX
8
FROND01
10
16.486622
20
145.206436
30
397.435547
70
192
0
VERTEX
8
FROND01
10
16.530617
20
149.857162
30
396.294708
70
192
0
VERTEX
8
FROND01
10
16.148582
20
147.215591
30
397.354828
70
192
0
VERTEX
8
FROND01
10
12.947046
20
150.477951
30
397.610718
70
192
0
VERTEX
8
FROND01
10
13.287575
20
152.578308
30
396.131958
70
192
0
VERTEX
8
FROND01
10
12.250880
20
150.884171
30
397.716827
70
192
0
VERTEX
8
FROND01
10
12.728308
20
150.065979
30
397.901825
70
192
0
VERTEX
8
FROND01
10
10.990026
20
140.926208
30
398.798523
70
192
0
VERTEX
8
FROND01
10
14.714602
20
153.422897
30
394.640808
70
192
0
VERTEX
8
FROND01
10
12.052922
20
148.200546
30
398.844971
70
192
0
VERTEX
8
FROND01
10
15.172129
20
141.729370
30
397.425140
70
192
0
VERTEX
8
FROND01
10
13.347642
20
145.112213
30
398.713928
70
192
0
VERTEX
8
FROND01
10
11.674048
20
148.935715
30
398.789978
70
192
0
VERTEX
8
FROND01
10
12.138021
20
142.551697
30
398.884277
70
192
0
VERTEX
8
FROND01
10
12.295007
20
142.102188
30
398.700684
70
192
0
VERTEX
8
FROND01
10
10.298650
20
140.186203
30
398.724884
70
192
0
VERTEX
8
FROND01
10
15.582924
20
142.188644
30
397.403564
70
192
0
VERTEX
8
FROND01
10
14.606358
20
145.465302
30
398.198608
70
192
0
VERTEX
8
FROND01
10
14.449065
20
146.568375
30
398.171753
70
192
0
VERTEX
8
FROND01
10
14.529455
20
153.979202
30
394.152100
70
192
0
VERTEX
8
FROND01
10
13.386559
20
147.675262
30
398.415314
70
192
0
VERTEX
8
FROND01
10
13.337364
20
146.952484
30
398.574097
70
192
0
VERTEX
8
FROND01
10
12.948171
20
141.389252
30
398.201385
70
192
0
VERTEX
8
FROND01
10
13.766890
20
145.158203
30
398.544708
70
192
0
VERTEX
8
FROND01
10
20.685213
20
143.812393
30
388.614990
70
192
0
VERTEX
8
FROND01
10
19.322317
20
142.883331
30
391.760559
70
192
0
VERTEX
8
FROND01
10
16.930286
20
138.633911
30
393.425507
70
192
0
VERTEX
8
FROND01
10
18.777712
20
142.547913
30
392.565887
70
192
0
VERTEX
8
FROND01
10
16.503366
20
140.873810
30
394.679169
70
192
0
VERTEX
8
FROND01
10
9.969739
20
136.738770
30
395.669189
70
192
0
VERTEX
8
FROND01
10
16.584476
20
135.747925
30
392.441010
70
192
0
VERTEX
8
FROND01
10
21.044020
20
137.938141
30
388.007782
70
192
0
VERTEX
8
FROND01
10
19.193279
20
139.362823
30
391.232147
70
192
0
VERTEX
8
FROND01
10
21.536472
20
138.611786
30
386.999451
70
192
0
VERTEX
8
FROND01
10
21.348751
20
142.828995
30
381.719330
70
192
0
VERTEX
8
FROND01
10
21.129894
20
144.004242
30
386.452209
70
192
0
VERTEX
8
FROND01
10
20.118881
20
140.576477
30
390.063965
70
192
0
VERTEX
8
FROND01
10
21.020796
20
144.032623
30
387.101837
70
192
0
VERTEX
8
FROND01
10
18.308189
20
140.731720
30
392.741760
70
192
0
VERTEX
8
FROND01
10
20.118767
20
143.370880
30
390.225983
70
192
0
VERTEX
8
FROND01
10
19.319199
20
141.287430
30
391.502563
70
192
0
VERTEX
8
FROND01
10
17.736462
20
141.695755
30
393.701477
70
192
0
VERTEX
8
FROND01
10
17.964481
20
140.567963
30
393.094971
70
192
0
VERTEX
8
FROND01
10
17.191441
20
139.861145
30
393.660248
70
192
0
VERTEX
8
FROND01
10
13.389931
20
136.051498
30
394.376740
70
192
0
VERTEX
8
FROND01
10
13.453794
20
138.524658
30
395.678711
70
192
0
VERTEX
8
FROND01
10
15.494066
20
137.746643
30
394.134338
70
192
0
VERTEX
8
FROND01
10
20.170130
20
138.654053
30
389.643951
70
192
0
VERTEX
8
FROND01
10
19.160608
20
136.797501
30
390.490906
70
192
0
VERTEX
8
FROND01
10
18.275675
20
137.305267
30
391.637421
70
192
0
VERTEX
8
FROND01
10
21.983246
20
140.950531
30
384.373352
70
192
0
VERTEX
8
FROND01
10
20.493282
20
139.002029
30
389.169678
70
192
0
VERTEX
8
FROND01
10
21.523626
20
141.035446
30
386.660614
70
192
0
VERTEX
8
FROND01
10
20.896894
20
142.358841
30
388.333099
70
192
0
VERTEX
8
FROND01
10
21.387852
20
143.501251
30
384.050690
70
192
0
VERTEX
8
FROND01
10
21.475527
20
142.373734
30
386.104523
70
192
0
VERTEX
8
FROND01
10
20.875288
20
143.930511
30
387.860748
70
192
0
VERTEX
8
FROND01
10
20.785337
20
142.353516
30
388.650085
70
192
0
VERTEX
8
FROND01
10
20.477808
20
142.142883
30
389.438934
70
192
0
VERTEX
8
FROND01
10
16.702278
20
137.420349
30
393.106720
70
192
0
VERTEX
8
FROND01
10
19.839113
20
140.129242
30
390.464355
70
192
0
VERTEX
8
FROND01
10
18.482059
20
139.580505
30
392.188324
70
192
0
VERTEX
8
FROND01
10
17.268915
20
138.132034
30
392.923798
70
192
0
VERTEX
8
FROND01
10
19.856089
20
142.471771
30
390.752563
70
192
0
VERTEX
8
FROND01
10
18.622177
20
140.777954
30
392.361847
70
192
0
VERTEX
8
FROND01
10
19.350182
20
142.167328
30
391.609924
70
192
0
VERTEX
8
FROND01
10
17.536345
20
140.167816
30
393.425903
70
192
0
VERTEX
8
FROND01
10
17.483345
20
141.039200
30
393.775482
70
192
0
VERTEX
8
FROND01
10
18.030121
20
141.322525
30
393.247620
70
192
0
VERTEX
8
FROND01
10
14.642695
20
138.327087
30
394.945526
70
192
0
VERTEX
8
FROND01
10
14.529687
20
136.640747
30
394.162354
70
192
0
VERTEX
8
FROND01
10
12.851431
20
137.135956
30
395.192139
70
192
0
VERTEX
8
FROND01
10
18.574108
20
136.874451
30
391.167999
70
192
0
VERTEX
8
FROND01
10
19.459913
20
138.180786
30
390.551331
70
192
0
VERTEX
8
FROND01
10
19.918386
20
137.724564
30
389.799896
70
192
0
VERTEX
8
FROND01
10
21.047430
20
140.022156
30
388.150055
70
192
0
VERTEX
8
FROND01
10
21.866392
20
141.194183
30
384.929077
70
192
0
VERTEX
8
FROND01
10
21.552914
20
139.822510
30
386.862396
70
192
0
VERTEX
8
FROND01
10
21.502577
20
143.052124
30
384.611084
70
192
0
VERTEX
8
FROND01
10
21.176035
20
142.300507
30
387.449738
70
192
0
VERTEX
8
FROND01
10
21.312788
20
143.183289
30
386.250702
70
192
0
VERTEX
8
FROND01
10
20.664576
20
142.197845
30
388.985443
70
192
0
VERTEX
8
FROND01
10
20.792763
20
143.305237
30
388.420776
70
192
0
VERTEX
8
FROND01
10
20.885138
20
143.254242
30
388.127106
70
192
0
VERTEX
8
FROND01
10
16.741203
20
138.474640
30
393.522308
70
192
0
VERTEX
8
FROND01
10
16.244333
20
137.486923
30
393.488129
70
192
0
VERTEX
8
FROND01
10
16.465265
20
138.920975
30
393.936707
70
192
0
VERTEX
8
FROND01
10
20.835976
20
140.758881
30
388.635468
70
192
0
VERTEX
8
FROND01
10
20.956766
20
141.204163
30
388.325500
70
192
0
VERTEX
8
FROND01
10
21.570501
20
141.847153
30
386.036591
70
192
0
VERTEX
8
FROND01
10
19.594213
20
140.789581
30
390.978760
70
192
0
VERTEX
8
FROND01
10
18.835434
20
140.320160
30
391.962158
70
192
0
VERTEX
8
FROND01
10
19.962202
20
141.742050
30
390.487091
70
192
0
VERTEX
8
FROND01
10
16.898735
20
137.615555
30
393.030884
70
192
0
VERTEX
8
FROND01
10
17.639248
20
137.746750
30
392.430542
70
192
0
VERTEX
8
FROND01
10
17.295208
20
137.062912
30
392.462738
70
192
0
VERTEX
8
FROND01
10
18.481853
20
139.133408
30
392.047760
70
192
0
VERTEX
8
FROND01
10
17.777411
20
138.781799
30
392.687469
70
192
0
VERTEX
8
FROND01
10
18.891241
20
139.521179
30
391.669495
70
192
0
VERTEX
8
FROND01
10
17.661121
20
139.671661
30
393.124329
70
192
0
VERTEX
8
FROND01
10
18.074141
20
139.842468
30
392.739502
70
192
0
VERTEX
8
FROND01
10
17.142368
20
141.279175
30
394.211517
70
192
0
VERTEX
8
FROND01
10
16.958015
20
140.465622
30
394.105713
70
192
0
VERTEX
8
FROND01
10
15.030455
20
135.859558
30
393.487762
70
192
0
VERTEX
8
FROND01
10
15.702385
20
136.463409
30
393.385498
70
192
0
VERTEX
8
FROND01
10
19.694256
20
139.008789
30
390.444611
70
192
0
VERTEX
8
FROND01
10
18.768911
20
138.320892
30
391.452393
70
192
0
VERTEX
8
FROND01
10
21.793570
20
141.959534
30
383.027618
70
192
0
VERTEX
8
FROND01
10
21.767311
20
142.079803
30
383.863342
70
192
0
VERTEX
8
FROND01
10
20.575472
20
141.479034
30
389.224823
70
192
0
VERTEX
8
FROND01
10
20.914137
20
141.521271
30
388.407318
70
192
0
VERTEX
8
FROND01
10
20.785887
20
143.873352
30
388.238770
70
192
0
VERTEX
8
FROND01
10
20.628273
20
143.069748
30
388.971100
70
192
0
VERTEX
8
FROND01
10
16.658684
20
136.549026
30
392.754456
70
192
0
VERTEX
8
FROND01
10
20.011496
20
140.384048
30
390.222931
70
192
0
VERTEX
8
FROND01
10
17.550900
20
139.003571
30
392.994202
70
192
0
VERTEX
8
FROND01
10
18.155836
20
138.620697
30
392.237701
70
192
0
VERTEX
8
FROND01
10
16.780863
20
138.107391
30
393.336151
70
192
0
VERTEX
8
FROND01
10
18.863997
20
141.805237
30
392.284485
70
192
0
VERTEX
8
FROND01
10
19.748878
20
143.131134
30
391.004944
70
192
0
VERTEX
8
FROND01
10
18.282532
20
142.119873
30
393.151947
70
192
0
VERTEX
8
FROND01
10
18.400455
20
141.554382
30
392.853516
70
192
0
VERTEX
8
FROND01
10
11.692620
20
136.340118
30
395.103821
70
192
0
VERTEX
8
FROND01
10
11.739760
20
137.547668
30
395.801605
70
192
0
VERTEX
8
FROND01
10
20.620241
20
138.297546
30
388.831085
70
192
0
VERTEX
8
FROND01
10
20.197958
20
137.368759
30
389.305054
70
192
0
VERTEX
8
FROND01
10
21.900452
20
139.825104
30
385.712158
70
192
0
VERTEX
8
FROND01
10
21.047873
20
138.812744
30
388.095337
70
192
0
VERTEX
8
FROND01
10
21.081524
20
143.204193
30
387.403809
70
192
0
VERTEX
8
FROND01
10
21.297604
20
143.772446
30
385.246094
70
192
0
VERTEX
8
FROND01
10
20.953609
20
143.983704
30
387.481689
70
192
0
VERTEX
8
FROND01
10
20.957169
20
143.209290
30
387.887543
70
192
0
VERTEX
8
FROND01
10
15.895248
20
139.537430
30
394.649750
70
192
0
VERTEX
8
FROND01
10
21.551352
20
142.848297
30
383.381500
70
192
0
VERTEX
8
FROND01
10
20.325233
20
142.907928
30
389.765961
70
192
0
VERTEX
8
FROND01
10
17.475164
20
136.304810
30
391.987518
70
192
0
VERTEX
8
FROND01
10
19.377937
20
140.092850
30
391.158905
70
192
0
VERTEX
8
FROND01
10
20.431063
20
143.599075
30
389.427917
70
192
0
VERTEX
8
FROND01
10
17.473104
20
139.593079
30
393.286652
70
192
0
VERTEX
8
FROND01
10
17.165932
20
139.155869
30
393.418976
70
192
0
VERTEX
8
FROND01
10
15.058220
20
139.643890
30
395.301086
70
192
0
VERTEX
8
FROND01
10
17.948746
20
136.249115
30
391.542786
70
192
0
VERTEX
8
FROND01
10
19.874384
20
139.183945
30
390.216797
70
192
0
VERTEX
8
FROND01
10
20.352514
20
139.948135
30
389.559357
70
192
0
VERTEX
8
FROND01
10
21.403708
20
143.187607
30
382.872864
70
192
0
VERTEX
8
FROND01
10
20.505417
20
141.473129
30
389.379150
70
192
0
VERTEX
8
FROND01
10
20.225231
20
141.134552
30
389.931213
70
192
0
VERTEX
8
FROND01
10
16.716293
20
138.082123
30
393.378937
70
192
0
VERTEX
8
FROND01
10
19.506351
20
139.747955
30
390.892731
70
192
0
VERTEX
8
FROND01
10
18.555471
20
131.663132
30
386.704529
70
192
0
VERTEX
8
FROND01
10
17.825241
20
132.719452
30
390.029510
70
192
0
VERTEX
8
FROND01
10
14.004510
20
132.588623
30
392.747009
70
192
0
VERTEX
8
FROND01
10
17.509832
20
133.118225
30
390.849823
70
192
0
VERTEX
8
FROND01
10
15.799790
20
134.404938
30
393.138611
70
192
0
VERTEX
8
FROND01
10
10.177134
20
137.064682
30
395.779510
70
192
0
VERTEX
8
FROND01
10
11.500764
20
131.004761
30
392.905701
70
192
0
VERTEX
8
FROND01
10
13.808640
20
128.292999
30
387.589203
70
192
0
VERTEX
8
FROND01
10
14.923458
20
130.885635
30
390.464478
70
192
0
VERTEX
8
FROND01
10
14.311440
20
128.209991
30
386.279999
70
192
0
VERTEX
8
FROND01
10
17.027685
20
130.885254
30
378.727539
70
192
0
VERTEX
8
FROND01
10
18.574551
20
131.252121
30
384.301727
70
192
0
VERTEX
8
FROND01
10
15.970301
20
130.648407
30
388.972198
70
192
0
VERTEX
8
FROND01
10
18.646688
20
131.381119
30
385.024384
70
192
0
VERTEX
8
FROND01
10
15.962904
20
132.561584
30
391.484558
70
192
0
VERTEX
8
FROND01
10
18.240875
20
132.094467
30
388.443115
70
192
0
VERTEX
8
FROND01
10
16.517570
20
131.857361
30
390.184937
70
192
0
VERTEX
8
FROND01
10
16.685997
20
133.700165
30
392.073792
70
192
0
VERTEX
8
FROND01
10
15.783099
20
132.803864
30
391.849548
70
192
0
VERTEX
8
FROND01
10
15.077227
20
133.118774
30
392.562012
70
192
0
VERTEX
8
FROND01
10
10.906307
20
133.898102
30
394.691864
70
192
0
VERTEX
8
FROND01
10
13.063982
20
135.585266
30
394.788635
70
192
0
VERTEX
8
FROND01
10
12.952254
20
133.298096
30
393.709656
70
192
0
VERTEX
8
FROND01
10
14.397696
20
129.526505
30
389.094971
70
192
0
VERTEX
8
FROND01
10
12.793592
20
129.374786
30
390.560883
70
192
0
VERTEX
8
FROND01
10
13.110223
20
130.505905
30
391.522034
70
192
0
VERTEX
8
FROND01
10
15.932009
20
129.077988
30
382.593536
70
192
0
VERTEX
8
FROND01
10
14.687686
20
129.410217
30
388.502197
70
192
0
VERTEX
8
FROND01
10
16.222883
20
129.478745
30
385.240021
70
192
0
VERTEX
8
FROND01
10
17.377922
20
130.753937
30
386.739594
70
192
0
VERTEX
8
FROND01
10
17.921780
20
130.850189
30
381.569000
70
192
0
VERTEX
8
FROND01
10
17.243437
20
130.174454
30
384.279297
70
192
0
VERTEX
8
FROND01
10
18.613005
20
131.499786
30
385.876495
70
192
0
VERTEX
8
FROND01
10
17.386295
20
130.870056
30
387.074982
70
192
0
VERTEX
8
FROND01
10
17.238537
20
131.094559
30
387.940948
70
192
0
VERTEX
8
FROND01
10
12.940248
20
132.010254
30
392.883392
70
192
0
VERTEX
8
FROND01
10
15.596066
20
130.684631
30
389.492981
70
192
0
VERTEX
8
FROND01
10
15.030455
20
131.707336
30
391.308685
70
192
0
VERTEX
8
FROND01
10
13.644291
20
131.956268
30
392.457825
70
192
0
VERTEX
8
FROND01
10
17.510447
20
131.929077
30
389.168457
70
192
0
VERTEX
8
FROND01
10
16.036886
20
132.275406
30
391.124573
70
192
0
VERTEX
8
FROND01
10
17.240938
20
132.306992
30
390.061890
70
192
0
VERTEX
8
FROND01
10
15.388505
20
132.978104
30
392.261444
70
192
0
VERTEX
8
FROND01
10
16.104633
20
133.559265
30
392.317505
70
192
0
VERTEX
8
FROND01
10
16.416775
20
133.186340
30
391.775787
70
192
0
VERTEX
8
FROND01
10
13.232156
20
134.432510
30
394.216187
70
192
0
VERTEX
8
FROND01
10
11.758763
20
133.371521
30
394.194153
70
192
0
VERTEX
8
FROND01
10
11.671158
20
135.107941
30
394.961029
70
192
0
VERTEX
8
FROND01
10
12.790170
20
129.961395
30
391.212891
70
192
0
VERTEX
8
FROND01
10
13.968397
20
129.931732
30
390.159332
70
192
0
VERTEX
8
FROND01
10
13.621819
20
129.227417
30
389.545258
70
192
0
VERTEX
8
FROND01
10
15.495078
20
129.421967
30
387.139557
70
192
0
VERTEX
8
FROND01
10
16.189583
20
129.274414
30
383.198029
70
192
0
VERTEX
8
FROND01
10
15.270352
20
128.835388
30
385.785889
70
192
0
VERTEX
8
FROND01
10
17.631216
20
130.504898
30
382.360657
70
192
0
VERTEX
8
FROND01
10
17.285160
20
130.433899
30
385.802338
70
192
0
VERTEX
8
FROND01
10
17.901634
20
130.704895
30
384.256683
70
192
0
VERTEX
8
FROND01
10
17.272133
20
130.922668
30
387.461823
70
192
0
VERTEX
8
FROND01
10
18.140383
20
131.312042
30
386.612946
70
192
0
VERTEX
8
FROND01
10
18.085678
20
131.186890
30
386.312592
70
192
0
VERTEX
8
FROND01
10
13.835306
20
132.659973
30
392.889130
70
192
0
VERTEX
8
FROND01
10
12.902020
20
132.462692
30
393.213959
70
192
0
VERTEX
8
FROND01
10
14.156476
20
133.200394
30
393.109436
70
192
0
VERTEX
8
FROND01
10
16.103718
20
130.016739
30
387.457977
70
192
0
VERTEX
8
FROND01
10
16.451395
20
130.122009
30
387.015686
70
192
0
VERTEX
8
FROND01
10
16.818207
20
129.835083
30
384.328857
70
192
0
VERTEX
8
FROND01
10
16.125809
20
131.299530
30
389.815430
70
192
0
VERTEX
8
FROND01
10
15.680822
20
131.796661
30
390.881378
70
192
0
VERTEX
8
FROND01
10
16.918167
20
131.434570
30
389.088623
70
192
0
VERTEX
8
FROND01
10
13.142878
20
131.960846
30
392.740570
70
192
0
VERTEX
8
FROND01
10
13.383704
20
131.370468
30
392.129211
70
192
0
VERTEX
8
FROND01
10
12.750951
20
131.244507
30
392.406311
70
192
0
VERTEX
8
FROND01
10
14.659556
20
131.438660
30
391.312836
70
192
0
VERTEX
8
FROND01
10
14.270639
20
131.892975
30
392.021729
70
192
0
VERTEX
8
FROND01
10
15.026198
20
131.273651
30
390.837036
70
192
0
VERTEX
8
FROND01
10
14.994653
20
132.553894
30
392.141022
70
192
0
VERTEX
8
FROND01
10
15.195970
20
132.260513
30
391.739624
70
192
0
VERTEX
8
FROND01
10
16.250048
20
134.038391
30
392.626373
70
192
0
VERTEX
8
FROND01
10
15.541457
20
133.716827
30
392.769470
70
192
0
VERTEX
8
FROND01
10
11.224544
20
132.408539
30
393.890808
70
192
0
VERTEX
8
FROND01
10
11.910556
20
132.250824
30
393.525208
70
192
0
VERTEX
8
FROND01
10
14.667983
20
130.191269
30
389.797211
70
192
0
VERTEX
8
FROND01
10
14.018423
20
130.672607
30
391.000641
70
192
0
VERTEX
8
FROND01
10
16.549335
20
129.860260
30
380.664276
70
192
0
VERTEX
8
FROND01
10
16.763262
20
129.857178
30
381.682617
70
192
0
VERTEX
8
FROND01
10
16.698608
20
130.654999
30
387.885742
70
192
0
VERTEX
8
FROND01
10
16.709089
20
130.324997
30
387.022461
70
192
0
VERTEX
8
FROND01
10
18.587158
20
131.575958
30
386.293793
70
192
0
VERTEX
8
FROND01
10
17.972679
20
131.383835
30
387.242035
70
192
0
VERTEX
8
FROND01
10
12.195340
20
131.474625
30
392.883636
70
192
0
VERTEX
8
FROND01
10
15.810719
20
130.652161
30
389.182983
70
192
0
VERTEX
8
FROND01
10
14.420485
20
132.244385
30
392.232391
70
192
0
VERTEX
8
FROND01
10
14.191102
20
131.436356
30
391.653870
70
192
0
VERTEX
8
FROND01
10
13.534209
20
132.386658
30
392.847168
70
192
0
VERTEX
8
FROND01
10
16.907148
20
132.615509
30
390.779846
70
192
0
VERTEX
8
FROND01
10
18.044863
20
132.384125
30
389.256500
70
192
0
VERTEX
8
FROND01
10
17.106356
20
133.392639
30
391.481415
70
192
0
VERTEX
8
FROND01
10
16.653368
20
132.947906
30
391.361969
70
192
0
VERTEX
8
FROND01
10
10.554729
20
135.455444
30
395.317352
70
192
0
VERTEX
8
FROND01
10
11.635162
20
136.296295
30
395.363129
70
192
0
VERTEX
8
FROND01
10
14.111562
20
128.893158
30
388.358826
70
192
0
VERTEX
8
FROND01
10
13.341149
20
128.755814
30
389.148438
70
192
0
VERTEX
8
FROND01
10
15.182968
20
128.531784
30
384.476898
70
192
0
VERTEX
8
FROND01
10
14.518619
20
128.773102
30
387.421844
70
192
0
VERTEX
8
FROND01
10
18.004448
20
130.951202
30
385.541840
70
192
0
VERTEX
8
FROND01
10
18.277010
20
130.998138
30
382.954102
70
192
0
VERTEX
8
FROND01
10
18.632895
20
131.434753
30
385.453278
70
192
0
VERTEX
8
FROND01
10
18.037123
20
131.087631
30
386.065918
70
192
0
VERTEX
8
FROND01
10
14.556924
20
134.121033
30
393.528107
70
192
0
VERTEX
8
FROND01
10
17.309530
20
130.459976
30
380.889740
70
192
0
VERTEX
8
FROND01
10
17.861538
20
131.639297
30
388.090729
70
192
0
VERTEX
8
FROND01
10
12.144530
20
130.590317
30
392.233551
70
192
0
VERTEX
8
FROND01
10
15.539824
20
131.125320
30
390.181824
70
192
0
VERTEX
8
FROND01
10
18.411613
20
131.853241
30
387.591644
70
192
0
VERTEX
8
FROND01
10
14.899855
20
132.684616
30
392.311493
70
192
0
VERTEX
8
FROND01
10
14.483724
20
132.701187
30
392.568787
70
192
0
VERTEX
8
FROND01
10
14.455348
20
134.948578
30
394.048157
70
192
0
VERTEX
8
FROND01
10
12.176647
20
130.130844
30
391.815460
70
192
0
VERTEX
8
FROND01
10
14.821651
20
130.116150
30
389.517578
70
192
0
VERTEX
8
FROND01
10
15.459839
20
130.070892
30
388.633606
70
192
0
VERTEX
8
FROND01
10
17.506100
20
130.811752
30
380.156586
70
192
0
VERTEX
8
FROND01
10
16.696508
20
130.724960
30
388.045532
70
192
0
VERTEX
8
FROND01
10
16.426117
20
130.838959
30
388.691742
70
192
0
VERTEX
8
FROND01
10
13.500456
20
132.428925
30
392.895386
70
192
0
VERTEX
8
FROND01
10
15.264775
20
130.800644
30
390.021698
70
192
0
VERTEX
8
FROND01
10
-2.242905
20
138.712372
30
397.909149
70
192
0
VERTEX
8
FROND01
10
0.816328
20
136.434326
30
398.363129
70
192
0
VERTEX
8
FROND01
10
5.570774
20
137.291107
30
399.073578
70
192
0
VERTEX
8
FROND01
10
1.725651
20
135.928619
30
398.326416
70
192
0
VERTEX
8
FROND01
10
4.914044
20
135.091782
30
397.887329
70
192
0
VERTEX
8
FROND01
10
10.699982
20
136.711960
30
395.303528
70
192
0
VERTEX
8
FROND01
10
7.134679
20
139.587479
30
400.113678
70
192
0
VERTEX
8
FROND01
10
1.373062
20
142.305710
30
400.993622
70
192
0
VERTEX
8
FROND01
10
2.969616
20
138.743027
30
399.868683
70
192
0
VERTEX
8
FROND01
10
0.123917
20
142.878006
30
400.627625
70
192
0
VERTEX
8
FROND01
10
-5.861065
20
145.731537
30
395.408356
70
192
0
VERTEX
8
FROND01
10
-3.866041
20
140.596436
30
397.238403
70
192
0
VERTEX
8
FROND01
10
1.098284
20
139.124619
30
399.607269
70
192
0
VERTEX
8
FROND01
10
-3.449673
20
139.978836
30
397.433350
70
192
0
VERTEX
8
FROND01
10
3.239691
20
136.748352
30
398.901733
70
192
0
VERTEX
8
FROND01
10
-0.740793
20
137.508865
30
398.266785
70
192
0
VERTEX
8
FROND01
10
1.758934
20
137.503784
30
399.070404
70
192
0
VERTEX
8
FROND01
10
3.350914
20
135.439804
30
398.218628
70
192
0
VERTEX
8
FROND01
10
3.682459
20
136.541367
30
398.806488
70
192
0
VERTEX
8
FROND01
10
4.771276
20
136.452530
30
398.700378
70
192
0
VERTEX
8
FROND01
10
9.194141
20
137.922470
30
397.980377
70
192
0
VERTEX
8
FROND01
10
8.164783
20
135.610199
30
396.943909
70
192
0
VERTEX
8
FROND01
10
7.104852
20
137.194489
30
398.599213
70
192
0
VERTEX
8
FROND01
10
2.163344
20
140.486908
30
400.503815
70
192
0
VERTEX
8
FROND01
10
4.324228
20
140.694366
30
400.976593
70
192
0
VERTEX
8
FROND01
10
4.964871
20
139.458984
30
400.352112
70
192
0
VERTEX
8
FROND01
10
-3.236239
20
144.128555
30
398.523071
70
192
0
VERTEX
8
FROND01
10
1.521307
20
140.727097
30
400.413391
70
192
0
VERTEX
8
FROND01
10
-1.778477
20
141.949249
30
399.187164
70
192
0
VERTEX
8
FROND01
10
-1.472284
20
139.734192
30
398.695099
70
192
0
VERTEX
8
FROND01
10
-5.037979
20
143.128036
30
396.480377
70
192
0
VERTEX
8
FROND01
10
-3.041438
20
141.771606
30
398.197906
70
192
0
VERTEX
8
FROND01
10
-2.858816
20
139.335388
30
397.696106
70
192
0
VERTEX
8
FROND01
10
-1.235227
20
139.451035
30
398.731567
70
192
0
VERTEX
8
FROND01
10
-0.497066
20
138.856049
30
398.884613
70
192
0
VERTEX
8
FROND01
10
6.307588
20
138.184128
30
399.460999
70
192
0
VERTEX
8
FROND01
10
1.749225
20
139.007751
30
399.745514
70
192
0
VERTEX
8
FROND01
10
3.640973
20
137.817902
30
399.472839
70
192
0
VERTEX
8
FROND01
10
5.504922
20
137.962799
30
399.475006
70
192
0
VERTEX
8
FROND01
10
0.297311
20
137.525421
30
398.674652
70
192
0
VERTEX
8
FROND01
10
2.871024
20
137.042389
30
399.022614
70
192
0
VERTEX
8
FROND01
10
1.207330
20
136.945404
30
398.690674
70
192
0
VERTEX
8
FROND01
10
4.302301
20
136.481094
30
398.756653
70
192
0
VERTEX
8
FROND01
10
3.930781
20
135.730988
30
398.362946
70
192
0
VERTEX
8
FROND01
10
3.233633
20
136.013672
30
398.520172
70
192
0
VERTEX
8
FROND01
10
7.467107
20
136.259415
30
397.812500
70
192
0
VERTEX
8
FROND01
10
8.240276
20
137.762009
30
398.467804
70
192
0
VERTEX
8
FROND01
10
9.080430
20
136.738129
30
397.141327
70
192
0
VERTEX
8
FROND01
10
4.881510
20
140.075943
30
400.681335
70
192
0
VERTEX
8
FROND01
10
3.288439
20
139.938278
30
400.488647
70
192
0
VERTEX
8
FROND01
10
2.994465
20
140.824280
30
400.850891
70
192
0
VERTEX
8
FROND01
10
-0.001511
20
141.114120
30
399.945221
70
192
0
VERTEX
8
FROND01
10
-3.042665
20
143.479797
30
398.575714
70
192
0
VERTEX
8
FROND01
10
-0.814278
20
142.386795
30
399.936951
70
192
0
VERTEX
8
FROND01
10
-4.426179
20
142.825073
30
397.120331
70
192
0
VERTEX
8
FROND01
10
-2.069090
20
140.568253
30
398.589569
70
192
0
VERTEX
8
FROND01
10
-3.469974
20
141.214218
30
397.713898
70
192
0
VERTEX
8
FROND01
10
-0.878663
20
139.231812
30
398.840149
70
192
0
VERTEX
8
FROND01
10
-2.044970
20
139.156631
30
398.170715
70
192
0
VERTEX
8
FROND01
10
-2.222430
20
139.449905
30
398.152435
70
192
0
VERTEX
8
FROND01
10
5.804061
20
137.296570
30
399.033752
70
192
0
VERTEX
8
FROND01
10
6.645853
20
137.842346
30
399.165253
70
192
0
VERTEX
8
FROND01
10
5.834186
20
136.728058
30
398.684875
70
192
0
VERTEX
8
FROND01
10
-0.148004
20
140.296860
30
399.578583
70
192
0
VERTEX
8
FROND01
10
-0.689988
20
140.344208
30
399.328247
70
192
0
VERTEX
8
FROND01
10
-2.742833
20
142.107666
30
398.518829
70
192
0
VERTEX
8
FROND01
10
1.689134
20
138.216675
30
399.378418
70
192
0
VERTEX
8
FROND01
10
2.871718
20
137.621262
30
399.309692
70
192
0
VERTEX
8
FROND01
10
0.602702
20
138.143097
30
399.034607
70
192
0
VERTEX
8
FROND01
10
6.057607
20
138.144150
30
399.489349
70
192
0
VERTEX
8
FROND01
10
5.351478
20
138.569229
30
399.838562
70
192
0
VERTEX
8
FROND01
10
5.969308
20
138.895340
30
399.946716
70
192
0
VERTEX
8
FROND01
10
3.866121
20
138.169510
30
399.664459
70
192
0
VERTEX
8
FROND01
10
4.736526
20
137.818542
30
399.469025
70
192
0
VERTEX
8
FROND01
10
3.228219
20
138.287598
30
399.678040
70
192
0
VERTEX
8
FROND01
10
4.421528
20
136.991074
30
399.031281
70
192
0
VERTEX
8
FROND01
10
3.931443
20
137.219498
30
399.167694
70
192
0
VERTEX
8
FROND01
10
4.142527
20
135.248184
30
398.079773
70
192
0
VERTEX
8
FROND01
10
4.699828
20
135.769958
30
398.317566
70
192
0
VERTEX
8
FROND01
10
8.224504
20
138.694672
30
399.126221
70
192
0
VERTEX
8
FROND01
10
7.496599
20
138.458969
30
399.279694
70
192
0
VERTEX
8
FROND01
10
2.565854
20
139.605270
30
400.204315
70
192
0
VERTEX
8
FROND01
10
3.973370
20
139.094040
30
400.144165
70
192
0
VERTEX
8
FROND01
10
-4.663877
20
144.899567
30
397.079590
70
192
0
VERTEX
8
FROND01
10
-4.261500
20
144.036789
30
397.461151
70
192
0
VERTEX
8
FROND01
10
-0.200057
20
139.395050
30
399.219727
70
192
0
VERTEX
8
FROND01
10
-0.846934
20
140.105286
30
399.163391
70
192
0
VERTEX
8
FROND01
10
-2.553776
20
139.021240
30
397.809052
70
192
0
VERTEX
8
FROND01
10
-1.483433
20
138.785019
30
398.369629
70
192
0
VERTEX
8
FROND01
10
6.726943
20
138.921280
30
399.810089
70
192
0
VERTEX
8
FROND01
10
1.365871
20
139.085678
30
399.673096
70
192
0
VERTEX
8
FROND01
10
4.843896
20
137.449341
30
399.256409
70
192
0
VERTEX
8
FROND01
10
4.448586
20
138.276779
30
399.728394
70
192
0
VERTEX
8
FROND01
10
5.935887
20
137.639740
30
399.212555
70
192
0
VERTEX
8
FROND01
10
2.034628
20
136.562988
30
398.680267
70
192
0
VERTEX
8
FROND01
10
0.033977
20
136.954681
30
398.347504
70
192
0
VERTEX
8
FROND01
10
2.543683
20
135.666702
30
398.301483
70
192
0
VERTEX
8
FROND01
10
2.710504
20
136.217850
30
398.594116
70
192
0
VERTEX
8
FROND01
10
10.023890
20
137.264374
30
396.698486
70
192
0
VERTEX
8
FROND01
10
9.533176
20
136.093903
30
396.194672
70
192
0
VERTEX
8
FROND01
10
1.764835
20
141.387299
30
400.766998
70
192
0
VERTEX
8
FROND01
10
2.847867
20
141.439026
30
401.096375
70
192
0
VERTEX
8
FROND01
10
-1.623494
20
143.446686
30
399.711639
70
192
0
VERTEX
8
FROND01
10
0.811608
20
141.782928
30
400.561859
70
192
0
VERTEX
8
FROND01
10
-2.700300
20
140.136841
30
398.033844
70
192
0
VERTEX
8
FROND01
10
-4.490818
20
141.849686
30
396.902313
70
192
0
VERTEX
8
FROND01
10
-3.157634
20
139.654709
30
397.570831
70
192
0
VERTEX
8
FROND01
10
-2.363442
20
139.691681
30
398.134827
70
192
0
VERTEX
8
FROND01
10
6.022544
20
135.834610
30
398.084656
70
192
0
VERTEX
8
FROND01
10
-5.014668
20
144.106018
30
396.591187
70
192
0
VERTEX
8
FROND01
10
-0.774969
20
138.161591
30
398.498657
70
192
0
VERTEX
8
FROND01
10
6.156954
20
139.676773
30
400.370850
70
192
0
VERTEX
8
FROND01
10
2.355532
20
138.425812
30
399.616943
70
192
0
VERTEX
8
FROND01
10
-1.501862
20
138.095367
30
398.120697
70
192
0
VERTEX
8
FROND01
10
4.637256
20
136.899139
30
398.965576
70
192
0
VERTEX
8
FROND01
10
5.123814
20
137.021652
30
398.983856
70
192
0
VERTEX
8
FROND01
10
6.615503
20
135.273010
30
397.518646
70
192
0
VERTEX
8
FROND01
10
5.764591
20
140.076706
30
400.644135
70
192
0
VERTEX
8
FROND01
10
2.243630
20
139.713104
30
400.181946
70
192
0
VERTEX
8
FROND01
10
1.147101
20
139.895035
30
399.944000
70
192
0
VERTEX
8
FROND01
10
-5.497647
20
144.424484
30
395.979431
70
192
0
VERTEX
8
FROND01
10
-0.077205
20
139.260880
30
399.222351
70
192
0
VERTEX
8
FROND01
10
0.592957
20
138.949738
30
399.363312
70
192
0
VERTEX
8
FROND01
10
6.001213
20
137.618393
30
399.186401
70
192
0
VERTEX
8
FROND01
10
2.388710
20
138.834885
30
399.813477
70
192
0
VERTEX
8
FROND01
10
3.032254
20
126.876572
30
388.469604
70
192
0
VERTEX
8
FROND01
10
5.894150
20
127.773743
30
390.490814
70
192
0
VERTEX
8
FROND01
10
6.608982
20
131.140610
30
393.961456
70
192
0
VERTEX
8
FROND01
10
6.687636
20
128.216492
30
391.008057
70
192
0
VERTEX
8
FROND01
10
8.803576
20
130.414536
30
392.740814
70
192
0
VERTEX
8
FROND01
10
10.581409
20
137.119400
30
395.610901
70
192
0
VERTEX
8
FROND01
10
4.765534
20
132.644836
30
395.744263
70
192
0
VERTEX
8
FROND01
10
0.102447
20
130.018219
30
392.405823
70
192
0
VERTEX
8
FROND01
10
4.059951
20
129.653992
30
392.732117
70
192
0
VERTEX
8
FROND01
10
-0.605531
20
129.709320
30
391.434937
70
192
0
VERTEX
8
FROND01
10
-2.575750
20
128.858475
30
384.973755
70
192
0
VERTEX
8
FROND01
10
1.197523
20
126.931534
30
387.171173
70
192
0
VERTEX
8
FROND01
10
3.178023
20
128.717285
30
391.415314
70
192
0
VERTEX
8
FROND01
10
1.759761
20
126.837692
30
387.516907
70
192
0
VERTEX
8
FROND01
10
6.287775
20
129.373795
30
392.305023
70
192
0
VERTEX
8
FROND01
10
4.439265
20
127.209686
30
389.531189
70
192
0
VERTEX
8
FROND01
10
5.017320
20
128.611115
30
391.490417
70
192
0
VERTEX
8
FROND01
10
7.769208
20
129.234711
30
391.939850
70
192
0
VERTEX
8
FROND01
10
6.673503
20
129.640671
30
392.527924
70
192
0
VERTEX
8
FROND01
10
7.202652
20
130.424377
30
393.175812
70
192
0
VERTEX
8
FROND01
10
7.894968
20
134.586823
30
396.017578
70
192
0
VERTEX
8
FROND01
10
9.957577
20
133.612091
30
394.478485
70
192
0
VERTEX
8
FROND01
10
7.473391
20
132.433945
30
394.761597
70
192
0
VERTEX
8
FROND01
10
2.045775
20
129.728531
30
392.605988
70
192
0
VERTEX
8
FROND01
10
2.433353
20
130.977631
30
394.286865
70
192
0
VERTEX
8
FROND01
10
3.969980
20
131.067123
30
394.342102
70
192
0
VERTEX
8
FROND01
10
-1.783838
20
128.962830
30
388.268677
70
192
0
VERTEX
8
FROND01
10
1.664125
20
129.485138
30
392.153656
70
192
0
VERTEX
8
FROND01
10
0.073503
20
128.472412
30
389.479523
70
192
0
VERTEX
8
FROND01
10
2.144990
20
127.653717
30
389.367004
70
192
0
VERTEX
8
FROND01
10
-0.852847
20
127.705894
30
386.072845
70
192
0
VERTEX
8
FROND01
10
0.182103
20
127.847824
30
388.186859
70
192
0
VERTEX
8
FROND01
10
2.385700
20
126.833725
30
387.999786
70
192
0
VERTEX
8
FROND01
10
2.445284
20
127.655365
30
389.524231
70
192
0
VERTEX
8
FROND01
10
3.136204
20
127.798416
30
390.040314
70
192
0
VERTEX
8
FROND01
10
5.943469
20
131.822556
30
394.728851
70
192
0
VERTEX
8
FROND01
10
3.449855
20
129.031952
30
391.894836
70
192
0
VERTEX
8
FROND01
10
5.265111
20
129.853210
30
392.919434
70
192
0
VERTEX
8
FROND01
10
5.828861
20
131.176270
30
394.170105
70
192
0
VERTEX
8
FROND01
10
4.632787
20
127.779938
30
390.377136
70
192
0
VERTEX
8
FROND01
10
5.844263
20
129.189850
30
392.148041
70
192
0
VERTEX
8
FROND01
10
5.457070
20
128.138397
30
390.924347
70
192
0
VERTEX
8
FROND01
10
6.978415
20
130.076218
30
392.899994
70
192
0
VERTEX
8
FROND01
10
7.667222
20
129.700272
30
392.404114
70
192
0
VERTEX
8
FROND01
10
7.091211
20
129.239319
30
392.059357
70
192
0
VERTEX
8
FROND01
10
8.762930
20
132.789459
30
394.518036
70
192
0
VERTEX
8
FROND01
10
7.465223
20
133.542587
30
395.552032
70
192
0
VERTEX
8
FROND01
10
9.230900
20
134.590805
30
395.366974
70
192
0
VERTEX
8
FROND01
10
3.276890
20
131.154083
30
394.485687
70
192
0
VERTEX
8
FROND01
10
2.903563
20
130.168167
30
393.312134
70
192
0
VERTEX
8
FROND01
10
1.911369
20
130.277222
30
393.339691
70
192
0
VERTEX
8
FROND01
10
1.023630
20
128.901611
30
390.958008
70
192
0
VERTEX
8
FROND01
10
-1.264400
20
128.698639
30
388.406891
70
192
0
VERTEX
8
FROND01
10
-0.250135
20
129.086380
30
390.475891
70
192
0
VERTEX
8
FROND01
10
-0.666234
20
127.796715
30
386.785950
70
192
0
VERTEX
8
FROND01
10
1.305897
20
127.725464
30
388.964752
70
192
0
VERTEX
8
FROND01
10
0.661318
20
127.396912
30
387.666168
70
192
0
VERTEX
8
FROND01
10
2.707226
20
127.745529
30
389.793304
70
192
0
VERTEX
8
FROND01
10
2.629752
20
127.148308
30
388.734009
70
192
0
VERTEX
8
FROND01
10
2.333757
20
127.182198
30
388.623108
70
192
0
VERTEX
8
FROND01
10
6.708664
20
131.325592
30
394.099152
70
192
0
VERTEX
8
FROND01
10
6.493829
20
132.065781
30
394.786499
70
192
0
VERTEX
8
FROND01
10
7.366100
20
131.297928
30
393.895905
70
192
0
VERTEX
8
FROND01
10
1.784963
20
128.508179
30
390.655396
70
192
0
VERTEX
8
FROND01
10
1.662001
20
128.269028
30
390.190369
70
192
0
VERTEX
8
FROND01
10
-0.104366
20
128.136353
30
388.541718
70
192
0
VERTEX
8
FROND01
10
4.252206
20
128.764938
30
391.635895
70
192
0
VERTEX
8
FROND01
10
5.221761
20
129.318192
30
392.326904
70
192
0
VERTEX
8
FROND01
10
4.067074
20
128.137421
30
390.774597
70
192
0
VERTEX
8
FROND01
10
5.872170
20
131.621384
30
394.567902
70
192
0
VERTEX
8
FROND01
10
5.092750
20
131.158966
30
394.291199
70
192
0
VERTEX
8
FROND01
10
4.995392
20
131.658920
30
394.791626
70
192
0
VERTEX
8
FROND01
10
4.963494
20
130.074234
30
393.184662
70
192
0
VERTEX
8
FROND01
10
5.670626
20
130.596008
30
393.640533
70
192
0
VERTEX
8
FROND01
10
4.623147
20
129.696747
30
392.780487
70
192
0
VERTEX
8
FROND01
10
6.459631
20
130.237839
30
393.153809
70
192
0
VERTEX
8
FROND01
10
6.020525
20
129.930801
30
392.917694
70
192
0
VERTEX
8
FROND01
10
8.294009
20
129.805450
30
392.357361
70
192
0
VERTEX
8
FROND01
10
7.940004
20
130.294693
30
392.880005
70
192
0
VERTEX
8
FROND01
10
6.370172
20
133.527267
30
395.962402
70
192
0
VERTEX
8
FROND01
10
6.231575
20
132.844757
30
395.494476
70
192
0
VERTEX
8
FROND01
10
3.045802
20
129.664215
30
392.679474
70
192
0
VERTEX
8
FROND01
10
4.008007
20
130.352066
30
393.549957
70
192
0
VERTEX
8
FROND01
10
-2.237268
20
128.835617
30
386.628235
70
192
0
VERTEX
8
FROND01
10
-1.635821
20
128.511505
30
387.075073
70
192
0
VERTEX
8
FROND01
10
2.655100
20
128.142899
30
390.412445
70
192
0
VERTEX
8
FROND01
10
1.869249
20
128.099274
30
390.002167
70
192
0
VERTEX
8
FROND01
10
2.706560
20
126.849243
30
388.236420
70
192
0
VERTEX
8
FROND01
10
3.055785
20
127.278114
30
389.169281
70
192
0
VERTEX
8
FROND01
10
5.314729
20
132.240723
30
395.253174
70
192
0
VERTEX
8
FROND01
10
3.278185
20
128.847763
30
391.617096
70
192
0
VERTEX
8
FROND01
10
6.121650
20
130.613754
30
393.579132
70
192
0
VERTEX
8
FROND01
10
5.057961
20
130.481140
30
393.609131
70
192
0
VERTEX
8
FROND01
10
6.382784
20
131.467072
30
394.306183
70
192
0
VERTEX
8
FROND01
10
6.097797
20
128.551559
30
391.416748
70
192
0
VERTEX
8
FROND01
10
5.162958
20
127.463043
30
390.025177
70
192
0
VERTEX
8
FROND01
10
7.232599
20
128.704468
30
391.489532
70
192
0
VERTEX
8
FROND01
10
6.686090
20
128.918533
30
391.778503
70
192
0
VERTEX
8
FROND01
10
9.308029
20
135.795166
30
395.901550
70
192
0
VERTEX
8
FROND01
10
10.345192
20
135.341736
30
395.120026
70
192
0
VERTEX
8
FROND01
10
1.063485
20
129.846710
30
392.513885
70
192
0
VERTEX
8
FROND01
10
1.253841
20
130.405853
30
393.391479
70
192
0
VERTEX
8
FROND01
10
-1.233036
20
129.251434
30
389.877045
70
192
0
VERTEX
8
FROND01
10
0.509039
20
129.548584
30
391.808533
70
192
0
VERTEX
8
FROND01
10
1.656373
20
127.250114
30
388.284424
70
192
0
VERTEX
8
FROND01
10
0.134882
20
127.268036
30
386.626160
70
192
0
VERTEX
8
FROND01
10
2.069967
20
126.829941
30
387.759827
70
192
0
VERTEX
8
FROND01
10
2.093946
20
127.215866
30
388.533203
70
192
0
VERTEX
8
FROND01
10
8.478263
20
131.408188
30
393.636322
70
192
0
VERTEX
8
FROND01
10
-1.600816
20
128.251419
30
386.147522
70
192
0
VERTEX
8
FROND01
10
3.778175
20
127.411362
30
389.650482
70
192
0
VERTEX
8
FROND01
10
4.214549
20
131.923584
30
395.187531
70
192
0
VERTEX
8
FROND01
10
4.214347
20
129.207581
30
392.192047
70
192
0
VERTEX
8
FROND01
10
3.727573
20
127.014160
30
389.011627
70
192
0
VERTEX
8
FROND01
10
6.648314
20
130.381775
30
393.255768
70
192
0
VERTEX
8
FROND01
10
6.715209
20
130.763199
30
393.596191
70
192
0
VERTEX
8
FROND01
10
9.436483
20
131.960449
30
393.684875
70
192
0
VERTEX
8
FROND01
10
3.613296
20
131.727570
30
395.075775
70
192
0
VERTEX
8
FROND01
10
2.850850
20
129.520172
30
392.463654
70
192
0
VERTEX
8
FROND01
10
2.413652
20
129.001984
30
391.646057
70
192
0
VERTEX
8
FROND01
10
-1.758403
20
128.238495
30
385.519440
70
192
0
VERTEX
8
FROND01
10
2.808505
20
128.155975
30
390.486053
70
192
0
VERTEX
8
FROND01
10
3.246722
20
128.392853
30
390.966370
70
192
0
VERTEX
8
FROND01
10
6.437040
20
131.516724
30
394.335785
70
192
0
VERTEX
8
FROND01
10
3.796099
20
129.339966
30
392.332184
70
192
0
VERTEX
8
FROND01
10
0
20
0
30
0
70
128
71
18
72
2
73
-1
0
VERTEX
8
FROND01
10
0
20
0
30
0
70
128
71
17
72
-18
73
1
0
VERTEX
8
FROND01
10
0
20
0
30
0
70
128
71
19
72
3
73
-2
0
VERTEX
8
FROND01
10
0
20
0
30
0
70
128
71
18
72
-19
73
2
0
VERTEX
8
FROND01
10
0
20
0
30
0
70
128
71
20
72
4
73
-3
0
VERTEX
8
FROND01
10
0
20
0
30
0
70
128
71
19
72
-20
73
3
0
VERTEX
8
FROND01
10
0
20
0
30
0
70
128
71
21
72
5
73
-4
0
VERTEX
8
FROND01
10
0
20
0
30
0
70
128
71
20
72
-21
73
4
0
VERTEX
8
FROND01
10
0
20
0
30
0
70
128
71
22
72
6
73
-5
0
VERTEX
8
FROND01
10
0
20
0
30
0
70
128
71
21
72
-22
73
5
0
VERTEX
8
FROND01
10
0
20
0
30
0
70
128
71
23
72
7
73
-6
0
VERTEX
8
FROND01
10
0
20
0
30
0
70
128
71
22
72
-23
73
6
0
VERTEX
8
FROND01
10
0
20
0
30
0
70
128
71
24
72
8
73
-7
0
VERTEX
8
FROND01
10
0
20
0
30
0
70
128
71
23
72
-24
73
7
0
VERTEX
8
FROND01
10
0
20
0
30
0
70
128
71
25
72
9
73
-8
0
VERTEX
8
FROND01
10
0
20
0
30
0
70
128
71
24
72
-25
73
8
0
VERTEX
8
FROND01
10
0
20
0
30
0
70
128
71
26
72
10
73
-9
0
VERTEX
8
FROND01
10
0
20
0
30
0
70
128
71
25
72
-26
73
9
0
VERTEX
8
FROND01
10
0
20
0
30
0
70
128
71
27
72
11
73
-10
0
VERTEX
8
FROND01
10
0
20
0
30
0
70
128
71
26
72
-27
73
10
0
VERTEX
8
FROND01
10
0
20
0
30
0
70
128
71
28
72
12
73
-11
0
VERTEX
8
FROND01
10
0
20
0
30
0
70
128
71
27
72
-28
73
11
0
VERTEX
8
FROND01
10
0
20
0
30
0
70
128
71
29
72
13
73
-12
0
VERTEX
8
FROND01
10
0
20
0
30
0
70
128
71
28
72
-29
73
12
0
VERTEX
8
FROND01
10
0
20
0
30
0
70
128
71
30
72
14
73
-13
0
VERTEX
8
FROND01
10
0
20
0
30
0
70
128
71
29
72
-30
73
13
0
VERTEX
8
FROND01
10
0
20
0
30
0
70
128
71
31
72
15
73
-14
0
VERTEX
8
FROND01
10
0
20
0
30
0
70
128
71
30
72
-31
73
14
0
VERTEX
8
FROND01
10
0
20
0
30
0
70
128
71
32
72
16
73
-15
0
VERTEX
8
FROND01
10
0
20
0
30
0
70
128
71
31
72
-32
73
15
0
VERTEX
8
FROND01
10
0
20
0
30
0
70
128
71
17
72
1
73
-16
0
VERTEX
8
FROND01
10
0
20
0
30
0
70
128
71
32
72
-17
73
16
0
VERTEX
8
FROND01
10
0
20
0
30
0
70
128
71
34
72
18
73
-17
0
VERTEX
8
FROND01
10
0
20
0
30
0
70
128
71
33
72
-34
73
17
0
VERTEX
8
FROND01
10
0
20
0
30
0
70
128
71
35
72
19
73
-18
0
VERTEX
8
FROND01
10
0
20
0
30
0
70
128
71
34
72
-35
73
18
0
VERTEX
8
FROND01
10
0
20
0
30
0
70
128
71
36
72
20
73
-19
0
VERTEX
8
FROND01
10
0
20
0
30
0
70
128
71
35
72
-36
73
19
0
VERTEX
8
FROND01
10
0
20
0
30
0
70
128
71
37
72
21
73
-20
0
VERTEX
8
FROND01
10
0
20
0
30
0
70
128
71
36
72
-37
73
20
0
VERTEX
8
FROND01
10
0
20
0
30
0
70
128
71
38
72
22
73
-21
0
VERTEX
8
FROND01
10
0
20
0
30
0
70
128
71
37
72
-38
73
21
0
VERTEX
8
FROND01
10
0
20
0
30
0
70
128
71
39
72
23
73
-22
0
VERTEX
8
FROND01
10
0
20
0
30
0
70
128
71
38
72
-39
73
22
0
VERTEX
8
FROND01
10
0
20
0
30
0
70
128
71
40
72
24
73
-23
0
VERTEX
8
FROND01
10
0
20
0
30
0
70
128
71
39
72
-40
73
23
0
VERTEX
8
FROND01
10
0
20
0
30
0
70
128
71
41
72
25
73
-24
0
VERTEX
8
FROND01
10
0
20
0
30
0
70
128
71
40
72
-41
73
24
0
VERTEX
8
FROND01
10
0
20
0
30
0
70
128
71
42
72
26
73
-25
0
VERTEX
8
FROND01
10
0
20
0
30
0
70
128
71
41
72
-42
73
25
0
VERTEX
8
FROND01
10
0
20
0
30
0
70
128
71
43
72
27
73
-26
0
VERTEX
8
FROND01
10
0
20
0
30
0
70
128
71
42
72
-43
73
26
0
VERTEX
8
FROND01
10
0
20
0
30
0
70
128
71
44
72
28
73
-27
0
VERTEX
8
FROND01
10
0
20
0
30
0
70
128
71
43
72
-44
73
27
0
VERTEX
8
FROND01
10
0
20
0
30
0
70
128
71
45
72
29
73
-28
0
VERTEX
8
FROND01
10
0
20
0
30
0
70
128
71
44
72
-45
73
28
0
VERTEX
8
FROND01
10
0
20
0
30
0
70
128
71
46
72
30
73
-29
0
VERTEX
8
FROND01
10
0
20
0
30
0
70
128
71
45
72
-46
73
29
0
VERTEX
8
FROND01
10
0
20
0
30
0
70
128
71
47
72
31
73
-30
0
VERTEX
8
FROND01
10
0
20
0
30
0
70
128
71
46
72
-47
73
30
0
VERTEX
8
FROND01
10
0
20
0
30
0
70
128
71
48
72
32
73
-31
0
VERTEX
8
FROND01
10
0
20
0
30
0
70
128
71
47
72
-48
73
31
0
VERTEX
8
FROND01
10
0
20
0
30
0
70
128
71
33
72
17
73
-32
0
VERTEX
8
FROND01
10
0
20
0
30
0
70
128
71
48
72
-33
73
32
0
VERTEX
8
FROND01
10
0
20
0
30
0
70
128
71
50
72
34
73
-33
0
VERTEX
8
FROND01
10
0
20
0
30
0
70
128
71
49
72
-50
73
33
0
VERTEX
8
FROND01
10
0
20
0
30
0
70
128
71
51
72
35
73
-34
0
VERTEX
8
FROND01
10
0
20
0
30
0
70
128
71
50
72
-51
73
34
0
VERTEX
8
FROND01
10
0
20
0
30
0
70
128
71
52
72
36
73
-35
0
VERTEX
8
FROND01
10
0
20
0
30
0
70
128
71
51
72
-52
73
35
0
VERTEX
8
FROND01
10
0
20
0
30
0
70
128
71
53
72
37
73
-36
0
VERTEX
8
FROND01
10
0
20
0
30
0
70
128
71
52
72
-53
73
36
0
VERTEX
8
FROND01
10
0
20
0
30
0
70
128
71
54
72
38
73
-37
0
VERTEX
8
FROND01
10
0
20
0
30
0
70
128
71
53
72
-54
73
37
0
VERTEX
8
FROND01
10
0
20
0
30
0
70
128
71
55
72
39
73
-38
0
VERTEX
8
FROND01
10
0
20
0
30
0
70
128
71
54
72
-55
73
38
0
VERTEX
8
FROND01
10
0
20
0
30
0
70
128
71
56
72
40
73
-39
0
VERTEX
8
FROND01
10
0
20
0
30
0
70
128
71
55
72
-56
73
39
0
VERTEX
8
FROND01
10
0
20
0
30
0
70
128
71
57
72
41
73
-40
0
VERTEX
8
FROND01
10
0
20
0
30
0
70
128
71
56
72
-57
73
40
0
VERTEX
8
FROND01
10
0
20
0
30
0
70
128
71
58
72
42
73
-41
0
VERTEX
8
FROND01
10
0
20
0
30
0
70
128
71
57
72
-58
73
41
0
VERTEX
8
FROND01
10
0
20
0
30
0
70
128
71
59
72
43
73
-42
0
VERTEX
8
FROND01
10
0
20
0
30
0
70
128
71
58
72
-59
73
42
0
VERTEX
8
FROND01
10
0
20
0
30
0
70
128
71
60
72
44
73
-43
0
VERTEX
8
FROND01
10
0
20
0
30
0
70
128
71
59
72
-60
73
43
0
VERTEX
8
FROND01
10
0
20
0
30
0
70
128
71
61
72
45
73
-44
0
VERTEX
8
FROND01
10
0
20
0
30
0
70
128
71
60
72
-61
73
44
0
VERTEX
8
FROND01
10
0
20
0
30
0
70
128
71
62
72
46
73
-45
0
VERTEX
8
FROND01
10
0
20
0
30
0
70
128
71
61
72
-62
73
45
0
VERTEX
8
FROND01
10
0
20
0
30
0
70
128
71
63
72
47
73
-46
0
VERTEX
8
FROND01
10
0
20
0
30
0
70
128
71
62
72
-63
73
46
0
VERTEX
8
FROND01
10
0
20
0
30
0
70
128
71
64
72
48
73
-47
0
VERTEX
8
FROND01
10
0
20
0
30
0
70
128
71
63
72
-64
73
47
0
VERTEX
8
FROND01
10
0
20
0
30
0
70
128
71
49
72
33
73
-48
0
VERTEX
8
FROND01
10
0
20
0
30
0
70
128
71
64
72
-49
73
48
0
VERTEX
8
FROND01
10
0
20
0
30
0
70
128
71
66
72
50
73
-49
0
VERTEX
8
FROND01
10
0
20
0
30
0
70
128
71
65
72
-66
73
49
0
VERTEX
8
FROND01
10
0
20
0
30
0
70
128
71
67
72
51
73
-50
0
VERTEX
8
FROND01
10
0
20
0
30
0
70
128
71
66
72
-67
73
50
0
VERTEX
8
FROND01
10
0
20
0
30
0
70
128
71
68
72
52
73
-51
0
VERTEX
8
FROND01
10
0
20
0
30
0
70
128
71
67
72
-68
73
51
0
VERTEX
8
FROND01
10
0
20
0
30
0
70
128
71
69
72
53
73
-52
0
VERTEX
8
FROND01
10
0
20
0
30
0
70
128
71
68
72
-69
73
52
0
VERTEX
8
FROND01
10
0
20
0
30
0
70
128
71
70
72
54
73
-53
0
VERTEX
8
FROND01
10
0
20
0
30
0
70
128
71
69
72
-70
73
53
0
VERTEX
8
FROND01
10
0
20
0
30
0
70
128
71
71
72
55
73
-54
0
VERTEX
8
FROND01
10
0
20
0
30
0
70
128
71
70
72
-71
73
54
0
VERTEX
8
FROND01
10
0
20
0
30
0
70
128
71
72
72
56
73
-55
0
VERTEX
8
FROND01
10
0
20
0
30
0
70
128
71
71
72
-72
73
55
0
VERTEX
8
FROND01
10
0
20
0
30
0
70
128
71
73
72
57
73
-56
0
VERTEX
8
FROND01
10
0
20
0
30
0
70
128
71
72
72
-73
73
56
0
VERTEX
8
FROND01
10
0
20
0
30
0
70
128
71
74
72
58
73
-57
0
VERTEX
8
FROND01
10
0
20
0
30
0
70
128
71
73
72
-74
73
57
0
VERTEX
8
FROND01
10
0
20
0
30
0
70
128
71
75
72
59
73
-58
0
VERTEX
8
FROND01
10
0
20
0
30
0
70
128
71
74
72
-75
73
58
0
VERTEX
8
FROND01
10
0
20
0
30
0
70
128
71
76
72
60
73
-59
0
VERTEX
8
FROND01
10
0
20
0
30
0
70
128
71
75
72
-76
73
59
0
VERTEX
8
FROND01
10
0
20
0
30
0
70
128
71
77
72
61
73
-60
0
VERTEX
8
FROND01
10
0
20
0
30
0
70
128
71
76
72
-77
73
60
0
VERTEX
8
FROND01
10
0
20
0
30
0
70
128
71
78
72
62
73
-61
0
VERTEX
8
FROND01
10
0
20
0
30
0
70
128
71
77
72
-78
73
61
0
VERTEX
8
FROND01
10
0
20
0
30
0
70
128
71
79
72
63
73
-62
0
VERTEX
8
FROND01
10
0
20
0
30
0
70
128
71
78
72
-79
73
62
0
VERTEX
8
FROND01
10
0
20
0
30
0
70
128
71
80
72
64
73
-63
0
VERTEX
8
FROND01
10
0
20
0
30
0
70
128
71
79
72
-80
73
63
0
VERTEX
8
FROND01
10
0
20
0
30
0
70
128
71
65
72
49
73
-64
0
VERTEX
8
FROND01
10
0
20
0
30
0
70
128
71
80
72
-65
73
64
0
VERTEX
8
FROND01
10
0
20
0
30
0
70
128
71
82
72
66
73
-65
0
VERTEX
8
FROND01
10
0
20
0
30
0
70
128
71
81
72
-82
73
65
0
VERTEX
8
FROND01
10
0
20
0
30
0
70
128
71
83
72
67
73
-66
0
VERTEX
8
FROND01
10
0
20
0
30
0
70
128
71
82
72
-83
73
66
0
VERTEX
8
FROND01
10
0
20
0
30
0
70
128
71
84
72
68
73
-67
0
VERTEX
8
FROND01
10
0
20
0
30
0
70
128
71
83
72
-84
73
67
0
VERTEX
8
FROND01
10
0
20
0
30
0
70
128
71
85
72
69
73
-68
0
VERTEX
8
FROND01
10
0
20
0
30
0
70
128
71
84
72
-85
73
68
0
VERTEX
8
FROND01
10
0
20
0
30
0
70
128
71
86
72
70
73
-69
0
VERTEX
8
FROND01
10
0
20
0
30
0
70
128
71
85
72
-86
73
69
0
VERTEX
8
FROND01
10
0
20
0
30
0
70
128
71
87
72
71
73
-70
0
VERTEX
8
FROND01
10
0
20
0
30
0
70
128
71
86
72
-87
73
70
0
VERTEX
8
FROND01
10
0
20
0
30
0
70
128
71
88
72
72
73
-71
0
VERTEX
8
FROND01
10
0
20
0
30
0
70
128
71
87
72
-88
73
71
0
VERTEX
8
FROND01
10
0
20
0
30
0
70
128
71
89
72
73
73
-72
0
VERTEX
8
FROND01
10
0
20
0
30
0
70
128
71
88
72
-89
73
72
0
VERTEX
8
FROND01
10
0
20
0
30
0
70
128
71
90
72
74
73
-73
0
VERTEX
8
FROND01
10
0
20
0
30
0
70
128
71
89
72
-90
73
73
0
VERTEX
8
FROND01
10
0
20
0
30
0
70
128
71
91
72
75
73
-74
0
VERTEX
8
FROND01
10
0
20
0
30
0
70
128
71
90
72
-91
73
74
0
VERTEX
8
FROND01
10
0
20
0
30
0
70
128
71
92
72
76
73
-75
0
VERTEX
8
FROND01
10
0
20
0
30
0
70
128
71
91
72
-92
73
75
0
VERTEX
8
FROND01
10
0
20
0
30
0
70
128
71
93
72
77
73
-76
0
VERTEX
8
FROND01
10
0
20
0
30
0
70
128
71
92
72
-93
73
76
0
VERTEX
8
FROND01
10
0
20
0
30
0
70
128
71
94
72
78
73
-77
0
VERTEX
8
FROND01
10
0
20
0
30
0
70
128
71
93
72
-94
73
77
0
VERTEX
8
FROND01
10
0
20
0
30
0
70
128
71
95
72
79
73
-78
0
VERTEX
8
FROND01
10
0
20
0
30
0
70
128
71
94
72
-95
73
78
0
VERTEX
8
FROND01
10
0
20
0
30
0
70
128
71
96
72
80
73
-79
0
VERTEX
8
FROND01
10
0
20
0
30
0
70
128
71
95
72
-96
73
79
0
VERTEX
8
FROND01
10
0
20
0
30
0
70
128
71
81
72
65
73
-80
0
VERTEX
8
FROND01
10
0
20
0
30
0
70
128
71
96
72
-81
73
80
0
VERTEX
8
FROND01
10
0
20
0
30
0
70
128
71
98
72
82
73
-81
0
VERTEX
8
FROND01
10
0
20
0
30
0
70
128
71
97
72
-98
73
81
0
VERTEX
8
FROND01
10
0
20
0
30
0
70
128
71
99
72
83
73
-82
0
VERTEX
8
FROND01
10
0
20
0
30
0
70
128
71
98
72
-99
73
82
0
VERTEX
8
FROND01
10
0
20
0
30
0
70
128
71
100
72
84
73
-83
0
VERTEX
8
FROND01
10
0
20
0
30
0
70
128
71
99
72
-100
73
83
0
VERTEX
8
FROND01
10
0
20
0
30
0
70
128
71
101
72
85
73
-84
0
VERTEX
8
FROND01
10
0
20
0
30
0
70
128
71
100
72
-101
73
84
0
VERTEX
8
FROND01
10
0
20
0
30
0
70
128
71
102
72
86
73
-85
0
VERTEX
8
FROND01
10
0
20
0
30
0
70
128
71
101
72
-102
73
85
0
VERTEX
8
FROND01
10
0
20
0
30
0
70
128
71
103
72
87
73
-86
0
VERTEX
8
FROND01
10
0
20
0
30
0
70
128
71
102
72
-103
73
86
0
VERTEX
8
FROND01
10
0
20
0
30
0
70
128
71
104
72
88
73
-87
0
VERTEX
8
FROND01
10
0
20
0
30
0
70
128
71
103
72
-104
73
87
0
VERTEX
8
FROND01
10
0
20
0
30
0
70
128
71
105
72
89
73
-88
0
VERTEX
8
FROND01
10
0
20
0
30
0
70
128
71
104
72
-105
73
88
0
VERTEX
8
FROND01
10
0
20
0
30
0
70
128
71
106
72
90
73
-89
0
VERTEX
8
FROND01
10
0
20
0
30
0
70
128
71
105
72
-106
73
89
0
VERTEX
8
FROND01
10
0
20
0
30
0
70
128
71
107
72
91
73
-90
0
VERTEX
8
FROND01
10
0
20
0
30
0
70
128
71
106
72
-107
73
90
0
VERTEX
8
FROND01
10
0
20
0
30
0
70
128
71
108
72
92
73
-91
0
VERTEX
8
FROND01
10
0
20
0
30
0
70
128
71
107
72
-108
73
91
0
VERTEX
8
FROND01
10
0
20
0
30
0
70
128
71
109
72
93
73
-92
0
VERTEX
8
FROND01
10
0
20
0
30
0
70
128
71
108
72
-109
73
92
0
VERTEX
8
FROND01
10
0
20
0
30
0
70
128
71
110
72
94
73
-93
0
VERTEX
8
FROND01
10
0
20
0
30
0
70
128
71
109
72
-110
73
93
0
VERTEX
8
FROND01
10
0
20
0
30
0
70
128
71
111
72
95
73
-94
0
VERTEX
8
FROND01
10
0
20
0
30
0
70
128
71
110
72
-111
73
94
0
VERTEX
8
FROND01
10
0
20
0
30
0
70
128
71
112
72
96
73
-95
0
VERTEX
8
FROND01
10
0
20
0
30
0
70
128
71
111
72
-112
73
95
0
VERTEX
8
FROND01
10
0
20
0
30
0
70
128
71
97
72
81
73
-96
0
VERTEX
8
FROND01
10
0
20
0
30
0
70
128
71
112
72
-97
73
96
0
VERTEX
8
FROND01
10
0
20
0
30
0
70
128
71
114
72
98
73
-97
0
VERTEX
8
FROND01
10
0
20
0
30
0
70
128
71
113
72
-114
73
97
0
VERTEX
8
FROND01
10
0
20
0
30
0
70
128
71
115
72
99
73
-98
0
VERTEX
8
FROND01
10
0
20
0
30
0
70
128
71
114
72
-115
73
98
0
VERTEX
8
FROND01
10
0
20
0
30
0
70
128
71
116
72
100
73
-99
0
VERTEX
8
FROND01
10
0
20
0
30
0
70
128
71
115
72
-116
73
99
0
VERTEX
8
FROND01
10
0
20
0
30
0
70
128
71
117
72
101
73
-100
0
VERTEX
8
FROND01
10
0
20
0
30
0
70
128
71
116
72
-117
73
100
0
VERTEX
8
FROND01
10
0
20
0
30
0
70
128
71
118
72
102
73
-101
0
VERTEX
8
FROND01
10
0
20
0
30
0
70
128
71
117
72
-118
73
101
0
VERTEX
8
FROND01
10
0
20
0
30
0
70
128
71
119
72
103
73
-102
0
VERTEX
8
FROND01
10
0
20
0
30
0
70
128
71
118
72
-119
73
102
0
VERTEX
8
FROND01
10
0
20
0
30
0
70
128
71
120
72
104
73
-103
0
VERTEX
8
FROND01
10
0
20
0
30
0
70
128
71
119
72
-120
73
103
0
VERTEX
8
FROND01
10
0
20
0
30
0
70
128
71
121
72
105
73
-104
0
VERTEX
8
FROND01
10
0
20
0
30
0
70
128
71
120
72
-121
73
104
0
VERTEX
8
FROND01
10
0
20
0
30
0
70
128
71
122
72
106
73
-105
0
VERTEX
8
FROND01
10
0
20
0
30
0
70
128
71
121
72
-122
73
105
0
VERTEX
8
FROND01
10
0
20
0
30
0
70
128
71
123
72
107
73
-106
0
VERTEX
8
FROND01
10
0
20
0
30
0
70
128
71
122
72
-123
73
106
0
VERTEX
8
FROND01
10
0
20
0
30
0
70
128
71
124
72
108
73
-107
0
VERTEX
8
FROND01
10
0
20
0
30
0
70
128
71
123
72
-124
73
107
0
VERTEX
8
FROND01
10
0
20
0
30
0
70
128
71
125
72
109
73
-108
0
VERTEX
8
FROND01
10
0
20
0
30
0
70
128
71
124
72
-125
73
108
0
VERTEX
8
FROND01
10
0
20
0
30
0
70
128
71
126
72
110
73
-109
0
VERTEX
8
FROND01
10
0
20
0
30
0
70
128
71
125
72
-126
73
109
0
VERTEX
8
FROND01
10
0
20
0
30
0
70
128
71
127
72
111
73
-110
0
VERTEX
8
FROND01
10
0
20
0
30
0
70
128
71
126
72
-127
73
110
0
VERTEX
8
FROND01
10
0
20
0
30
0
70
128
71
128
72
112
73
-111
0
VERTEX
8
FROND01
10
0
20
0
30
0
70
128
71
127
72
-128
73
111
0
VERTEX
8
FROND01
10
0
20
0
30
0
70
128
71
113
72
97
73
-112
0
VERTEX
8
FROND01
10
0
20
0
30
0
70
128
71
128
72
-113
73
112
0
VERTEX
8
FROND01
10
0
20
0
30
0
70
128
71
130
72
114
73
-113
0
VERTEX
8
FROND01
10
0
20
0
30
0
70
128
71
129
72
-130
73
113
0
VERTEX
8
FROND01
10
0
20
0
30
0
70
128
71
131
72
115
73
-114
0
VERTEX
8
FROND01
10
0
20
0
30
0
70
128
71
130
72
-131
73
114
0
VERTEX
8
FROND01
10
0
20
0
30
0
70
128
71
132
72
116
73
-115
0
VERTEX
8
FROND01
10
0
20
0
30
0
70
128
71
131
72
-132
73
115
0
VERTEX
8
FROND01
10
0
20
0
30
0
70
128
71
133
72
117
73
-116
0
VERTEX
8
FROND01
10
0
20
0
30
0
70
128
71
132
72
-133
73
116
0
VERTEX
8
FROND01
10
0
20
0
30
0
70
128
71
134
72
118
73
-117
0
VERTEX
8
FROND01
10
0
20
0
30
0
70
128
71
133
72
-134
73
117
0
VERTEX
8
FROND01
10
0
20
0
30
0
70
128
71
135
72
119
73
-118
0
VERTEX
8
FROND01
10
0
20
0
30
0
70
128
71
134
72
-135
73
118
0
VERTEX
8
FROND01
10
0
20
0
30
0
70
128
71
136
72
120
73
-119
0
VERTEX
8
FROND01
10
0
20
0
30
0
70
128
71
135
72
-136
73
119
0
VERTEX
8
FROND01
10
0
20
0
30
0
70
128
71
137
72
121
73
-120
0
VERTEX
8
FROND01
10
0
20
0
30
0
70
128
71
136
72
-137
73
120
0
VERTEX
8
FROND01
10
0
20
0
30
0
70
128
71
138
72
122
73
-121
0
VERTEX
8
FROND01
10
0
20
0
30
0
70
128
71
137
72
-138
73
121
0
VERTEX
8
FROND01
10
0
20
0
30
0
70
128
71
139
72
123
73
-122
0
VERTEX
8
FROND01
10
0
20
0
30
0
70
128
71
138
72
-139
73
122
0
VERTEX
8
FROND01
10
0
20
0
30
0
70
128
71
140
72
124
73
-123
0
VERTEX
8
FROND01
10
0
20
0
30
0
70
128
71
139
72
-140
73
123
0
VERTEX
8
FROND01
10
0
20
0
30
0
70
128
71
141
72
125
73
-124
0
VERTEX
8
FROND01
10
0
20
0
30
0
70
128
71
140
72
-141
73
124
0
VERTEX
8
FROND01
10
0
20
0
30
0
70
128
71
142
72
126
73
-125
0
VERTEX
8
FROND01
10
0
20
0
30
0
70
128
71
141
72
-142
73
125
0
VERTEX
8
FROND01
10
0
20
0
30
0
70
128
71
143
72
127
73
-126
0
VERTEX
8
FROND01
10
0
20
0
30
0
70
128
71
142
72
-143
73
126
0
VERTEX
8
FROND01
10
0
20
0
30
0
70
128
71
144
72
128
73
-127
0
VERTEX
8
FROND01
10
0
20
0
30
0
70
128
71
143
72
-144
73
127
0
VERTEX
8
FROND01
10
0
20
0
30
0
70
128
71
129
72
113
73
-128
0
VERTEX
8
FROND01
10
0
20
0
30
0
70
128
71
144
72
-129
73
128
0
VERTEX
8
FROND01
10
0
20
0
30
0
70
128
71
146
72
130
73
-129
0
VERTEX
8
FROND01
10
0
20
0
30
0
70
128
71
145
72
-146
73
129
0
VERTEX
8
FROND01
10
0
20
0
30
0
70
128
71
147
72
131
73
-130
0
VERTEX
8
FROND01
10
0
20
0
30
0
70
128
71
146
72
-147
73
130
0
VERTEX
8
FROND01
10
0
20
0
30
0
70
128
71
148
72
132
73
-131
0
VERTEX
8
FROND01
10
0
20
0
30
0
70
128
71
147
72
-148
73
131
0
VERTEX
8
FROND01
10
0
20
0
30
0
70
128
71
149
72
133
73
-132
0
VERTEX
8
FROND01
10
0
20
0
30
0
70
128
71
148
72
-149
73
132
0
VERTEX
8
FROND01
10
0
20
0
30
0
70
128
71
150
72
134
73
-133
0
VERTEX
8
FROND01
10
0
20
0
30
0
70
128
71
149
72
-150
73
133
0
VERTEX
8
FROND01
10
0
20
0
30
0
70
128
71
151
72
135
73
-134
0
VERTEX
8
FROND01
10
0
20
0
30
0
70
128
71
150
72
-151
73
134
0
VERTEX
8
FROND01
10
0
20
0
30
0
70
128
71
152
72
136
73
-135
0
VERTEX
8
FROND01
10
0
20
0
30
0
70
128
71
151
72
-152
73
135
0
VERTEX
8
FROND01
10
0
20
0
30
0
70
128
71
153
72
137
73
-136
0
VERTEX
8
FROND01
10
0
20
0
30
0
70
128
71
152
72
-153
73
136
0
VERTEX
8
FROND01
10
0
20
0
30
0
70
128
71
154
72
138
73
-137
0
VERTEX
8
FROND01
10
0
20
0
30
0
70
128
71
153
72
-154
73
137
0
VERTEX
8
FROND01
10
0
20
0
30
0
70
128
71
155
72
139
73
-138
0
VERTEX
8
FROND01
10
0
20
0
30
0
70
128
71
154
72
-155
73
138
0
VERTEX
8
FROND01
10
0
20
0
30
0
70
128
71
156
72
140
73
-139
0
VERTEX
8
FROND01
10
0
20
0
30
0
70
128
71
155
72
-156
73
139
0
VERTEX
8
FROND01
10
0
20
0
30
0
70
128
71
157
72
141
73
-140
0
VERTEX
8
FROND01
10
0
20
0
30
0
70
128
71
156
72
-157
73
140
0
VERTEX
8
FROND01
10
0
20
0
30
0
70
128
71
158
72
142
73
-141
0
VERTEX
8
FROND01
10
0
20
0
30
0
70
128
71
157
72
-158
73
141
0
VERTEX
8
FROND01
10
0
20
0
30
0
70
128
71
159
72
143
73
-142
0
VERTEX
8
FROND01
10
0
20
0
30
0
70
128
71
158
72
-159
73
142
0
VERTEX
8
FROND01
10
0
20
0
30
0
70
128
71
160
72
144
73
-143
0
VERTEX
8
FROND01
10
0
20
0
30
0
70
128
71
159
72
-160
73
143
0
VERTEX
8
FROND01
10
0
20
0
30
0
70
128
71
145
72
129
73
-144
0
VERTEX
8
FROND01
10
0
20
0
30
0
70
128
71
160
72
-145
73
144
0
VERTEX
8
FROND01
10
0
20
0
30
0
70
128
71
162
72
146
73
-145
0
VERTEX
8
FROND01
10
0
20
0
30
0
70
128
71
161
72
-162
73
145
0
VERTEX
8
FROND01
10
0
20
0
30
0
70
128
71
163
72
147
73
-146
0
VERTEX
8
FROND01
10
0
20
0
30
0
70
128
71
162
72
-163
73
146
0
VERTEX
8
FROND01
10
0
20
0
30
0
70
128
71
164
72
148
73
-147
0
VERTEX
8
FROND01
10
0
20
0
30
0
70
128
71
163
72
-164
73
147
0
VERTEX
8
FROND01
10
0
20
0
30
0
70
128
71
165
72
149
73
-148
0
VERTEX
8
FROND01
10
0
20
0
30
0
70
128
71
164
72
-165
73
148
0
VERTEX
8
FROND01
10
0
20
0
30
0
70
128
71
166
72
150
73
-149
0
VERTEX
8
FROND01
10
0
20
0
30
0
70
128
71
165
72
-166
73
149
0
VERTEX
8
FROND01
10
0
20
0
30
0
70
128
71
167
72
151
73
-150
0
VERTEX
8
FROND01
10
0
20
0
30
0
70
128
71
166
72
-167
73
150
0
VERTEX
8
FROND01
10
0
20
0
30
0
70
128
71
168
72
152
73
-151
0
VERTEX
8
FROND01
10
0
20
0
30
0
70
128
71
167
72
-168
73
151
0
VERTEX
8
FROND01
10
0
20
0
30
0
70
128
71
169
72
153
73
-152
0
VERTEX
8
FROND01
10
0
20
0
30
0
70
128
71
168
72
-169
73
152
0
VERTEX
8
FROND01
10
0
20
0
30
0
70
128
71
170
72
154
73
-153
0
VERTEX
8
FROND01
10
0
20
0
30
0
70
128
71
169
72
-170
73
153
0
VERTEX
8
FROND01
10
0
20
0
30
0
70
128
71
171
72
155
73
-154
0
VERTEX
8
FROND01
10
0
20
0
30
0
70
128
71
170
72
-171
73
154
0
VERTEX
8
FROND01
10
0
20
0
30
0
70
128
71
172
72
156
73
-155
0
VERTEX
8
FROND01
10
0
20
0
30
0
70
128
71
171
72
-172
73
155
0
VERTEX
8
FROND01
10
0
20
0
30
0
70
128
71
173
72
157
73
-156
0
VERTEX
8
FROND01
10
0
20
0
30
0
70
128
71
172
72
-173
73
156
0
VERTEX
8
FROND01
10
0
20
0
30
0
70
128
71
174
72
158
73
-157
0
VERTEX
8
FROND01
10
0
20
0
30
0
70
128
71
173
72
-174
73
157
0
VERTEX
8
FROND01
10
0
20
0
30
0
70
128
71
175
72
159
73
-158
0
VERTEX
8
FROND01
10
0
20
0
30
0
70
128
71
174
72
-175
73
158
0
VERTEX
8
FROND01
10
0
20
0
30
0
70
128
71
176
72
160
73
-159
0
VERTEX
8
FROND01
10
0
20
0
30
0
70
128
71
175
72
-176
73
159
0
VERTEX
8
FROND01
10
0
20
0
30
0
70
128
71
161
72
145
73
-160
0
VERTEX
8
FROND01
10
0
20
0
30
0
70
128
71
176
72
-161
73
160
0
VERTEX
8
FROND01
10
0
20
0
30
0
70
128
71
178
72
162
73
-161
0
VERTEX
8
FROND01
10
0
20
0
30
0
70
128
71
177
72
-178
73
161
0
VERTEX
8
FROND01
10
0
20
0
30
0
70
128
71
179
72
163
73
-162
0
VERTEX
8
FROND01
10
0
20
0
30
0
70
128
71
178
72
-179
73
162
0
VERTEX
8
FROND01
10
0
20
0
30
0
70
128
71
180
72
164
73
-163
0
VERTEX
8
FROND01
10
0
20
0
30
0
70
128
71
179
72
-180
73
163
0
VERTEX
8
FROND01
10
0
20
0
30
0
70
128
71
181
72
165
73
-164
0
VERTEX
8
FROND01
10
0
20
0
30
0
70
128
71
180
72
-181
73
164
0
VERTEX
8
FROND01
10
0
20
0
30
0
70
128
71
182
72
166
73
-165
0
VERTEX
8
FROND01
10
0
20
0
30
0
70
128
71
181
72
-182
73
165
0
VERTEX
8
FROND01
10
0
20
0
30
0
70
128
71
183
72
167
73
-166
0
VERTEX
8
FROND01
10
0
20
0
30
0
70
128
71
182
72
-183
73
166
0
VERTEX
8
FROND01
10
0
20
0
30
0
70
128
71
184
72
168
73
-167
0
VERTEX
8
FROND01
10
0
20
0
30
0
70
128
71
183
72
-184
73
167
0
VERTEX
8
FROND01
10
0
20
0
30
0
70
128
71
185
72
169
73
-168
0
VERTEX
8
FROND01
10
0
20
0
30
0
70
128
71
184
72
-185
73
168
0
VERTEX
8
FROND01
10
0
20
0
30
0
70
128
71
186
72
170
73
-169
0
VERTEX
8
FROND01
10
0
20
0
30
0
70
128
71
185
72
-186
73
169
0
VERTEX
8
FROND01
10
0
20
0
30
0
70
128
71
187
72
171
73
-170
0
VERTEX
8
FROND01
10
0
20
0
30
0
70
128
71
186
72
-187
73
170
0
VERTEX
8
FROND01
10
0
20
0
30
0
70
128
71
188
72
172
73
-171
0
VERTEX
8
FROND01
10
0
20
0
30
0
70
128
71
187
72
-188
73
171
0
VERTEX
8
FROND01
10
0
20
0
30
0
70
128
71
189
72
173
73
-172
0
VERTEX
8
FROND01
10
0
20
0
30
0
70
128
71
188
72
-189
73
172
0
VERTEX
8
FROND01
10
0
20
0
30
0
70
128
71
190
72
174
73
-173
0
VERTEX
8
FROND01
10
0
20
0
30
0
70
128
71
189
72
-190
73
173
0
VERTEX
8
FROND01
10
0
20
0
30
0
70
128
71
191
72
175
73
-174
0
VERTEX
8
FROND01
10
0
20
0
30
0
70
128
71
190
72
-191
73
174
0
VERTEX
8
FROND01
10
0
20
0
30
0
70
128
71
192
72
176
73
-175
0
VERTEX
8
FROND01
10
0
20
0
30
0
70
128
71
191
72
-192
73
175
0
VERTEX
8
FROND01
10
0
20
0
30
0
70
128
71
177
72
161
73
-176
0
VERTEX
8
FROND01
10
0
20
0
30
0
70
128
71
192
72
-177
73
176
0
VERTEX
8
FROND01
10
0
20
0
30
0
70
128
71
194
72
178
73
-177
0
VERTEX
8
FROND01
10
0
20
0
30
0
70
128
71
193
72
-194
73
177
0
VERTEX
8
FROND01
10
0
20
0
30
0
70
128
71
195
72
179
73
-178
0
VERTEX
8
FROND01
10
0
20
0
30
0
70
128
71
194
72
-195
73
178
0
VERTEX
8
FROND01
10
0
20
0
30
0
70
128
71
196
72
180
73
-179
0
VERTEX
8
FROND01
10
0
20
0
30
0
70
128
71
195
72
-196
73
179
0
VERTEX
8
FROND01
10
0
20
0
30
0
70
128
71
197
72
181
73
-180
0
VERTEX
8
FROND01
10
0
20
0
30
0
70
128
71
196
72
-197
73
180
0
VERTEX
8
FROND01
10
0
20
0
30
0
70
128
71
198
72
182
73
-181
0
VERTEX
8
FROND01
10
0
20
0
30
0
70
128
71
197
72
-198
73
181
0
VERTEX
8
FROND01
10
0
20
0
30
0
70
128
71
199
72
183
73
-182
0
VERTEX
8
FROND01
10
0
20
0
30
0
70
128
71
198
72
-199
73
182
0
VERTEX
8
FROND01
10
0
20
0
30
0
70
128
71
200
72
184
73
-183
0
VERTEX
8
FROND01
10
0
20
0
30
0
70
128
71
199
72
-200
73
183
0
VERTEX
8
FROND01
10
0
20
0
30
0
70
128
71
201
72
185
73
-184
0
VERTEX
8
FROND01
10
0
20
0
30
0
70
128
71
200
72
-201
73
184
0
VERTEX
8
FROND01
10
0
20
0
30
0
70
128
71
202
72
186
73
-185
0
VERTEX
8
FROND01
10
0
20
0
30
0
70
128
71
201
72
-202
73
185
0
VERTEX
8
FROND01
10
0
20
0
30
0
70
128
71
203
72
187
73
-186
0
VERTEX
8
FROND01
10
0
20
0
30
0
70
128
71
202
72
-203
73
186
0
VERTEX
8
FROND01
10
0
20
0
30
0
70
128
71
204
72
188
73
-187
0
VERTEX
8
FROND01
10
0
20
0
30
0
70
128
71
203
72
-204
73
187
0
VERTEX
8
FROND01
10
0
20
0
30
0
70
128
71
205
72
189
73
-188
0
VERTEX
8
FROND01
10
0
20
0
30
0
70
128
71
204
72
-205
73
188
0
VERTEX
8
FROND01
10
0
20
0
30
0
70
128
71
206
72
190
73
-189
0
VERTEX
8
FROND01
10
0
20
0
30
0
70
128
71
205
72
-206
73
189
0
VERTEX
8
FROND01
10
0
20
0
30
0
70
128
71
207
72
191
73
-190
0
VERTEX
8
FROND01
10
0
20
0
30
0
70
128
71
206
72
-207
73
190
0
VERTEX
8
FROND01
10
0
20
0
30
0
70
128
71
208
72
192
73
-191
0
VERTEX
8
FROND01
10
0
20
0
30
0
70
128
71
207
72
-208
73
191
0
VERTEX
8
FROND01
10
0
20
0
30
0
70
128
71
193
72
177
73
-192
0
VERTEX
8
FROND01
10
0
20
0
30
0
70
128
71
208
72
-193
73
192
0
VERTEX
8
FROND01
10
0
20
0
30
0
70
128
71
-210
72
1
73
-2
0
VERTEX
8
FROND01
10
0
20
0
30
0
70
128
71
-210
72
2
73
-3
0
VERTEX
8
FROND01
10
0
20
0
30
0
70
128
71
-210
72
3
73
-4
0
VERTEX
8
FROND01
10
0
20
0
30
0
70
128
71
-210
72
4
73
-5
0
VERTEX
8
FROND01
10
0
20
0
30
0
70
128
71
-210
72
5
73
-6
0
VERTEX
8
FROND01
10
0
20
0
30
0
70
128
71
-210
72
6
73
-7
0
VERTEX
8
FROND01
10
0
20
0
30
0
70
128
71
-210
72
7
73
-8
0
VERTEX
8
FROND01
10
0
20
0
30
0
70
128
71
-210
72
8
73
-9
0
VERTEX
8
FROND01
10
0
20
0
30
0
70
128
71
-210
72
9
73
-10
0
VERTEX
8
FROND01
10
0
20
0
30
0
70
128
71
-210
72
10
73
-11
0
VERTEX
8
FROND01
10
0
20
0
30
0
70
128
71
-210
72
11
73
-12
0
VERTEX
8
FROND01
10
0
20
0
30
0
70
128
71
-210
72
12
73
-13
0
VERTEX
8
FROND01
10
0
20
0
30
0
70
128
71
-210
72
13
73
-14
0
VERTEX
8
FROND01
10
0
20
0
30
0
70
128
71
-210
72
14
73
-15
0
VERTEX
8
FROND01
10
0
20
0
30
0
70
128
71
-210
72
15
73
-16
0
VERTEX
8
FROND01
10
0
20
0
30
0
70
128
71
-210
72
16
73
-1
0
VERTEX
8
FROND01
10
0
20
0
30
0
70
128
71
-209
72
194
73
-193
0
VERTEX
8
FROND01
10
0
20
0
30
0
70
128
71
-209
72
195
73
-194
0
VERTEX
8
FROND01
10
0
20
0
30
0
70
128
71
-209
72
196
73
-195
0
VERTEX
8
FROND01
10
0
20
0
30
0
70
128
71
-209
72
197
73
-196
0
VERTEX
8
FROND01
10
0
20
0
30
0
70
128
71
-209
72
198
73
-197
0
VERTEX
8
FROND01
10
0
20
0
30
0
70
128
71
-209
72
199
73
-198
0
VERTEX
8
FROND01
10
0
20
0
30
0
70
128
71
-209
72
200
73
-199
0
VERTEX
8
FROND01
10
0
20
0
30
0
70
128
71
-209
72
201
73
-200
0
VERTEX
8
FROND01
10
0
20
0
30
0
70
128
71
-209
72
202
73
-201
0
VERTEX
8
FROND01
10
0
20
0
30
0
70
128
71
-209
72
203
73
-202
0
VERTEX
8
FROND01
10
0
20
0
30
0
70
128
71
-209
72
204
73
-203
0
VERTEX
8
FROND01
10
0
20
0
30
0
70
128
71
-209
72
205
73
-204
0
VERTEX
8
FROND01
10
0
20
0
30
0
70
128
71
-209
72
206
73
-205
0
VERTEX
8
FROND01
10
0
20
0
30
0
70
128
71
-209
72
207
73
-206
0
VERTEX
8
FROND01
10
0
20
0
30
0
70
128
71
-209
72
208
73
-207
0
VERTEX
8
FROND01
10
0
20
0
30
0
70
128
71
-209
72
193
73
-208
0
VERTEX
8
FROND01
10
0
20
0
30
0
70
128
71
251
72
252
73
250
0
VERTEX
8
FROND01
10
0
20
0
30
0
70
128
71
254
72
255
73
253
0
VERTEX
8
FROND01
10
0
20
0
30
0
70
128
71
257
72
258
73
256
0
VERTEX
8
FROND01
10
0
20
0
30
0
70
128
71
260
72
261
73
259
0
VERTEX
8
FROND01
10
0
20
0
30
0
70
128
71
263
72
264
73
262
0
VERTEX
8
FROND01
10
0
20
0
30
0
70
128
71
266
72
267
73
265
0
VERTEX
8
FROND01
10
0
20
0
30
0
70
128
71
269
72
270
73
268
0
VERTEX
8
FROND01
10
0
20
0
30
0
70
128
71
272
72
273
73
271
0
VERTEX
8
FROND01
10
0
20
0
30
0
70
128
71
275
72
276
73
274
0
VERTEX
8
FROND01
10
0
20
0
30
0
70
128
71
278
72
279
73
277
0
VERTEX
8
FROND01
10
0
20
0
30
0
70
128
71
281
72
282
73
280
0
VERTEX
8
FROND01
10
0
20
0
30
0
70
128
71
284
72
285
73
283
0
VERTEX
8
FROND01
10
0
20
0
30
0
70
128
71
251
72
287
73
286
0
VERTEX
8
FROND01
10
0
20
0
30
0
70
128
71
254
72
289
73
288
0
VERTEX
8
FROND01
10
0
20
0
30
0
70
128
71
257
72
291
73
290
0
VERTEX
8
FROND01
10
0
20
0
30
0
70
128
71
260
72
293
73
292
0
VERTEX
8
FROND01
10
0
20
0
30
0
70
128
71
263
72
295
73
294
0
VERTEX
8
FROND01
10
0
20
0
30
0
70
128
71
266
72
297
73
296
0
VERTEX
8
FROND01
10
0
20
0
30
0
70
128
71
269
72
299
73
298
0
VERTEX
8
FROND01
10
0
20
0
30
0
70
128
71
272
72
300
73
291
0
VERTEX
8
FROND01
10
0
20
0
30
0
70
128
71
275
72
301
73
297
0
VERTEX
8
FROND01
10
0
20
0
30
0
70
128
71
278
72
302
73
287
0
VERTEX
8
FROND01
10
0
20
0
30
0
70
128
71
281
72
303
73
293
0
VERTEX
8
FROND01
10
0
20
0
30
0
70
128
71
284
72
304
73
302
0
VERTEX
8
FROND01
10
0
20
0
30
0
70
128
71
306
72
252
73
305
0
VERTEX
8
FROND01
10
0
20
0
30
0
70
128
71
308
72
255
73
307
0
VERTEX
8
FROND01
10
0
20
0
30
0
70
128
71
310
72
258
73
309
0
VERTEX
8
FROND01
10
0
20
0
30
0
70
128
71
312
72
261
73
311
0
VERTEX
8
FROND01
10
0
20
0
30
0
70
128
71
314
72
264
73
313
0
VERTEX
8
FROND01
10
0
20
0
30
0
70
128
71
316
72
267
73
315
0
VERTEX
8
FROND01
10
0
20
0
30
0
70
128
71
318
72
270
73
317
0
VERTEX
8
FROND01
10
0
20
0
30
0
70
128
71
289
72
273
73
319
0
VERTEX
8
FROND01
10
0
20
0
30
0
70
128
71
295
72
276
73
320
0
VERTEX
8
FROND01
10
0
20
0
30
0
70
128
71
299
72
279
73
321
0
VERTEX
8
FROND01
10
0
20
0
30
0
70
128
71
300
72
282
73
322
0
VERTEX
8
FROND01
10
0
20
0
30
0
70
128
71
301
72
285
73
323
0
VERTEX
8
FROND01
10
0
20
0
30
0
70
128
71
324
72
321
73
250
0
VERTEX
8
FROND01
10
0
20
0
30
0
70
128
71
325
72
326
73
253
0
VERTEX
8
FROND01
10
0
20
0
30
0
70
128
71
327
72
319
73
256
0
VERTEX
8
FROND01
10
0
20
0
30
0
70
128
71
328
72
322
73
259
0
VERTEX
8
FROND01
10
0
20
0
30
0
70
128
71
329
72
330
73
262
0
VERTEX
8
FROND01
10
0
20
0
30
0
70
128
71
331
72
320
73
265
0
VERTEX
8
FROND01
10
0
20
0
30
0
70
128
71
332
72
333
73
268
0
VERTEX
8
FROND01
10
0
20
0
30
0
70
128
71
326
72
334
73
271
0
VERTEX
8
FROND01
10
0
20
0
30
0
70
128
71
330
72
335
73
274
0
VERTEX
8
FROND01
10
0
20
0
30
0
70
128
71
333
72
323
73
277
0
VERTEX
8
FROND01
10
0
20
0
30
0
70
128
71
334
72
304
73
280
0
VERTEX
8
FROND01
10
0
20
0
30
0
70
128
71
335
72
303
73
283
0
VERTEX
8
FROND01
10
0
20
0
30
0
70
128
71
226
72
250
73
252
0
VERTEX
8
FROND01
10
0
20
0
30
0
70
128
71
229
72
253
73
255
0
VERTEX
8
FROND01
10
0
20
0
30
0
70
128
71
232
72
256
73
258
0
VERTEX
8
FROND01
10
0
20
0
30
0
70
128
71
235
72
259
73
261
0
VERTEX
8
FROND01
10
0
20
0
30
0
70
128
71
238
72
262
73
264
0
VERTEX
8
FROND01
10
0
20
0
30
0
70
128
71
241
72
265
73
267
0
VERTEX
8
FROND01
10
0
20
0
30
0
70
128
71
244
72
268
73
270
0
VERTEX
8
FROND01
10
0
20
0
30
0
70
128
71
230
72
271
73
273
0
VERTEX
8
FROND01
10
0
20
0
30
0
70
128
71
239
72
274
73
276
0
VERTEX
8
FROND01
10
0
20
0
30
0
70
128
71
245
72
277
73
279
0
VERTEX
8
FROND01
10
0
20
0
30
0
70
128
71
246
72
280
73
282
0
VERTEX
8
FROND01
10
0
20
0
30
0
70
128
71
247
72
283
73
285
0
VERTEX
8
FROND01
10
0
20
0
30
0
70
128
71
213
72
286
73
287
0
VERTEX
8
FROND01
10
0
20
0
30
0
70
128
71
215
72
288
73
289
0
VERTEX
8
FROND01
10
0
20
0
30
0
70
128
71
217
72
290
73
291
0
VERTEX
8
FROND01
10
0
20
0
30
0
70
128
71
219
72
292
73
293
0
VERTEX
8
FROND01
10
0
20
0
30
0
70
128
71
221
72
294
73
295
0
VERTEX
8
FROND01
10
0
20
0
30
0
70
128
71
223
72
296
73
297
0
VERTEX
8
FROND01
10
0
20
0
30
0
70
128
71
211
72
298
73
299
0
VERTEX
8
FROND01
10
0
20
0
30
0
70
128
71
217
72
291
73
300
0
VERTEX
8
FROND01
10
0
20
0
30
0
70
128
71
223
72
297
73
301
0
VERTEX
8
FROND01
10
0
20
0
30
0
70
128
71
213
72
287
73
302
0
VERTEX
8
FROND01
10
0
20
0
30
0
70
128
71
219
72
293
73
303
0
VERTEX
8
FROND01
10
0
20
0
30
0
70
128
71
213
72
302
73
304
0
VERTEX
8
FROND01
10
0
20
0
30
0
70
128
71
225
72
305
73
252
0
VERTEX
8
FROND01
10
0
20
0
30
0
70
128
71
228
72
307
73
255
0
VERTEX
8
FROND01
10
0
20
0
30
0
70
128
71
231
72
309
73
258
0
VERTEX
8
FROND01
10
0
20
0
30
0
70
128
71
234
72
311
73
261
0
VERTEX
8
FROND01
10
0
20
0
30
0
70
128
71
237
72
313
73
264
0
VERTEX
8
FROND01
10
0
20
0
30
0
70
128
71
240
72
315
73
267
0
VERTEX
8
FROND01
10
0
20
0
30
0
70
128
71
243
72
317
73
270
0
VERTEX
8
FROND01
10
0
20
0
30
0
70
128
71
233
72
319
73
273
0
VERTEX
8
FROND01
10
0
20
0
30
0
70
128
71
242
72
320
73
276
0
VERTEX
8
FROND01
10
0
20
0
30
0
70
128
71
227
72
321
73
279
0
VERTEX
8
FROND01
10
0
20
0
30
0
70
128
71
236
72
322
73
282
0
VERTEX
8
FROND01
10
0
20
0
30
0
70
128
71
248
72
323
73
285
0
VERTEX
8
FROND01
10
0
20
0
30
0
70
128
71
227
72
250
73
321
0
VERTEX
8
FROND01
10
0
20
0
30
0
70
128
71
230
72
253
73
326
0
VERTEX
8
FROND01
10
0
20
0
30
0
70
128
71
233
72
256
73
319
0
VERTEX
8
FROND01
10
0
20
0
30
0
70
128
71
236
72
259
73
322
0
VERTEX
8
FROND01
10
0
20
0
30
0
70
128
71
239
72
262
73
330
0
VERTEX
8
FROND01
10
0
20
0
30
0
70
128
71
242
72
265
73
320
0
VERTEX
8
FROND01
10
0
20
0
30
0
70
128
71
245
72
268
73
333
0
VERTEX
8
FROND01
10
0
20
0
30
0
70
128
71
246
72
271
73
334
0
VERTEX
8
FROND01
10
0
20
0
30
0
70
128
71
247
72
274
73
335
0
VERTEX
8
FROND01
10
0
20
0
30
0
70
128
71
248
72
277
73
323
0
VERTEX
8
FROND01
10
0
20
0
30
0
70
128
71
249
72
280
73
304
0
VERTEX
8
FROND01
10
0
20
0
30
0
70
128
71
249
72
283
73
303
0
VERTEX
8
FROND01
10
0
20
0
30
0
70
128
71
250
72
227
73
251
0
VERTEX
8
FROND01
10
0
20
0
30
0
70
128
71
253
72
230
73
254
0
VERTEX
8
FROND01
10
0
20
0
30
0
70
128
71
256
72
233
73
257
0
VERTEX
8
FROND01
10
0
20
0
30
0
70
128
71
259
72
236
73
260
0
VERTEX
8
FROND01
10
0
20
0
30
0
70
128
71
262
72
239
73
263
0
VERTEX
8
FROND01
10
0
20
0
30
0
70
128
71
265
72
242
73
266
0
VERTEX
8
FROND01
10
0
20
0
30
0
70
128
71
268
72
245
73
269
0
VERTEX
8
FROND01
10
0
20
0
30
0
70
128
71
271
72
246
73
272
0
VERTEX
8
FROND01
10
0
20
0
30
0
70
128
71
274
72
247
73
275
0
VERTEX
8
FROND01
10
0
20
0
30
0
70
128
71
277
72
248
73
278
0
VERTEX
8
FROND01
10
0
20
0
30
0
70
128
71
280
72
249
73
281
0
VERTEX
8
FROND01
10
0
20
0
30
0
70
128
71
283
72
249
73
284
0
VERTEX
8
FROND01
10
0
20
0
30
0
70
128
71
286
72
225
73
251
0
VERTEX
8
FROND01
10
0
20
0
30
0
70
128
71
288
72
228
73
254
0
VERTEX
8
FROND01
10
0
20
0
30
0
70
128
71
290
72
231
73
257
0
VERTEX
8
FROND01
10
0
20
0
30
0
70
128
71
292
72
234
73
260
0
VERTEX
8
FROND01
10
0
20
0
30
0
70
128
71
294
72
237
73
263
0
VERTEX
8
FROND01
10
0
20
0
30
0
70
128
71
296
72
240
73
266
0
VERTEX
8
FROND01
10
0
20
0
30
0
70
128
71
298
72
243
73
269
0
VERTEX
8
FROND01
10
0
20
0
30
0
70
128
71
291
72
233
73
272
0
VERTEX
8
FROND01
10
0
20
0
30
0
70
128
71
297
72
242
73
275
0
VERTEX
8
FROND01
10
0
20
0
30
0
70
128
71
287
72
227
73
278
0
VERTEX
8
FROND01
10
0
20
0
30
0
70
128
71
293
72
236
73
281
0
VERTEX
8
FROND01
10
0
20
0
30
0
70
128
71
302
72
248
73
284
0
VERTEX
8
FROND01
10
0
20
0
30
0
70
128
71
305
72
212
73
306
0
VERTEX
8
FROND01
10
0
20
0
30
0
70
128
71
307
72
214
73
308
0
VERTEX
8
FROND01
10
0
20
0
30
0
70
128
71
309
72
216
73
310
0
VERTEX
8
FROND01
10
0
20
0
30
0
70
128
71
311
72
218
73
312
0
VERTEX
8
FROND01
10
0
20
0
30
0
70
128
71
313
72
220
73
314
0
VERTEX
8
FROND01
10
0
20
0
30
0
70
128
71
315
72
222
73
316
0
VERTEX
8
FROND01
10
0
20
0
30
0
70
128
71
317
72
224
73
318
0
VERTEX
8
FROND01
10
0
20
0
30
0
70
128
71
319
72
215
73
289
0
VERTEX
8
FROND01
10
0
20
0
30
0
70
128
71
320
72
221
73
295
0
VERTEX
8
FROND01
10
0
20
0
30
0
70
128
71
321
72
211
73
299
0
VERTEX
8
FROND01
10
0
20
0
30
0
70
128
71
322
72
217
73
300
0
VERTEX
8
FROND01
10
0
20
0
30
0
70
128
71
323
72
223
73
301
0
VERTEX
8
FROND01
10
0
20
0
30
0
70
128
71
250
72
226
73
324
0
VERTEX
8
FROND01
10
0
20
0
30
0
70
128
71
253
72
229
73
325
0
VERTEX
8
FROND01
10
0
20
0
30
0
70
128
71
256
72
232
73
327
0
VERTEX
8
FROND01
10
0
20
0
30
0
70
128
71
259
72
235
73
328
0
VERTEX
8
FROND01
10
0
20
0
30
0
70
128
71
262
72
238
73
329
0
VERTEX
8
FROND01
10
0
20
0
30
0
70
128
71
265
72
241
73
331
0
VERTEX
8
FROND01
10
0
20
0
30
0
70
128
71
268
72
244
73
332
0
VERTEX
8
FROND01
10
0
20
0
30
0
70
128
71
271
72
230
73
326
0
VERTEX
8
FROND01
10
0
20
0
30
0
70
128
71
274
72
239
73
330
0
VERTEX
8
FROND01
10
0
20
0
30
0
70
128
71
277
72
245
73
333
0
VERTEX
8
FROND01
10
0
20
0
30
0
70
128
71
280
72
246
73
334
0
VERTEX
8
FROND01
10
0
20
0
30
0
70
128
71
283
72
247
73
335
0
VERTEX
8
FROND01
10
0
20
0
30
0
70
128
71
252
72
251
73
225
0
VERTEX
8
FROND01
10
0
20
0
30
0
70
128
71
255
72
254
73
228
0
VERTEX
8
FROND01
10
0
20
0
30
0
70
128
71
258
72
257
73
231
0
VERTEX
8
FROND01
10
0
20
0
30
0
70
128
71
261
72
260
73
234
0
VERTEX
8
FROND01
10
0
20
0
30
0
70
128
71
264
72
263
73
237
0
VERTEX
8
FROND01
10
0
20
0
30
0
70
128
71
267
72
266
73
240
0
VERTEX
8
FROND01
10
0
20
0
30
0
70
128
71
270
72
269
73
243
0
VERTEX
8
FROND01
10
0
20
0
30
0
70
128
71
273
72
272
73
233
0
VERTEX
8
FROND01
10
0
20
0
30
0
70
128
71
276
72
275
73
242
0
VERTEX
8
FROND01
10
0
20
0
30
0
70
128
71
279
72
278
73
227
0
VERTEX
8
FROND01
10
0
20
0
30
0
70
128
71
282
72
281
73
236
0
VERTEX
8
FROND01
10
0
20
0
30
0
70
128
71
285
72
284
73
248
0
VERTEX
8
FROND01
10
0
20
0
30
0
70
128
71
287
72
251
73
227
0
VERTEX
8
FROND01
10
0
20
0
30
0
70
128
71
289
72
254
73
230
0
VERTEX
8
FROND01
10
0
20
0
30
0
70
128
71
291
72
257
73
233
0
VERTEX
8
FROND01
10
0
20
0
30
0
70
128
71
293
72
260
73
236
0
VERTEX
8
FROND01
10
0
20
0
30
0
70
128
71
295
72
263
73
239
0
VERTEX
8
FROND01
10
0
20
0
30
0
70
128
71
297
72
266
73
242
0
VERTEX
8
FROND01
10
0
20
0
30
0
70
128
71
299
72
269
73
245
0
VERTEX
8
FROND01
10
0
20
0
30
0
70
128
71
300
72
272
73
246
0
VERTEX
8
FROND01
10
0
20
0
30
0
70
128
71
301
72
275
73
247
0
VERTEX
8
FROND01
10
0
20
0
30
0
70
128
71
302
72
278
73
248
0
VERTEX
8
FROND01
10
0
20
0
30
0
70
128
71
303
72
281
73
249
0
VERTEX
8
FROND01
10
0
20
0
30
0
70
128
71
304
72
284
73
249
0
VERTEX
8
FROND01
10
0
20
0
30
0
70
128
71
252
72
306
73
226
0
VERTEX
8
FROND01
10
0
20
0
30
0
70
128
71
255
72
308
73
229
0
VERTEX
8
FROND01
10
0
20
0
30
0
70
128
71
258
72
310
73
232
0
VERTEX
8
FROND01
10
0
20
0
30
0
70
128
71
261
72
312
73
235
0
VERTEX
8
FROND01
10
0
20
0
30
0
70
128
71
264
72
314
73
238
0
VERTEX
8
FROND01
10
0
20
0
30
0
70
128
71
267
72
316
73
241
0
VERTEX
8
FROND01
10
0
20
0
30
0
70
128
71
270
72
318
73
244
0
VERTEX
8
FROND01
10
0
20
0
30
0
70
128
71
273
72
289
73
230
0
VERTEX
8
FROND01
10
0
20
0
30
0
70
128
71
276
72
295
73
239
0
VERTEX
8
FROND01
10
0
20
0
30
0
70
128
71
279
72
299
73
245
0
VERTEX
8
FROND01
10
0
20
0
30
0
70
128
71
282
72
300
73
246
0
VERTEX
8
FROND01
10
0
20
0
30
0
70
128
71
285
72
301
73
247
0
VERTEX
8
FROND01
10
0
20
0
30
0
70
128
71
321
72
324
73
211
0
VERTEX
8
FROND01
10
0
20
0
30
0
70
128
71
326
72
325
73
213
0
VERTEX
8
FROND01
10
0
20
0
30
0
70
128
71
319
72
327
73
215
0
VERTEX
8
FROND01
10
0
20
0
30
0
70
128
71
322
72
328
73
217
0
VERTEX
8
FROND01
10
0
20
0
30
0
70
128
71
330
72
329
73
219
0
VERTEX
8
FROND01
10
0
20
0
30
0
70
128
71
320
72
331
73
221
0
VERTEX
8
FROND01
10
0
20
0
30
0
70
128
71
333
72
332
73
223
0
VERTEX
8
FROND01
10
0
20
0
30
0
70
128
71
334
72
326
73
213
0
VERTEX
8
FROND01
10
0
20
0
30
0
70
128
71
335
72
330
73
219
0
VERTEX
8
FROND01
10
0
20
0
30
0
70
128
71
323
72
333
73
223
0
VERTEX
8
FROND01
10
0
20
0
30
0
70
128
71
304
72
334
73
213
0
VERTEX
8
FROND01
10
0
20
0
30
0
70
128
71
303
72
335
73
219
0
VERTEX
8
FROND01
10
0
20
0
30
0
70
128
71
376
72
377
73
375
0
VERTEX
8
FROND01
10
0
20
0
30
0
70
128
71
379
72
380
73
378
0
VERTEX
8
FROND01
10
0
20
0
30
0
70
128
71
382
72
383
73
381
0
VERTEX
8
FROND01
10
0
20
0
30
0
70
128
71
385
72
386
73
384
0
VERTEX
8
FROND01
10
0
20
0
30
0
70
128
71
388
72
389
73
387
0
VERTEX
8
FROND01
10
0
20
0
30
0
70
128
71
391
72
392
73
390
0
VERTEX
8
FROND01
10
0
20
0
30
0
70
128
71
394
72
395
73
393
0
VERTEX
8
FROND01
10
0
20
0
30
0
70
128
71
397
72
398
73
396
0
VERTEX
8
FROND01
10
0
20
0
30
0
70
128
71
400
72
401
73
399
0
VERTEX
8
FROND01
10
0
20
0
30
0
70
128
71
403
72
404
73
402
0
VERTEX
8
FROND01
10
0
20
0
30
0
70
128
71
406
72
407
73
405
0
VERTEX
8
FROND01
10
0
20
0
30
0
70
128
71
409
72
410
73
408
0
VERTEX
8
FROND01
10
0
20
0
30
0
70
128
71
376
72
412
73
411
0
VERTEX
8
FROND01
10
0
20
0
30
0
70
128
71
379
72
414
73
413
0
VERTEX
8
FROND01
10
0
20
0
30
0
70
128
71
382
72
416
73
415
0
VERTEX
8
FROND01
10
0
20
0
30
0
70
128
71
385
72
418
73
417
0
VERTEX
8
FROND01
10
0
20
0
30
0
70
128
71
388
72
420
73
419
0
VERTEX
8
FROND01
10
0
20
0
30
0
70
128
71
391
72
422
73
421
0
VERTEX
8
FROND01
10
0
20
0
30
0
70
128
71
394
72
424
73
423
0
VERTEX
8
FROND01
10
0
20
0
30
0
70
128
71
397
72
425
73
416
0
VERTEX
8
FROND01
10
0
20
0
30
0
70
128
71
400
72
426
73
422
0
VERTEX
8
FROND01
10
0
20
0
30
0
70
128
71
403
72
427
73
412
0
VERTEX
8
FROND01
10
0
20
0
30
0
70
128
71
406
72
428
73
418
0
VERTEX
8
FROND01
10
0
20
0
30
0
70
128
71
409
72
429
73
427
0
VERTEX
8
FROND01
10
0
20
0
30
0
70
128
71
431
72
377
73
430
0
VERTEX
8
FROND01
10
0
20
0
30
0
70
128
71
433
72
380
73
432
0
VERTEX
8
FROND01
10
0
20
0
30
0
70
128
71
435
72
383
73
434
0
VERTEX
8
FROND01
10
0
20
0
30
0
70
128
71
437
72
386
73
436
0
VERTEX
8
FROND01
10
0
20
0
30
0
70
128
71
439
72
389
73
438
0
VERTEX
8
FROND01
10
0
20
0
30
0
70
128
71
441
72
392
73
440
0
VERTEX
8
FROND01
10
0
20
0
30
0
70
128
71
443
72
395
73
442
0
VERTEX
8
FROND01
10
0
20
0
30
0
70
128
71
414
72
398
73
444
0
VERTEX
8
FROND01
10
0
20
0
30
0
70
128
71
420
72
401
73
445
0
VERTEX
8
FROND01
10
0
20
0
30
0
70
128
71
424
72
404
73
446
0
VERTEX
8
FROND01
10
0
20
0
30
0
70
128
71
425
72
407
73
447
0
VERTEX
8
FROND01
10
0
20
0
30
0
70
128
71
426
72
410
73
448
0
VERTEX
8
FROND01
10
0
20
0
30
0
70
128
71
449
72
446
73
375
0
VERTEX
8
FROND01
10
0
20
0
30
0
70
128
71
450
72
451
73
378
0
VERTEX
8
FROND01
10
0
20
0
30
0
70
128
71
452
72
444
73
381
0
VERTEX
8
FROND01
10
0
20
0
30
0
70
128
71
453
72
447
73
384
0
VERTEX
8
FROND01
10
0
20
0
30
0
70
128
71
454
72
455
73
387
0
VERTEX
8
FROND01
10
0
20
0
30
0
70
128
71
456
72
445
73
390
0
VERTEX
8
FROND01
10
0
20
0
30
0
70
128
71
457
72
458
73
393
0
VERTEX
8
FROND01
10
0
20
0
30
0
70
128
71
451
72
459
73
396
0
VERTEX
8
FROND01
10
0
20
0
30
0
70
128
71
455
72
460
73
399
0
VERTEX
8
FROND01
10
0
20
0
30
0
70
128
71
458
72
448
73
402
0
VERTEX
8
FROND01
10
0
20
0
30
0
70
128
71
459
72
429
73
405
0
VERTEX
8
FROND01
10
0
20
0
30
0
70
128
71
460
72
428
73
408
0
VERTEX
8
FROND01
10
0
20
0
30
0
70
128
71
351
72
375
73
377
0
VERTEX
8
FROND01
10
0
20
0
30
0
70
128
71
354
72
378
73
380
0
VERTEX
8
FROND01
10
0
20
0
30
0
70
128
71
357
72
381
73
383
0
VERTEX
8
FROND01
10
0
20
0
30
0
70
128
71
360
72
384
73
386
0
VERTEX
8
FROND01
10
0
20
0
30
0
70
128
71
363
72
387
73
389
0
VERTEX
8
FROND01
10
0
20
0
30
0
70
128
71
366
72
390
73
392
0
VERTEX
8
FROND01
10
0
20
0
30
0
70
128
71
369
72
393
73
395
0
VERTEX
8
FROND01
10
0
20
0
30
0
70
128
71
355
72
396
73
398
0
VERTEX
8
FROND01
10
0
20
0
30
0
70
128
71
364
72
399
73
401
0
VERTEX
8
FROND01
10
0
20
0
30
0
70
128
71
370
72
402
73
404
0
VERTEX
8
FROND01
10
0
20
0
30
0
70
128
71
371
72
405
73
407
0
VERTEX
8
FROND01
10
0
20
0
30
0
70
128
71
372
72
408
73
410
0
VERTEX
8
FROND01
10
0
20
0
30
0
70
128
71
338
72
411
73
412
0
VERTEX
8
FROND01
10
0
20
0
30
0
70
128
71
340
72
413
73
414
0
VERTEX
8
FROND01
10
0
20
0
30
0
70
128
71
342
72
415
73
416
0
VERTEX
8
FROND01
10
0
20
0
30
0
70
128
71
344
72
417
73
418
0
VERTEX
8
FROND01
10
0
20
0
30
0
70
128
71
346
72
419
73
420
0
VERTEX
8
FROND01
10
0
20
0
30
0
70
128
71
348
72
421
73
422
0
VERTEX
8
FROND01
10
0
20
0
30
0
70
128
71
336
72
423
73
424
0
VERTEX
8
FROND01
10
0
20
0
30
0
70
128
71
342
72
416
73
425
0
VERTEX
8
FROND01
10
0
20
0
30
0
70
128
71
348
72
422
73
426
0
VERTEX
8
FROND01
10
0
20
0
30
0
70
128
71
338
72
412
73
427
0
VERTEX
8
FROND01
10
0
20
0
30
0
70
128
71
344
72
418
73
428
0
VERTEX
8
FROND01
10
0
20
0
30
0
70
128
71
338
72
427
73
429
0
VERTEX
8
FROND01
10
0
20
0
30
0
70
128
71
350
72
430
73
377
0
VERTEX
8
FROND01
10
0
20
0
30
0
70
128
71
353
72
432
73
380
0
VERTEX
8
FROND01
10
0
20
0
30
0
70
128
71
356
72
434
73
383
0
VERTEX
8
FROND01
10
0
20
0
30
0
70
128
71
359
72
436
73
386
0
VERTEX
8
FROND01
10
0
20
0
30
0
70
128
71
362
72
438
73
389
0
VERTEX
8
FROND01
10
0
20
0
30
0
70
128
71
365
72
440
73
392
0
VERTEX
8
FROND01
10
0
20
0
30
0
70
128
71
368
72
442
73
395
0
VERTEX
8
FROND01
10
0
20
0
30
0
70
128
71
358
72
444
73
398
0
VERTEX
8
FROND01
10
0
20
0
30
0
70
128
71
367
72
445
73
401
0
VERTEX
8
FROND01
10
0
20
0
30
0
70
128
71
352
72
446
73
404
0
VERTEX
8
FROND01
10
0
20
0
30
0
70
128
71
361
72
447
73
407
0
VERTEX
8
FROND01
10
0
20
0
30
0
70
128
71
373
72
448
73
410
0
VERTEX
8
FROND01
10
0
20
0
30
0
70
128
71
352
72
375
73
446
0
VERTEX
8
FROND01
10
0
20
0
30
0
70
128
71
355
72
378
73
451
0
VERTEX
8
FROND01
10
0
20
0
30
0
70
128
71
358
72
381
73
444
0
VERTEX
8
FROND01
10
0
20
0
30
0
70
128
71
361
72
384
73
447
0
VERTEX
8
FROND01
10
0
20
0
30
0
70
128
71
364
72
387
73
455
0
VERTEX
8
FROND01
10
0
20
0
30
0
70
128
71
367
72
390
73
445
0
VERTEX
8
FROND01
10
0
20
0
30
0
70
128
71
370
72
393
73
458
0
VERTEX
8
FROND01
10
0
20
0
30
0
70
128
71
371
72
396
73
459
0
VERTEX
8
FROND01
10
0
20
0
30
0
70
128
71
372
72
399
73
460
0
VERTEX
8
FROND01
10
0
20
0
30
0
70
128
71
373
72
402
73
448
0
VERTEX
8
FROND01
10
0
20
0
30
0
70
128
71
374
72
405
73
429
0
VERTEX
8
FROND01
10
0
20
0
30
0
70
128
71
374
72
408
73
428
0
VERTEX
8
FROND01
10
0
20
0
30
0
70
128
71
375
72
352
73
376
0
VERTEX
8
FROND01
10
0
20
0
30
0
70
128
71
378
72
355
73
379
0
VERTEX
8
FROND01
10
0
20
0
30
0
70
128
71
381
72
358
73
382
0
VERTEX
8
FROND01
10
0
20
0
30
0
70
128
71
384
72
361
73
385
0
VERTEX
8
FROND01
10
0
20
0
30
0
70
128
71
387
72
364
73
388
0
VERTEX
8
FROND01
10
0
20
0
30
0
70
128
71
390
72
367
73
391
0
VERTEX
8
FROND01
10
0
20
0
30
0
70
128
71
393
72
370
73
394
0
VERTEX
8
FROND01
10
0
20
0
30
0
70
128
71
396
72
371
73
397
0
VERTEX
8
FROND01
10
0
20
0
30
0
70
128
71
399
72
372
73
400
0
VERTEX
8
FROND01
10
0
20
0
30
0
70
128
71
402
72
373
73
403
0
VERTEX
8
FROND01
10
0
20
0
30
0
70
128
71
405
72
374
73
406
0
VERTEX
8
FROND01
10
0
20
0
30
0
70
128
71
408
72
374
73
409
0
VERTEX
8
FROND01
10
0
20
0
30
0
70
128
71
411
72
350
73
376
0
VERTEX
8
FROND01
10
0
20
0
30
0
70
128
71
413
72
353
73
379
0
VERTEX
8
FROND01
10
0
20
0
30
0
70
128
71
415
72
356
73
382
0
VERTEX
8
FROND01
10
0
20
0
30
0
70
128
71
417
72
359
73
385
0
VERTEX
8
FROND01
10
0
20
0
30
0
70
128
71
419
72
362
73
388
0
VERTEX
8
FROND01
10
0
20
0
30
0
70
128
71
421
72
365
73
391
0
VERTEX
8
FROND01
10
0
20
0
30
0
70
128
71
423
72
368
73
394
0
VERTEX
8
FROND01
10
0
20
0
30
0
70
128
71
416
72
358
73
397
0
VERTEX
8
FROND01
10
0
20
0
30
0
70
128
71
422
72
367
73
400
0
VERTEX
8
FROND01
10
0
20
0
30
0
70
128
71
412
72
352
73
403
0
VERTEX
8
FROND01
10
0
20
0
30
0
70
128
71
418
72
361
73
406
0
VERTEX
8
FROND01
10
0
20
0
30
0
70
128
71
427
72
373
73
409
0
VERTEX
8
FROND01
10
0
20
0
30
0
70
128
71
430
72
337
73
431
0
VERTEX
8
FROND01
10
0
20
0
30
0
70
128
71
432
72
339
73
433
0
VERTEX
8
FROND01
10
0
20
0
30
0
70
128
71
434
72
341
73
435
0
VERTEX
8
FROND01
10
0
20
0
30
0
70
128
71
436
72
343
73
437
0
VERTEX
8
FROND01
10
0
20
0
30
0
70
128
71
438
72
345
73
439
0
VERTEX
8
FROND01
10
0
20
0
30
0
70
128
71
440
72
347
73
441
0
VERTEX
8
FROND01
10
0
20
0
30
0
70
128
71
442
72
349
73
443
0
VERTEX
8
FROND01
10
0
20
0
30
0
70
128
71
444
72
340
73
414
0
VERTEX
8
FROND01
10
0
20
0
30
0
70
128
71
445
72
346
73
420
0
VERTEX
8
FROND01
10
0
20
0
30
0
70
128
71
446
72
336
73
424
0
VERTEX
8
FROND01
10
0
20
0
30
0
70
128
71
447
72
342
73
425
0
VERTEX
8
FROND01
10
0
20
0
30
0
70
128
71
448
72
348
73
426
0
VERTEX
8
FROND01
10
0
20
0
30
0
70
128
71
375
72
351
73
449
0
VERTEX
8
FROND01
10
0
20
0
30
0
70
128
71
378
72
354
73
450
0
VERTEX
8
FROND01
10
0
20
0
30
0
70
128
71
381
72
357
73
452
0
VERTEX
8
FROND01
10
0
20
0
30
0
70
128
71
384
72
360
73
453
0
VERTEX
8
FROND01
10
0
20
0
30
0
70
128
71
387
72
363
73
454
0
VERTEX
8
FROND01
10
0
20
0
30
0
70
128
71
390
72
366
73
456
0
VERTEX
8
FROND01
10
0
20
0
30
0
70
128
71
393
72
369
73
457
0
VERTEX
8
FROND01
10
0
20
0
30
0
70
128
71
396
72
355
73
451
0
VERTEX
8
FROND01
10
0
20
0
30
0
70
128
71
399
72
364
73
455
0
VERTEX
8
FROND01
10
0
20
0
30
0
70
128
71
402
72
370
73
458
0
VERTEX
8
FROND01
10
0
20
0
30
0
70
128
71
405
72
371
73
459
0
VERTEX
8
FROND01
10
0
20
0
30
0
70
128
71
408
72
372
73
460
0
VERTEX
8
FROND01
10
0
20
0
30
0
70
128
71
377
72
376
73
350
0
VERTEX
8
FROND01
10
0
20
0
30
0
70
128
71
380
72
379
73
353
0
VERTEX
8
FROND01
10
0
20
0
30
0
70
128
71
383
72
382
73
356
0
VERTEX
8
FROND01
10
0
20
0
30
0
70
128
71
386
72
385
73
359
0
VERTEX
8
FROND01
10
0
20
0
30
0
70
128
71
389
72
388
73
362
0
VERTEX
8
FROND01
10
0
20
0
30
0
70
128
71
392
72
391
73
365
0
VERTEX
8
FROND01
10
0
20
0
30
0
70
128
71
395
72
394
73
368
0
VERTEX
8
FROND01
10
0
20
0
30
0
70
128
71
398
72
397
73
358
0
VERTEX
8
FROND01
10
0
20
0
30
0
70
128
71
401
72
400
73
367
0
VERTEX
8
FROND01
10
0
20
0
30
0
70
128
71
404
72
403
73
352
0
VERTEX
8
FROND01
10
0
20
0
30
0
70
128
71
407
72
406
73
361
0
VERTEX
8
FROND01
10
0
20
0
30
0
70
128
71
410
72
409
73
373
0
VERTEX
8
FROND01
10
0
20
0
30
0
70
128
71
412
72
376
73
352
0
VERTEX
8
FROND01
10
0
20
0
30
0
70
128
71
414
72
379
73
355
0
VERTEX
8
FROND01
10
0
20
0
30
0
70
128
71
416
72
382
73
358
0
VERTEX
8
FROND01
10
0
20
0
30
0
70
128
71
418
72
385
73
361
0
VERTEX
8
FROND01
10
0
20
0
30
0
70
128
71
420
72
388
73
364
0
VERTEX
8
FROND01
10
0
20
0
30
0
70
128
71
422
72
391
73
367
0
VERTEX
8
FROND01
10
0
20
0
30
0
70
128
71
424
72
394
73
370
0
VERTEX
8
FROND01
10
0
20
0
30
0
70
128
71
425
72
397
73
371
0
VERTEX
8
FROND01
10
0
20
0
30
0
70
128
71
426
72
400
73
372
0
VERTEX
8
FROND01
10
0
20
0
30
0
70
128
71
427
72
403
73
373
0
VERTEX
8
FROND01
10
0
20
0
30
0
70
128
71
428
72
406
73
374
0
VERTEX
8
FROND01
10
0
20
0
30
0
70
128
71
429
72
409
73
374
0
VERTEX
8
FROND01
10
0
20
0
30
0
70
128
71
377
72
431
73
351
0
VERTEX
8
FROND01
10
0
20
0
30
0
70
128
71
380
72
433
73
354
0
VERTEX
8
FROND01
10
0
20
0
30
0
70
128
71
383
72
435
73
357
0
VERTEX
8
FROND01
10
0
20
0
30
0
70
128
71
386
72
437
73
360
0
VERTEX
8
FROND01
10
0
20
0
30
0
70
128
71
389
72
439
73
363
0
VERTEX
8
FROND01
10
0
20
0
30
0
70
128
71
392
72
441
73
366
0
VERTEX
8
FROND01
10
0
20
0
30
0
70
128
71
395
72
443
73
369
0
VERTEX
8
FROND01
10
0
20
0
30
0
70
128
71
398
72
414
73
355
0
VERTEX
8
FROND01
10
0
20
0
30
0
70
128
71
401
72
420
73
364
0
VERTEX
8
FROND01
10
0
20
0
30
0
70
128
71
404
72
424
73
370
0
VERTEX
8
FROND01
10
0
20
0
30
0
70
128
71
407
72
425
73
371
0
VERTEX
8
FROND01
10
0
20
0
30
0
70
128
71
410
72
426
73
372
0
VERTEX
8
FROND01
10
0
20
0
30
0
70
128
71
446
72
449
73
336
0
VERTEX
8
FROND01
10
0
20
0
30
0
70
128
71
451
72
450
73
338
0
VERTEX
8
FROND01
10
0
20
0
30
0
70
128
71
444
72
452
73
340
0
VERTEX
8
FROND01
10
0
20
0
30
0
70
128
71
447
72
453
73
342
0
VERTEX
8
FROND01
10
0
20
0
30
0
70
128
71
455
72
454
73
344
0
VERTEX
8
FROND01
10
0
20
0
30
0
70
128
71
445
72
456
73
346
0
VERTEX
8
FROND01
10
0
20
0
30
0
70
128
71
458
72
457
73
348
0
VERTEX
8
FROND01
10
0
20
0
30
0
70
128
71
459
72
451
73
338
0
VERTEX
8
FROND01
10
0
20
0
30
0
70
128
71
460
72
455
73
344
0
VERTEX
8
FROND01
10
0
20
0
30
0
70
128
71
448
72
458
73
348
0
VERTEX
8
FROND01
10
0
20
0
30
0
70
128
71
429
72
459
73
338
0
VERTEX
8
FROND01
10
0
20
0
30
0
70
128
71
428
72
460
73
344
0
VERTEX
8
FROND01
10
0
20
0
30
0
70
128
71
501
72
502
73
500
0
VERTEX
8
FROND01
10
0
20
0
30
0
70
128
71
504
72
505
73
503
0
VERTEX
8
FROND01
10
0
20
0
30
0
70
128
71
507
72
508
73
506
0
VERTEX
8
FROND01
10
0
20
0
30
0
70
128
71
510
72
511
73
509
0
VERTEX
8
FROND01
10
0
20
0
30
0
70
128
71
513
72
514
73
512
0
VERTEX
8
FROND01
10
0
20
0
30
0
70
128
71
516
72
517
73
515
0
VERTEX
8
FROND01
10
0
20
0
30
0
70
128
71
519
72
520
73
518
0
VERTEX
8
FROND01
10
0
20
0
30
0
70
128
71
522
72
523
73
521
0
VERTEX
8
FROND01
10
0
20
0
30
0
70
128
71
525
72
526
73
524
0
VERTEX
8
FROND01
10
0
20
0
30
0
70
128
71
528
72
529
73
527
0
VERTEX
8
FROND01
10
0
20
0
30
0
70
128
71
531
72
532
73
530
0
VERTEX
8
FROND01
10
0
20
0
30
0
70
128
71
534
72
535
73
533
0
VERTEX
8
FROND01
10
0
20
0
30
0
70
128
71
501
72
537
73
536
0
VERTEX
8
FROND01
10
0
20
0
30
0
70
128
71
504
72
539
73
538
0
VERTEX
8
FROND01
10
0
20
0
30
0
70
128
71
507
72
541
73
540
0
VERTEX
8
FROND01
10
0
20
0
30
0
70
128
71
510
72
543
73
542
0
VERTEX
8
FROND01
10
0
20
0
30
0
70
128
71
513
72
545
73
544
0
VERTEX
8
FROND01
10
0
20
0
30
0
70
128
71
516
72
547
73
546
0
VERTEX
8
FROND01
10
0
20
0
30
0
70
128
71
519
72
549
73
548
0
VERTEX
8
FROND01
10
0
20
0
30
0
70
128
71
522
72
550
73
541
0
VERTEX
8
FROND01
10
0
20
0
30
0
70
128
71
525
72
551
73
547
0
VERTEX
8
FROND01
10
0
20
0
30
0
70
128
71
528
72
552
73
537
0
VERTEX
8
FROND01
10
0
20
0
30
0
70
128
71
531
72
553
73
543
0
VERTEX
8
FROND01
10
0
20
0
30
0
70
128
71
534
72
554
73
552
0
VERTEX
8
FROND01
10
0
20
0
30
0
70
128
71
556
72
502
73
555
0
VERTEX
8
FROND01
10
0
20
0
30
0
70
128
71
558
72
505
73
557
0
VERTEX
8
FROND01
10
0
20
0
30
0
70
128
71
560
72
508
73
559
0
VERTEX
8
FROND01
10
0
20
0
30
0
70
128
71
562
72
511
73
561
0
VERTEX
8
FROND01
10
0
20
0
30
0
70
128
71
564
72
514
73
563
0
VERTEX
8
FROND01
10
0
20
0
30
0
70
128
71
566
72
517
73
565
0
VERTEX
8
FROND01
10
0
20
0
30
0
70
128
71
568
72
520
73
567
0
VERTEX
8
FROND01
10
0
20
0
30
0
70
128
71
539
72
523
73
569
0
VERTEX
8
FROND01
10
0
20
0
30
0
70
128
71
545
72
526
73
570
0
VERTEX
8
FROND01
10
0
20
0
30
0
70
128
71
549
72
529
73
571
0
VERTEX
8
FROND01
10
0
20
0
30
0
70
128
71
550
72
532
73
572
0
VERTEX
8
FROND01
10
0
20
0
30
0
70
128
71
551
72
535
73
573
0
VERTEX
8
FROND01
10
0
20
0
30
0
70
128
71
574
72
571
73
500
0
VERTEX
8
FROND01
10
0
20
0
30
0
70
128
71
575
72
576
73
503
0
VERTEX
8
FROND01
10
0
20
0
30
0
70
128
71
577
72
569
73
506
0
VERTEX
8
FROND01
10
0
20
0
30
0
70
128
71
578
72
572
73
509
0
VERTEX
8
FROND01
10
0
20
0
30
0
70
128
71
579
72
580
73
512
0
VERTEX
8
FROND01
10
0
20
0
30
0
70
128
71
581
72
570
73
515
0
VERTEX
8
FROND01
10
0
20
0
30
0
70
128
71
582
72
583
73
518
0
VERTEX
8
FROND01
10
0
20
0
30
0
70
128
71
576
72
584
73
521
0
VERTEX
8
FROND01
10
0
20
0
30
0
70
128
71
580
72
585
73
524
0
VERTEX
8
FROND01
10
0
20
0
30
0
70
128
71
583
72
573
73
527
0
VERTEX
8
FROND01
10
0
20
0
30
0
70
128
71
584
72
554
73
530
0
VERTEX
8
FROND01
10
0
20
0
30
0
70
128
71
585
72
553
73
533
0
VERTEX
8
FROND01
10
0
20
0
30
0
70
128
71
476
72
500
73
502
0
VERTEX
8
FROND01
10
0
20
0
30
0
70
128
71
479
72
503
73
505
0
VERTEX
8
FROND01
10
0
20
0
30
0
70
128
71
482
72
506
73
508
0
VERTEX
8
FROND01
10
0
20
0
30
0
70
128
71
485
72
509
73
511
0
VERTEX
8
FROND01
10
0
20
0
30
0
70
128
71
488
72
512
73
514
0
VERTEX
8
FROND01
10
0
20
0
30
0
70
128
71
491
72
515
73
517
0
VERTEX
8
FROND01
10
0
20
0
30
0
70
128
71
494
72
518
73
520
0
VERTEX
8
FROND01
10
0
20
0
30
0
70
128
71
480
72
521
73
523
0
VERTEX
8
FROND01
10
0
20
0
30
0
70
128
71
489
72
524
73
526
0
VERTEX
8
FROND01
10
0
20
0
30
0
70
128
71
495
72
527
73
529
0
VERTEX
8
FROND01
10
0
20
0
30
0
70
128
71
496
72
530
73
532
0
VERTEX
8
FROND01
10
0
20
0
30
0
70
128
71
497
72
533
73
535
0
VERTEX
8
FROND01
10
0
20
0
30
0
70
128
71
463
72
536
73
537
0
VERTEX
8
FROND01
10
0
20
0
30
0
70
128
71
465
72
538
73
539
0
VERTEX
8
FROND01
10
0
20
0
30
0
70
128
71
467
72
540
73
541
0
VERTEX
8
FROND01
10
0
20
0
30
0
70
128
71
469
72
542
73
543
0
VERTEX
8
FROND01
10
0
20
0
30
0
70
128
71
471
72
544
73
545
0
VERTEX
8
FROND01
10
0
20
0
30
0
70
128
71
473
72
546
73
547
0
VERTEX
8
FROND01
10
0
20
0
30
0
70
128
71
461
72
548
73
549
0
VERTEX
8
FROND01
10
0
20
0
30
0
70
128
71
467
72
541
73
550
0
VERTEX
8
FROND01
10
0
20
0
30
0
70
128
71
473
72
547
73
551
0
VERTEX
8
FROND01
10
0
20
0
30
0
70
128
71
463
72
537
73
552
0
VERTEX
8
FROND01
10
0
20
0
30
0
70
128
71
469
72
543
73
553
0
VERTEX
8
FROND01
10
0
20
0
30
0
70
128
71
463
72
552
73
554
0
VERTEX
8
FROND01
10
0
20
0
30
0
70
128
71
475
72
555
73
502
0
VERTEX
8
FROND01
10
0
20
0
30
0
70
128
71
478
72
557
73
505
0
VERTEX
8
FROND01
10
0
20
0
30
0
70
128
71
481
72
559
73
508
0
VERTEX
8
FROND01
10
0
20
0
30
0
70
128
71
484
72
561
73
511
0
VERTEX
8
FROND01
10
0
20
0
30
0
70
128
71
487
72
563
73
514
0
VERTEX
8
FROND01
10
0
20
0
30
0
70
128
71
490
72
565
73
517
0
VERTEX
8
FROND01
10
0
20
0
30
0
70
128
71
493
72
567
73
520
0
VERTEX
8
FROND01
10
0
20
0
30
0
70
128
71
483
72
569
73
523
0
VERTEX
8
FROND01
10
0
20
0
30
0
70
128
71
492
72
570
73
526
0
VERTEX
8
FROND01
10
0
20
0
30
0
70
128
71
477
72
571
73
529
0
VERTEX
8
FROND01
10
0
20
0
30
0
70
128
71
486
72
572
73
532
0
VERTEX
8
FROND01
10
0
20
0
30
0
70
128
71
498
72
573
73
535
0
VERTEX
8
FROND01
10
0
20
0
30
0
70
128
71
477
72
500
73
571
0
VERTEX
8
FROND01
10
0
20
0
30
0
70
128
71
480
72
503
73
576
0
VERTEX
8
FROND01
10
0
20
0
30
0
70
128
71
483
72
506
73
569
0
VERTEX
8
FROND01
10
0
20
0
30
0
70
128
71
486
72
509
73
572
0
VERTEX
8
FROND01
10
0
20
0
30
0
70
128
71
489
72
512
73
580
0
VERTEX
8
FROND01
10
0
20
0
30
0
70
128
71
492
72
515
73
570
0
VERTEX
8
FROND01
10
0
20
0
30
0
70
128
71
495
72
518
73
583
0
VERTEX
8
FROND01
10
0
20
0
30
0
70
128
71
496
72
521
73
584
0
VERTEX
8
FROND01
10
0
20
0
30
0
70
128
71
497
72
524
73
585
0
VERTEX
8
FROND01
10
0
20
0
30
0
70
128
71
498
72
527
73
573
0
VERTEX
8
FROND01
10
0
20
0
30
0
70
128
71
499
72
530
73
554
0
VERTEX
8
FROND01
10
0
20
0
30
0
70
128
71
499
72
533
73
553
0
VERTEX
8
FROND01
10
0
20
0
30
0
70
128
71
500
72
477
73
501
0
VERTEX
8
FROND01
10
0
20
0
30
0
70
128
71
503
72
480
73
504
0
VERTEX
8
FROND01
10
0
20
0
30
0
70
128
71
506
72
483
73
507
0
VERTEX
8
FROND01
10
0
20
0
30
0
70
128
71
509
72
486
73
510
0
VERTEX
8
FROND01
10
0
20
0
30
0
70
128
71
512
72
489
73
513
0
VERTEX
8
FROND01
10
0
20
0
30
0
70
128
71
515
72
492
73
516
0
VERTEX
8
FROND01
10
0
20
0
30
0
70
128
71
518
72
495
73
519
0
VERTEX
8
FROND01
10
0
20
0
30
0
70
128
71
521
72
496
73
522
0
VERTEX
8
FROND01
10
0
20
0
30
0
70
128
71
524
72
497
73
525
0
VERTEX
8
FROND01
10
0
20
0
30
0
70
128
71
527
72
498
73
528
0
VERTEX
8
FROND01
10
0
20
0
30
0
70
128
71
530
72
499
73
531
0
VERTEX
8
FROND01
10
0
20
0
30
0
70
128
71
533
72
499
73
534
0
VERTEX
8
FROND01
10
0
20
0
30
0
70
128
71
536
72
475
73
501
0
VERTEX
8
FROND01
10
0
20
0
30
0
70
128
71
538
72
478
73
504
0
VERTEX
8
FROND01
10
0
20
0
30
0
70
128
71
540
72
481
73
507
0
VERTEX
8
FROND01
10
0
20
0
30
0
70
128
71
542
72
484
73
510
0
VERTEX
8
FROND01
10
0
20
0
30
0
70
128
71
544
72
487
73
513
0
VERTEX
8
FROND01
10
0
20
0
30
0
70
128
71
546
72
490
73
516
0
VERTEX
8
FROND01
10
0
20
0
30
0
70
128
71
548
72
493
73
519
0
VERTEX
8
FROND01
10
0
20
0
30
0
70
128
71
541
72
483
73
522
0
VERTEX
8
FROND01
10
0
20
0
30
0
70
128
71
547
72
492
73
525
0
VERTEX
8
FROND01
10
0
20
0
30
0
70
128
71
537
72
477
73
528
0
VERTEX
8
FROND01
10
0
20
0
30
0
70
128
71
543
72
486
73
531
0
VERTEX
8
FROND01
10
0
20
0
30
0
70
128
71
552
72
498
73
534
0
VERTEX
8
FROND01
10
0
20
0
30
0
70
128
71
555
72
462
73
556
0
VERTEX
8
FROND01
10
0
20
0
30
0
70
128
71
557
72
464
73
558
0
VERTEX
8
FROND01
10
0
20
0
30
0
70
128
71
559
72
466
73
560
0
VERTEX
8
FROND01
10
0
20
0
30
0
70
128
71
561
72
468
73
562
0
VERTEX
8
FROND01
10
0
20
0
30
0
70
128
71
563
72
470
73
564
0
VERTEX
8
FROND01
10
0
20
0
30
0
70
128
71
565
72
472
73
566
0
VERTEX
8
FROND01
10
0
20
0
30
0
70
128
71
567
72
474
73
568
0
VERTEX
8
FROND01
10
0
20
0
30
0
70
128
71
569
72
465
73
539
0
VERTEX
8
FROND01
10
0
20
0
30
0
70
128
71
570
72
471
73
545
0
VERTEX
8
FROND01
10
0
20
0
30
0
70
128
71
571
72
461
73
549
0
VERTEX
8
FROND01
10
0
20
0
30
0
70
128
71
572
72
467
73
550
0
VERTEX
8
FROND01
10
0
20
0
30
0
70
128
71
573
72
473
73
551
0
VERTEX
8
FROND01
10
0
20
0
30
0
70
128
71
500
72
476
73
574
0
VERTEX
8
FROND01
10
0
20
0
30
0
70
128
71
503
72
479
73
575
0
VERTEX
8
FROND01
10
0
20
0
30
0
70
128
71
506
72
482
73
577
0
VERTEX
8
FROND01
10
0
20
0
30
0
70
128
71
509
72
485
73
578
0
VERTEX
8
FROND01
10
0
20
0
30
0
70
128
71
512
72
488
73
579
0
VERTEX
8
FROND01
10
0
20
0
30
0
70
128
71
515
72
491
73
581
0
VERTEX
8
FROND01
10
0
20
0
30
0
70
128
71
518
72
494
73
582
0
VERTEX
8
FROND01
10
0
20
0
30
0
70
128
71
521
72
480
73
576
0
VERTEX
8
FROND01
10
0
20
0
30
0
70
128
71
524
72
489
73
580
0
VERTEX
8
FROND01
10
0
20
0
30
0
70
128
71
527
72
495
73
583
0
VERTEX
8
FROND01
10
0
20
0
30
0
70
128
71
530
72
496
73
584
0
VERTEX
8
FROND01
10
0
20
0
30
0
70
128
71
533
72
497
73
585
0
VERTEX
8
FROND01
10
0
20
0
30
0
70
128
71
502
72
501
73
475
0
VERTEX
8
FROND01
10
0
20
0
30
0
70
128
71
505
72
504
73
478
0
VERTEX
8
FROND01
10
0
20
0
30
0
70
128
71
508
72
507
73
481
0
VERTEX
8
FROND01
10
0
20
0
30
0
70
128
71
511
72
510
73
484
0
VERTEX
8
FROND01
10
0
20
0
30
0
70
128
71
514
72
513
73
487
0
VERTEX
8
FROND01
10
0
20
0
30
0
70
128
71
517
72
516
73
490
0
VERTEX
8
FROND01
10
0
20
0
30
0
70
128
71
520
72
519
73
493
0
VERTEX
8
FROND01
10
0
20
0
30
0
70
128
71
523
72
522
73
483
0
VERTEX
8
FROND01
10
0
20
0
30
0
70
128
71
526
72
525
73
492
0
VERTEX
8
FROND01
10
0
20
0
30
0
70
128
71
529
72
528
73
477
0
VERTEX
8
FROND01
10
0
20
0
30
0
70
128
71
532
72
531
73
486
0
VERTEX
8
FROND01
10
0
20
0
30
0
70
128
71
535
72
534
73
498
0
VERTEX
8
FROND01
10
0
20
0
30
0
70
128
71
537
72
501
73
477
0
VERTEX
8
FROND01
10
0
20
0
30
0
70
128
71
539
72
504
73
480
0
VERTEX
8
FROND01
10
0
20
0
30
0
70
128
71
541
72
507
73
483
0
VERTEX
8
FROND01
10
0
20
0
30
0
70
128
71
543
72
510
73
486
0
VERTEX
8
FROND01
10
0
20
0
30
0
70
128
71
545
72
513
73
489
0
VERTEX
8
FROND01
10
0
20
0
30
0
70
128
71
547
72
516
73
492
0
VERTEX
8
FROND01
10
0
20
0
30
0
70
128
71
549
72
519
73
495
0
VERTEX
8
FROND01
10
0
20
0
30
0
70
128
71
550
72
522
73
496
0
VERTEX
8
FROND01
10
0
20
0
30
0
70
128
71
551
72
525
73
497
0
VERTEX
8
FROND01
10
0
20
0
30
0
70
128
71
552
72
528
73
498
0
VERTEX
8
FROND01
10
0
20
0
30
0
70
128
71
553
72
531
73
499
0
VERTEX
8
FROND01
10
0
20
0
30
0
70
128
71
554
72
534
73
499
0
VERTEX
8
FROND01
10
0
20
0
30
0
70
128
71
502
72
556
73
476
0
VERTEX
8
FROND01
10
0
20
0
30
0
70
128
71
505
72
558
73
479
0
VERTEX
8
FROND01
10
0
20
0
30
0
70
128
71
508
72
560
73
482
0
VERTEX
8
FROND01
10
0
20
0
30
0
70
128
71
511
72
562
73
485
0
VERTEX
8
FROND01
10
0
20
0
30
0
70
128
71
514
72
564
73
488
0
VERTEX
8
FROND01
10
0
20
0
30
0
70
128
71
517
72
566
73
491
0
VERTEX
8
FROND01
10
0
20
0
30
0
70
128
71
520
72
568
73
494
0
VERTEX
8
FROND01
10
0
20
0
30
0
70
128
71
523
72
539
73
480
0
VERTEX
8
FROND01
10
0
20
0
30
0
70
128
71
526
72
545
73
489
0
VERTEX
8
FROND01
10
0
20
0
30
0
70
128
71
529
72
549
73
495
0
VERTEX
8
FROND01
10
0
20
0
30
0
70
128
71
532
72
550
73
496
0
VERTEX
8
FROND01
10
0
20
0
30
0
70
128
71
535
72
551
73
497
0
VERTEX
8
FROND01
10
0
20
0
30
0
70
128
71
571
72
574
73
461
0
VERTEX
8
FROND01
10
0
20
0
30
0
70
128
71
576
72
575
73
463
0
VERTEX
8
FROND01
10
0
20
0
30
0
70
128
71
569
72
577
73
465
0
VERTEX
8
FROND01
10
0
20
0
30
0
70
128
71
572
72
578
73
467
0
VERTEX
8
FROND01
10
0
20
0
30
0
70
128
71
580
72
579
73
469
0
VERTEX
8
FROND01
10
0
20
0
30
0
70
128
71
570
72
581
73
471
0
VERTEX
8
FROND01
10
0
20
0
30
0
70
128
71
583
72
582
73
473
0
VERTEX
8
FROND01
10
0
20
0
30
0
70
128
71
584
72
576
73
463
0
VERTEX
8
FROND01
10
0
20
0
30
0
70
128
71
585
72
580
73
469
0
VERTEX
8
FROND01
10
0
20
0
30
0
70
128
71
573
72
583
73
473
0
VERTEX
8
FROND01
10
0
20
0
30
0
70
128
71
554
72
584
73
463
0
VERTEX
8
FROND01
10
0
20
0
30
0
70
128
71
553
72
585
73
469
0
VERTEX
8
FROND01
10
0
20
0
30
0
70
128
71
626
72
627
73
625
0
VERTEX
8
FROND01
10
0
20
0
30
0
70
128
71
629
72
630
73
628
0
VERTEX
8
FROND01
10
0
20
0
30
0
70
128
71
632
72
633
73
631
0
VERTEX
8
FROND01
10
0
20
0
30
0
70
128
71
635
72
636
73
634
0
VERTEX
8
FROND01
10
0
20
0
30
0
70
128
71
638
72
639
73
637
0
VERTEX
8
FROND01
10
0
20
0
30
0
70
128
71
641
72
642
73
640
0
VERTEX
8
FROND01
10
0
20
0
30
0
70
128
71
644
72
645
73
643
0
VERTEX
8
FROND01
10
0
20
0
30
0
70
128
71
647
72
648
73
646
0
VERTEX
8
FROND01
10
0
20
0
30
0
70
128
71
650
72
651
73
649
0
VERTEX
8
FROND01
10
0
20
0
30
0
70
128
71
653
72
654
73
652
0
VERTEX
8
FROND01
10
0
20
0
30
0
70
128
71
656
72
657
73
655
0
VERTEX
8
FROND01
10
0
20
0
30
0
70
128
71
659
72
660
73
658
0
VERTEX
8
FROND01
10
0
20
0
30
0
70
128
71
626
72
662
73
661
0
VERTEX
8
FROND01
10
0
20
0
30
0
70
128
71
629
72
664
73
663
0
VERTEX
8
FROND01
10
0
20
0
30
0
70
128
71
632
72
666
73
665
0
VERTEX
8
FROND01
10
0
20
0
30
0
70
128
71
635
72
668
73
667
0
VERTEX
8
FROND01
10
0
20
0
30
0
70
128
71
638
72
670
73
669
0
VERTEX
8
FROND01
10
0
20
0
30
0
70
128
71
641
72
672
73
671
0
VERTEX
8
FROND01
10
0
20
0
30
0
70
128
71
644
72
674
73
673
0
VERTEX
8
FROND01
10
0
20
0
30
0
70
128
71
647
72
675
73
666
0
VERTEX
8
FROND01
10
0
20
0
30
0
70
128
71
650
72
676
73
672
0
VERTEX
8
FROND01
10
0
20
0
30
0
70
128
71
653
72
677
73
662
0
VERTEX
8
FROND01
10
0
20
0
30
0
70
128
71
656
72
678
73
668
0
VERTEX
8
FROND01
10
0
20
0
30
0
70
128
71
659
72
679
73
677
0
VERTEX
8
FROND01
10
0
20
0
30
0
70
128
71
681
72
627
73
680
0
VERTEX
8
FROND01
10
0
20
0
30
0
70
128
71
683
72
630
73
682
0
VERTEX
8
FROND01
10
0
20
0
30
0
70
128
71
685
72
633
73
684
0
VERTEX
8
FROND01
10
0
20
0
30
0
70
128
71
687
72
636
73
686
0
VERTEX
8
FROND01
10
0
20
0
30
0
70
128
71
689
72
639
73
688
0
VERTEX
8
FROND01
10
0
20
0
30
0
70
128
71
691
72
642
73
690
0
VERTEX
8
FROND01
10
0
20
0
30
0
70
128
71
693
72
645
73
692
0
VERTEX
8
FROND01
10
0
20
0
30
0
70
128
71
664
72
648
73
694
0
VERTEX
8
FROND01
10
0
20
0
30
0
70
128
71
670
72
651
73
695
0
VERTEX
8
FROND01
10
0
20
0
30
0
70
128
71
674
72
654
73
696
0
VERTEX
8
FROND01
10
0
20
0
30
0
70
128
71
675
72
657
73
697
0
VERTEX
8
FROND01
10
0
20
0
30
0
70
128
71
676
72
660
73
698
0
VERTEX
8
FROND01
10
0
20
0
30
0
70
128
71
699
72
696
73
625
0
VERTEX
8
FROND01
10
0
20
0
30
0
70
128
71
700
72
701
73
628
0
VERTEX
8
FROND01
10
0
20
0
30
0
70
128
71
702
72
694
73
631
0
VERTEX
8
FROND01
10
0
20
0
30
0
70
128
71
703
72
697
73
634
0
VERTEX
8
FROND01
10
0
20
0
30
0
70
128
71
704
72
705
73
637
0
VERTEX
8
FROND01
10
0
20
0
30
0
70
128
71
706
72
695
73
640
0
VERTEX
8
FROND01
10
0
20
0
30
0
70
128
71
707
72
708
73
643
0
VERTEX
8
FROND01
10
0
20
0
30
0
70
128
71
701
72
709
73
646
0
VERTEX
8
FROND01
10
0
20
0
30
0
70
128
71
705
72
710
73
649
0
VERTEX
8
FROND01
10
0
20
0
30
0
70
128
71
708
72
698
73
652
0
VERTEX
8
FROND01
10
0
20
0
30
0
70
128
71
709
72
679
73
655
0
VERTEX
8
FROND01
10
0
20
0
30
0
70
128
71
710
72
678
73
658
0
VERTEX
8
FROND01
10
0
20
0
30
0
70
128
71
601
72
625
73
627
0
VERTEX
8
FROND01
10
0
20
0
30
0
70
128
71
604
72
628
73
630
0
VERTEX
8
FROND01
10
0
20
0
30
0
70
128
71
607
72
631
73
633
0
VERTEX
8
FROND01
10
0
20
0
30
0
70
128
71
610
72
634
73
636
0
VERTEX
8
FROND01
10
0
20
0
30
0
70
128
71
613
72
637
73
639
0
VERTEX
8
FROND01
10
0
20
0
30
0
70
128
71
616
72
640
73
642
0
VERTEX
8
FROND01
10
0
20
0
30
0
70
128
71
619
72
643
73
645
0
VERTEX
8
FROND01
10
0
20
0
30
0
70
128
71
605
72
646
73
648
0
VERTEX
8
FROND01
10
0
20
0
30
0
70
128
71
614
72
649
73
651
0
VERTEX
8
FROND01
10
0
20
0
30
0
70
128
71
620
72
652
73
654
0
VERTEX
8
FROND01
10
0
20
0
30
0
70
128
71
621
72
655
73
657
0
VERTEX
8
FROND01
10
0
20
0
30
0
70
128
71
622
72
658
73
660
0
VERTEX
8
FROND01
10
0
20
0
30
0
70
128
71
588
72
661
73
662
0
VERTEX
8
FROND01
10
0
20
0
30
0
70
128
71
590
72
663
73
664
0
VERTEX
8
FROND01
10
0
20
0
30
0
70
128
71
592
72
665
73
666
0
VERTEX
8
FROND01
10
0
20
0
30
0
70
128
71
594
72
667
73
668
0
VERTEX
8
FROND01
10
0
20
0
30
0
70
128
71
596
72
669
73
670
0
VERTEX
8
FROND01
10
0
20
0
30
0
70
128
71
598
72
671
73
672
0
VERTEX
8
FROND01
10
0
20
0
30
0
70
128
71
586
72
673
73
674
0
VERTEX
8
FROND01
10
0
20
0
30
0
70
128
71
592
72
666
73
675
0
VERTEX
8
FROND01
10
0
20
0
30
0
70
128
71
598
72
672
73
676
0
VERTEX
8
FROND01
10
0
20
0
30
0
70
128
71
588
72
662
73
677
0
VERTEX
8
FROND01
10
0
20
0
30
0
70
128
71
594
72
668
73
678
0
VERTEX
8
FROND01
10
0
20
0
30
0
70
128
71
588
72
677
73
679
0
VERTEX
8
FROND01
10
0
20
0
30
0
70
128
71
600
72
680
73
627
0
VERTEX
8
FROND01
10
0
20
0
30
0
70
128
71
603
72
682
73
630
0
VERTEX
8
FROND01
10
0
20
0
30
0
70
128
71
606
72
684
73
633
0
VERTEX
8
FROND01
10
0
20
0
30
0
70
128
71
609
72
686
73
636
0
VERTEX
8
FROND01
10
0
20
0
30
0
70
128
71
612
72
688
73
639
0
VERTEX
8
FROND01
10
0
20
0
30
0
70
128
71
615
72
690
73
642
0
VERTEX
8
FROND01
10
0
20
0
30
0
70
128
71
618
72
692
73
645
0
VERTEX
8
FROND01
10
0
20
0
30
0
70
128
71
608
72
694
73
648
0
VERTEX
8
FROND01
10
0
20
0
30
0
70
128
71
617
72
695
73
651
0
VERTEX
8
FROND01
10
0
20
0
30
0
70
128
71
602
72
696
73
654
0
VERTEX
8
FROND01
10
0
20
0
30
0
70
128
71
611
72
697
73
657
0
VERTEX
8
FROND01
10
0
20
0
30
0
70
128
71
623
72
698
73
660
0
VERTEX
8
FROND01
10
0
20
0
30
0
70
128
71
602
72
625
73
696
0
VERTEX
8
FROND01
10
0
20
0
30
0
70
128
71
605
72
628
73
701
0
VERTEX
8
FROND01
10
0
20
0
30
0
70
128
71
608
72
631
73
694
0
VERTEX
8
FROND01
10
0
20
0
30
0
70
128
71
611
72
634
73
697
0
VERTEX
8
FROND01
10
0
20
0
30
0
70
128
71
614
72
637
73
705
0
VERTEX
8
FROND01
10
0
20
0
30
0
70
128
71
617
72
640
73
695
0
VERTEX
8
FROND01
10
0
20
0
30
0
70
128
71
620
72
643
73
708
0
VERTEX
8
FROND01
10
0
20
0
30
0
70
128
71
621
72
646
73
709
0
VERTEX
8
FROND01
10
0
20
0
30
0
70
128
71
622
72
649
73
710
0
VERTEX
8
FROND01
10
0
20
0
30
0
70
128
71
623
72
652
73
698
0
VERTEX
8
FROND01
10
0
20
0
30
0
70
128
71
624
72
655
73
679
0
VERTEX
8
FROND01
10
0
20
0
30
0
70
128
71
624
72
658
73
678
0
VERTEX
8
FROND01
10
0
20
0
30
0
70
128
71
625
72
602
73
626
0
VERTEX
8
FROND01
10
0
20
0
30
0
70
128
71
628
72
605
73
629
0
VERTEX
8
FROND01
10
0
20
0
30
0
70
128
71
631
72
608
73
632
0
VERTEX
8
FROND01
10
0
20
0
30
0
70
128
71
634
72
611
73
635
0
VERTEX
8
FROND01
10
0
20
0
30
0
70
128
71
637
72
614
73
638
0
VERTEX
8
FROND01
10
0
20
0
30
0
70
128
71
640
72
617
73
641
0
VERTEX
8
FROND01
10
0
20
0
30
0
70
128
71
643
72
620
73
644
0
VERTEX
8
FROND01
10
0
20
0
30
0
70
128
71
646
72
621
73
647
0
VERTEX
8
FROND01
10
0
20
0
30
0
70
128
71
649
72
622
73
650
0
VERTEX
8
FROND01
10
0
20
0
30
0
70
128
71
652
72
623
73
653
0
VERTEX
8
FROND01
10
0
20
0
30
0
70
128
71
655
72
624
73
656
0
VERTEX
8
FROND01
10
0
20
0
30
0
70
128
71
658
72
624
73
659
0
VERTEX
8
FROND01
10
0
20
0
30
0
70
128
71
661
72
600
73
626
0
VERTEX
8
FROND01
10
0
20
0
30
0
70
128
71
663
72
603
73
629
0
VERTEX
8
FROND01
10
0
20
0
30
0
70
128
71
665
72
606
73
632
0
VERTEX
8
FROND01
10
0
20
0
30
0
70
128
71
667
72
609
73
635
0
VERTEX
8
FROND01
10
0
20
0
30
0
70
128
71
669
72
612
73
638
0
VERTEX
8
FROND01
10
0
20
0
30
0
70
128
71
671
72
615
73
641
0
VERTEX
8
FROND01
10
0
20
0
30
0
70
128
71
673
72
618
73
644
0
VERTEX
8
FROND01
10
0
20
0
30
0
70
128
71
666
72
608
73
647
0
VERTEX
8
FROND01
10
0
20
0
30
0
70
128
71
672
72
617
73
650
0
VERTEX
8
FROND01
10
0
20
0
30
0
70
128
71
662
72
602
73
653
0
VERTEX
8
FROND01
10
0
20
0
30
0
70
128
71
668
72
611
73
656
0
VERTEX
8
FROND01
10
0
20
0
30
0
70
128
71
677
72
623
73
659
0
VERTEX
8
FROND01
10
0
20
0
30
0
70
128
71
680
72
587
73
681
0
VERTEX
8
FROND01
10
0
20
0
30
0
70
128
71
682
72
589
73
683
0
VERTEX
8
FROND01
10
0
20
0
30
0
70
128
71
684
72
591
73
685
0
VERTEX
8
FROND01
10
0
20
0
30
0
70
128
71
686
72
593
73
687
0
VERTEX
8
FROND01
10
0
20
0
30
0
70
128
71
688
72
595
73
689
0
VERTEX
8
FROND01
10
0
20
0
30
0
70
128
71
690
72
597
73
691
0
VERTEX
8
FROND01
10
0
20
0
30
0
70
128
71
692
72
599
73
693
0
VERTEX
8
FROND01
10
0
20
0
30
0
70
128
71
694
72
590
73
664
0
VERTEX
8
FROND01
10
0
20
0
30
0
70
128
71
695
72
596
73
670
0
VERTEX
8
FROND01
10
0
20
0
30
0
70
128
71
696
72
586
73
674
0
VERTEX
8
FROND01
10
0
20
0
30
0
70
128
71
697
72
592
73
675
0
VERTEX
8
FROND01
10
0
20
0
30
0
70
128
71
698
72
598
73
676
0
VERTEX
8
FROND01
10
0
20
0
30
0
70
128
71
625
72
601
73
699
0
VERTEX
8
FROND01
10
0
20
0
30
0
70
128
71
628
72
604
73
700
0
VERTEX
8
FROND01
10
0
20
0
30
0
70
128
71
631
72
607
73
702
0
VERTEX
8
FROND01
10
0
20
0
30
0
70
128
71
634
72
610
73
703
0
VERTEX
8
FROND01
10
0
20
0
30
0
70
128
71
637
72
613
73
704
0
VERTEX
8
FROND01
10
0
20
0
30
0
70
128
71
640
72
616
73
706
0
VERTEX
8
FROND01
10
0
20
0
30
0
70
128
71
643
72
619
73
707
0
VERTEX
8
FROND01
10
0
20
0
30
0
70
128
71
646
72
605
73
701
0
VERTEX
8
FROND01
10
0
20
0
30
0
70
128
71
649
72
614
73
705
0
VERTEX
8
FROND01
10
0
20
0
30
0
70
128
71
652
72
620
73
708
0
VERTEX
8
FROND01
10
0
20
0
30
0
70
128
71
655
72
621
73
709
0
VERTEX
8
FROND01
10
0
20
0
30
0
70
128
71
658
72
622
73
710
0
VERTEX
8
FROND01
10
0
20
0
30
0
70
128
71
627
72
626
73
600
0
VERTEX
8
FROND01
10
0
20
0
30
0
70
128
71
630
72
629
73
603
0
VERTEX
8
FROND01
10
0
20
0
30
0
70
128
71
633
72
632
73
606
0
VERTEX
8
FROND01
10
0
20
0
30
0
70
128
71
636
72
635
73
609
0
VERTEX
8
FROND01
10
0
20
0
30
0
70
128
71
639
72
638
73
612
0
VERTEX
8
FROND01
10
0
20
0
30
0
70
128
71
642
72
641
73
615
0
VERTEX
8
FROND01
10
0
20
0
30
0
70
128
71
645
72
644
73
618
0
VERTEX
8
FROND01
10
0
20
0
30
0
70
128
71
648
72
647
73
608
0
VERTEX
8
FROND01
10
0
20
0
30
0
70
128
71
651
72
650
73
617
0
VERTEX
8
FROND01
10
0
20
0
30
0
70
128
71
654
72
653
73
602
0
VERTEX
8
FROND01
10
0
20
0
30
0
70
128
71
657
72
656
73
611
0
VERTEX
8
FROND01
10
0
20
0
30
0
70
128
71
660
72
659
73
623
0
VERTEX
8
FROND01
10
0
20
0
30
0
70
128
71
662
72
626
73
602
0
VERTEX
8
FROND01
10
0
20
0
30
0
70
128
71
664
72
629
73
605
0
VERTEX
8
FROND01
10
0
20
0
30
0
70
128
71
666
72
632
73
608
0
VERTEX
8
FROND01
10
0
20
0
30
0
70
128
71
668
72
635
73
611
0
VERTEX
8
FROND01
10
0
20
0
30
0
70
128
71
670
72
638
73
614
0
VERTEX
8
FROND01
10
0
20
0
30
0
70
128
71
672
72
641
73
617
0
VERTEX
8
FROND01
10
0
20
0
30
0
70
128
71
674
72
644
73
620
0
VERTEX
8
FROND01
10
0
20
0
30
0
70
128
71
675
72
647
73
621
0
VERTEX
8
FROND01
10
0
20
0
30
0
70
128
71
676
72
650
73
622
0
VERTEX
8
FROND01
10
0
20
0
30
0
70
128
71
677
72
653
73
623
0
VERTEX
8
FROND01
10
0
20
0
30
0
70
128
71
678
72
656
73
624
0
VERTEX
8
FROND01
10
0
20
0
30
0
70
128
71
679
72
659
73
624
0
VERTEX
8
FROND01
10
0
20
0
30
0
70
128
71
627
72
681
73
601
0
VERTEX
8
FROND01
10
0
20
0
30
0
70
128
71
630
72
683
73
604
0
VERTEX
8
FROND01
10
0
20
0
30
0
70
128
71
633
72
685
73
607
0
VERTEX
8
FROND01
10
0
20
0
30
0
70
128
71
636
72
687
73
610
0
VERTEX
8
FROND01
10
0
20
0
30
0
70
128
71
639
72
689
73
613
0
VERTEX
8
FROND01
10
0
20
0
30
0
70
128
71
642
72
691
73
616
0
VERTEX
8
FROND01
10
0
20
0
30
0
70
128
71
645
72
693
73
619
0
VERTEX
8
FROND01
10
0
20
0
30
0
70
128
71
648
72
664
73
605
0
VERTEX
8
FROND01
10
0
20
0
30
0
70
128
71
651
72
670
73
614
0
VERTEX
8
FROND01
10
0
20
0
30
0
70
128
71
654
72
674
73
620
0
VERTEX
8
FROND01
10
0
20
0
30
0
70
128
71
657
72
675
73
621
0
VERTEX
8
FROND01
10
0
20
0
30
0
70
128
71
660
72
676
73
622
0
VERTEX
8
FROND01
10
0
20
0
30
0
70
128
71
696
72
699
73
586
0
VERTEX
8
FROND01
10
0
20
0
30
0
70
128
71
701
72
700
73
588
0
VERTEX
8
FROND01
10
0
20
0
30
0
70
128
71
694
72
702
73
590
0
VERTEX
8
FROND01
10
0
20
0
30
0
70
128
71
697
72
703
73
592
0
VERTEX
8
FROND01
10
0
20
0
30
0
70
128
71
705
72
704
73
594
0
VERTEX
8
FROND01
10
0
20
0
30
0
70
128
71
695
72
706
73
596
0
VERTEX
8
FROND01
10
0
20
0
30
0
70
128
71
708
72
707
73
598
0
VERTEX
8
FROND01
10
0
20
0
30
0
70
128
71
709
72
701
73
588
0
VERTEX
8
FROND01
10
0
20
0
30
0
70
128
71
710
72
705
73
594
0
VERTEX
8
FROND01
10
0
20
0
30
0
70
128
71
698
72
708
73
598
0
VERTEX
8
FROND01
10
0
20
0
30
0
70
128
71
679
72
709
73
588
0
VERTEX
8
FROND01
10
0
20
0
30
0
70
128
71
678
72
710
73
594
0
VERTEX
8
FROND01
10
0
20
0
30
0
70
128
71
751
72
752
73
750
0
VERTEX
8
FROND01
10
0
20
0
30
0
70
128
71
754
72
755
73
753
0
VERTEX
8
FROND01
10
0
20
0
30
0
70
128
71
757
72
758
73
756
0
VERTEX
8
FROND01
10
0
20
0
30
0
70
128
71
760
72
761
73
759
0
VERTEX
8
FROND01
10
0
20
0
30
0
70
128
71
763
72
764
73
762
0
VERTEX
8
FROND01
10
0
20
0
30
0
70
128
71
766
72
767
73
765
0
VERTEX
8
FROND01
10
0
20
0
30
0
70
128
71
769
72
770
73
768
0
VERTEX
8
FROND01
10
0
20
0
30
0
70
128
71
772
72
773
73
771
0
VERTEX
8
FROND01
10
0
20
0
30
0
70
128
71
775
72
776
73
774
0
VERTEX
8
FROND01
10
0
20
0
30
0
70
128
71
778
72
779
73
777
0
VERTEX
8
FROND01
10
0
20
0
30
0
70
128
71
781
72
782
73
780
0
VERTEX
8
FROND01
10
0
20
0
30
0
70
128
71
784
72
785
73
783
0
VERTEX
8
FROND01
10
0
20
0
30
0
70
128
71
751
72
787
73
786
0
VERTEX
8
FROND01
10
0
20
0
30
0
70
128
71
754
72
789
73
788
0
VERTEX
8
FROND01
10
0
20
0
30
0
70
128
71
757
72
791
73
790
0
VERTEX
8
FROND01
10
0
20
0
30
0
70
128
71
760
72
793
73
792
0
VERTEX
8
FROND01
10
0
20
0
30
0
70
128
71
763
72
795
73
794
0
VERTEX
8
FROND01
10
0
20
0
30
0
70
128
71
766
72
797
73
796
0
VERTEX
8
FROND01
10
0
20
0
30
0
70
128
71
769
72
799
73
798
0
VERTEX
8
FROND01
10
0
20
0
30
0
70
128
71
772
72
800
73
791
0
VERTEX
8
FROND01
10
0
20
0
30
0
70
128
71
775
72
801
73
797
0
VERTEX
8
FROND01
10
0
20
0
30
0
70
128
71
778
72
802
73
787
0
VERTEX
8
FROND01
10
0
20
0
30
0
70
128
71
781
72
803
73
793
0
VERTEX
8
FROND01
10
0
20
0
30
0
70
128
71
784
72
804
73
802
0
VERTEX
8
FROND01
10
0
20
0
30
0
70
128
71
806
72
752
73
805
0
VERTEX
8
FROND01
10
0
20
0
30
0
70
128
71
808
72
755
73
807
0
VERTEX
8
FROND01
10
0
20
0
30
0
70
128
71
810
72
758
73
809
0
VERTEX
8
FROND01
10
0
20
0
30
0
70
128
71
812
72
761
73
811
0
VERTEX
8
FROND01
10
0
20
0
30
0
70
128
71
814
72
764
73
813
0
VERTEX
8
FROND01
10
0
20
0
30
0
70
128
71
816
72
767
73
815
0
VERTEX
8
FROND01
10
0
20
0
30
0
70
128
71
818
72
770
73
817
0
VERTEX
8
FROND01
10
0
20
0
30
0
70
128
71
789
72
773
73
819
0
VERTEX
8
FROND01
10
0
20
0
30
0
70
128
71
795
72
776
73
820
0
VERTEX
8
FROND01
10
0
20
0
30
0
70
128
71
799
72
779
73
821
0
VERTEX
8
FROND01
10
0
20
0
30
0
70
128
71
800
72
782
73
822
0
VERTEX
8
FROND01
10
0
20
0
30
0
70
128
71
801
72
785
73
823
0
VERTEX
8
FROND01
10
0
20
0
30
0
70
128
71
824
72
821
73
750
0
VERTEX
8
FROND01
10
0
20
0
30
0
70
128
71
825
72
826
73
753
0
VERTEX
8
FROND01
10
0
20
0
30
0
70
128
71
827
72
819
73
756
0
VERTEX
8
FROND01
10
0
20
0
30
0
70
128
71
828
72
822
73
759
0
VERTEX
8
FROND01
10
0
20
0
30
0
70
128
71
829
72
830
73
762
0
VERTEX
8
FROND01
10
0
20
0
30
0
70
128
71
831
72
820
73
765
0
VERTEX
8
FROND01
10
0
20
0
30
0
70
128
71
832
72
833
73
768
0
VERTEX
8
FROND01
10
0
20
0
30
0
70
128
71
826
72
834
73
771
0
VERTEX
8
FROND01
10
0
20
0
30
0
70
128
71
830
72
835
73
774
0
VERTEX
8
FROND01
10
0
20
0
30
0
70
128
71
833
72
823
73
777
0
VERTEX
8
FROND01
10
0
20
0
30
0
70
128
71
834
72
804
73
780
0
VERTEX
8
FROND01
10
0
20
0
30
0
70
128
71
835
72
803
73
783
0
VERTEX
8
FROND01
10
0
20
0
30
0
70
128
71
726
72
750
73
752
0
VERTEX
8
FROND01
10
0
20
0
30
0
70
128
71
729
72
753
73
755
0
VERTEX
8
FROND01
10
0
20
0
30
0
70
128
71
732
72
756
73
758
0
VERTEX
8
FROND01
10
0
20
0
30
0
70
128
71
735
72
759
73
761
0
VERTEX
8
FROND01
10
0
20
0
30
0
70
128
71
738
72
762
73
764
0
VERTEX
8
FROND01
10
0
20
0
30
0
70
128
71
741
72
765
73
767
0
VERTEX
8
FROND01
10
0
20
0
30
0
70
128
71
744
72
768
73
770
0
VERTEX
8
FROND01
10
0
20
0
30
0
70
128
71
730
72
771
73
773
0
VERTEX
8
FROND01
10
0
20
0
30
0
70
128
71
739
72
774
73
776
0
VERTEX
8
FROND01
10
0
20
0
30
0
70
128
71
745
72
777
73
779
0
VERTEX
8
FROND01
10
0
20
0
30
0
70
128
71
746
72
780
73
782
0
VERTEX
8
FROND01
10
0
20
0
30
0
70
128
71
747
72
783
73
785
0
VERTEX
8
FROND01
10
0
20
0
30
0
70
128
71
713
72
786
73
787
0
VERTEX
8
FROND01
10
0
20
0
30
0
70
128
71
715
72
788
73
789
0
VERTEX
8
FROND01
10
0
20
0
30
0
70
128
71
717
72
790
73
791
0
VERTEX
8
FROND01
10
0
20
0
30
0
70
128
71
719
72
792
73
793
0
VERTEX
8
FROND01
10
0
20
0
30
0
70
128
71
721
72
794
73
795
0
VERTEX
8
FROND01
10
0
20
0
30
0
70
128
71
723
72
796
73
797
0
VERTEX
8
FROND01
10
0
20
0
30
0
70
128
71
711
72
798
73
799
0
VERTEX
8
FROND01
10
0
20
0
30
0
70
128
71
717
72
791
73
800
0
VERTEX
8
FROND01
10
0
20
0
30
0
70
128
71
723
72
797
73
801
0
VERTEX
8
FROND01
10
0
20
0
30
0
70
128
71
713
72
787
73
802
0
VERTEX
8
FROND01
10
0
20
0
30
0
70
128
71
719
72
793
73
803
0
VERTEX
8
FROND01
10
0
20
0
30
0
70
128
71
713
72
802
73
804
0
VERTEX
8
FROND01
10
0
20
0
30
0
70
128
71
725
72
805
73
752
0
VERTEX
8
FROND01
10
0
20
0
30
0
70
128
71
728
72
807
73
755
0
VERTEX
8
FROND01
10
0
20
0
30
0
70
128
71
731
72
809
73
758
0
VERTEX
8
FROND01
10
0
20
0
30
0
70
128
71
734
72
811
73
761
0
VERTEX
8
FROND01
10
0
20
0
30
0
70
128
71
737
72
813
73
764
0
VERTEX
8
FROND01
10
0
20
0
30
0
70
128
71
740
72
815
73
767
0
VERTEX
8
FROND01
10
0
20
0
30
0
70
128
71
743
72
817
73
770
0
VERTEX
8
FROND01
10
0
20
0
30
0
70
128
71
733
72
819
73
773
0
VERTEX
8
FROND01
10
0
20
0
30
0
70
128
71
742
72
820
73
776
0
VERTEX
8
FROND01
10
0
20
0
30
0
70
128
71
727
72
821
73
779
0
VERTEX
8
FROND01
10
0
20
0
30
0
70
128
71
736
72
822
73
782
0
VERTEX
8
FROND01
10
0
20
0
30
0
70
128
71
748
72
823
73
785
0
VERTEX
8
FROND01
10
0
20
0
30
0
70
128
71
727
72
750
73
821
0
VERTEX
8
FROND01
10
0
20
0
30
0
70
128
71
730
72
753
73
826
0
VERTEX
8
FROND01
10
0
20
0
30
0
70
128
71
733
72
756
73
819
0
VERTEX
8
FROND01
10
0
20
0
30
0
70
128
71
736
72
759
73
822
0
VERTEX
8
FROND01
10
0
20
0
30
0
70
128
71
739
72
762
73
830
0
VERTEX
8
FROND01
10
0
20
0
30
0
70
128
71
742
72
765
73
820
0
VERTEX
8
FROND01
10
0
20
0
30
0
70
128
71
745
72
768
73
833
0
VERTEX
8
FROND01
10
0
20
0
30
0
70
128
71
746
72
771
73
834
0
VERTEX
8
FROND01
10
0
20
0
30
0
70
128
71
747
72
774
73
835
0
VERTEX
8
FROND01
10
0
20
0
30
0
70
128
71
748
72
777
73
823
0
VERTEX
8
FROND01
10
0
20
0
30
0
70
128
71
749
72
780
73
804
0
VERTEX
8
FROND01
10
0
20
0
30
0
70
128
71
749
72
783
73
803
0
VERTEX
8
FROND01
10
0
20
0
30
0
70
128
71
750
72
727
73
751
0
VERTEX
8
FROND01
10
0
20
0
30
0
70
128
71
753
72
730
73
754
0
VERTEX
8
FROND01
10
0
20
0
30
0
70
128
71
756
72
733
73
757
0
VERTEX
8
FROND01
10
0
20
0
30
0
70
128
71
759
72
736
73
760
0
VERTEX
8
FROND01
10
0
20
0
30
0
70
128
71
762
72
739
73
763
0
VERTEX
8
FROND01
10
0
20
0
30
0
70
128
71
765
72
742
73
766
0
VERTEX
8
FROND01
10
0
20
0
30
0
70
128
71
768
72
745
73
769
0
VERTEX
8
FROND01
10
0
20
0
30
0
70
128
71
771
72
746
73
772
0
VERTEX
8
FROND01
10
0
20
0
30
0
70
128
71
774
72
747
73
775
0
VERTEX
8
FROND01
10
0
20
0
30
0
70
128
71
777
72
748
73
778
0
VERTEX
8
FROND01
10
0
20
0
30
0
70
128
71
780
72
749
73
781
0
VERTEX
8
FROND01
10
0
20
0
30
0
70
128
71
783
72
749
73
784
0
VERTEX
8
FROND01
10
0
20
0
30
0
70
128
71
786
72
725
73
751
0
VERTEX
8
FROND01
10
0
20
0
30
0
70
128
71
788
72
728
73
754
0
VERTEX
8
FROND01
10
0
20
0
30
0
70
128
71
790
72
731
73
757
0
VERTEX
8
FROND01
10
0
20
0
30
0
70
128
71
792
72
734
73
760
0
VERTEX
8
FROND01
10
0
20
0
30
0
70
128
71
794
72
737
73
763
0
VERTEX
8
FROND01
10
0
20
0
30
0
70
128
71
796
72
740
73
766
0
VERTEX
8
FROND01
10
0
20
0
30
0
70
128
71
798
72
743
73
769
0
VERTEX
8
FROND01
10
0
20
0
30
0
70
128
71
791
72
733
73
772
0
VERTEX
8
FROND01
10
0
20
0
30
0
70
128
71
797
72
742
73
775
0
VERTEX
8
FROND01
10
0
20
0
30
0
70
128
71
787
72
727
73
778
0
VERTEX
8
FROND01
10
0
20
0
30
0
70
128
71
793
72
736
73
781
0
VERTEX
8
FROND01
10
0
20
0
30
0
70
128
71
802
72
748
73
784
0
VERTEX
8
FROND01
10
0
20
0
30
0
70
128
71
805
72
712
73
806
0
VERTEX
8
FROND01
10
0
20
0
30
0
70
128
71
807
72
714
73
808
0
VERTEX
8
FROND01
10
0
20
0
30
0
70
128
71
809
72
716
73
810
0
VERTEX
8
FROND01
10
0
20
0
30
0
70
128
71
811
72
718
73
812
0
VERTEX
8
FROND01
10
0
20
0
30
0
70
128
71
813
72
720
73
814
0
VERTEX
8
FROND01
10
0
20
0
30
0
70
128
71
815
72
722
73
816
0
VERTEX
8
FROND01
10
0
20
0
30
0
70
128
71
817
72
724
73
818
0
VERTEX
8
FROND01
10
0
20
0
30
0
70
128
71
819
72
715
73
789
0
VERTEX
8
FROND01
10
0
20
0
30
0
70
128
71
820
72
721
73
795
0
VERTEX
8
FROND01
10
0
20
0
30
0
70
128
71
821
72
711
73
799
0
VERTEX
8
FROND01
10
0
20
0
30
0
70
128
71
822
72
717
73
800
0
VERTEX
8
FROND01
10
0
20
0
30
0
70
128
71
823
72
723
73
801
0
VERTEX
8
FROND01
10
0
20
0
30
0
70
128
71
750
72
726
73
824
0
VERTEX
8
FROND01
10
0
20
0
30
0
70
128
71
753
72
729
73
825
0
VERTEX
8
FROND01
10
0
20
0
30
0
70
128
71
756
72
732
73
827
0
VERTEX
8
FROND01
10
0
20
0
30
0
70
128
71
759
72
735
73
828
0
VERTEX
8
FROND01
10
0
20
0
30
0
70
128
71
762
72
738
73
829
0
VERTEX
8
FROND01
10
0
20
0
30
0
70
128
71
765
72
741
73
831
0
VERTEX
8
FROND01
10
0
20
0
30
0
70
128
71
768
72
744
73
832
0
VERTEX
8
FROND01
10
0
20
0
30
0
70
128
71
771
72
730
73
826
0
VERTEX
8
FROND01
10
0
20
0
30
0
70
128
71
774
72
739
73
830
0
VERTEX
8
FROND01
10
0
20
0
30
0
70
128
71
777
72
745
73
833
0
VERTEX
8
FROND01
10
0
20
0
30
0
70
128
71
780
72
746
73
834
0
VERTEX
8
FROND01
10
0
20
0
30
0
70
128
71
783
72
747
73
835
0
VERTEX
8
FROND01
10
0
20
0
30
0
70
128
71
752
72
751
73
725
0
VERTEX
8
FROND01
10
0
20
0
30
0
70
128
71
755
72
754
73
728
0
VERTEX
8
FROND01
10
0
20
0
30
0
70
128
71
758
72
757
73
731
0
VERTEX
8
FROND01
10
0
20
0
30
0
70
128
71
761
72
760
73
734
0
VERTEX
8
FROND01
10
0
20
0
30
0
70
128
71
764
72
763
73
737
0
VERTEX
8
FROND01
10
0
20
0
30
0
70
128
71
767
72
766
73
740
0
VERTEX
8
FROND01
10
0
20
0
30
0
70
128
71
770
72
769
73
743
0
VERTEX
8
FROND01
10
0
20
0
30
0
70
128
71
773
72
772
73
733
0
VERTEX
8
FROND01
10
0
20
0
30
0
70
128
71
776
72
775
73
742
0
VERTEX
8
FROND01
10
0
20
0
30
0
70
128
71
779
72
778
73
727
0
VERTEX
8
FROND01
10
0
20
0
30
0
70
128
71
782
72
781
73
736
0
VERTEX
8
FROND01
10
0
20
0
30
0
70
128
71
785
72
784
73
748
0
VERTEX
8
FROND01
10
0
20
0
30
0
70
128
71
787
72
751
73
727
0
VERTEX
8
FROND01
10
0
20
0
30
0
70
128
71
789
72
754
73
730
0
VERTEX
8
FROND01
10
0
20
0
30
0
70
128
71
791
72
757
73
733
0
VERTEX
8
FROND01
10
0
20
0
30
0
70
128
71
793
72
760
73
736
0
VERTEX
8
FROND01
10
0
20
0
30
0
70
128
71
795
72
763
73
739
0
VERTEX
8
FROND01
10
0
20
0
30
0
70
128
71
797
72
766
73
742
0
VERTEX
8
FROND01
10
0
20
0
30
0
70
128
71
799
72
769
73
745
0
VERTEX
8
FROND01
10
0
20
0
30
0
70
128
71
800
72
772
73
746
0
VERTEX
8
FROND01
10
0
20
0
30
0
70
128
71
801
72
775
73
747
0
VERTEX
8
FROND01
10
0
20
0
30
0
70
128
71
802
72
778
73
748
0
VERTEX
8
FROND01
10
0
20
0
30
0
70
128
71
803
72
781
73
749
0
VERTEX
8
FROND01
10
0
20
0
30
0
70
128
71
804
72
784
73
749
0
VERTEX
8
FROND01
10
0
20
0
30
0
70
128
71
752
72
806
73
726
0
VERTEX
8
FROND01
10
0
20
0
30
0
70
128
71
755
72
808
73
729
0
VERTEX
8
FROND01
10
0
20
0
30
0
70
128
71
758
72
810
73
732
0
VERTEX
8
FROND01
10
0
20
0
30
0
70
128
71
761
72
812
73
735
0
VERTEX
8
FROND01
10
0
20
0
30
0
70
128
71
764
72
814
73
738
0
VERTEX
8
FROND01
10
0
20
0
30
0
70
128
71
767
72
816
73
741
0
VERTEX
8
FROND01
10
0
20
0
30
0
70
128
71
770
72
818
73
744
0
VERTEX
8
FROND01
10
0
20
0
30
0
70
128
71
773
72
789
73
730
0
VERTEX
8
FROND01
10
0
20
0
30
0
70
128
71
776
72
795
73
739
0
VERTEX
8
FROND01
10
0
20
0
30
0
70
128
71
779
72
799
73
745
0
VERTEX
8
FROND01
10
0
20
0
30
0
70
128
71
782
72
800
73
746
0
VERTEX
8
FROND01
10
0
20
0
30
0
70
128
71
785
72
801
73
747
0
VERTEX
8
FROND01
10
0
20
0
30
0
70
128
71
821
72
824
73
711
0
VERTEX
8
FROND01
10
0
20
0
30
0
70
128
71
826
72
825
73
713
0
VERTEX
8
FROND01
10
0
20
0
30
0
70
128
71
819
72
827
73
715
0
VERTEX
8
FROND01
10
0
20
0
30
0
70
128
71
822
72
828
73
717
0
VERTEX
8
FROND01
10
0
20
0
30
0
70
128
71
830
72
829
73
719
0
VERTEX
8
FROND01
10
0
20
0
30
0
70
128
71
820
72
831
73
721
0
VERTEX
8
FROND01
10
0
20
0
30
0
70
128
71
833
72
832
73
723
0
VERTEX
8
FROND01
10
0
20
0
30
0
70
128
71
834
72
826
73
713
0
VERTEX
8
FROND01
10
0
20
0
30
0
70
128
71
835
72
830
73
719
0
VERTEX
8
FROND01
10
0
20
0
30
0
70
128
71
823
72
833
73
723
0
VERTEX
8
FROND01
10
0
20
0
30
0
70
128
71
804
72
834
73
713
0
VERTEX
8
FROND01
10
0
20
0
30
0
70
128
71
803
72
835
73
719
0
SEQEND
8
FROND01
0
ENDSEC
0
EOF
